solid OpenSCAD_Model
  facet normal 0 -0.5 0.866025
    outer loop
      vertex -32.5438 17.4649 19.7255
      vertex -16.6688 15.1656 18.398
      vertex -16.6688 17.4649 19.7255
    endloop
  endfacet
  facet normal 0 -0.5 0.866025
    outer loop
      vertex -16.6688 15.1656 18.398
      vertex -32.5438 17.4649 19.7255
      vertex -32.5438 15.1656 18.398
    endloop
  endfacet
  facet normal 0 -0.309017 0.951057
    outer loop
      vertex -32.5438 15.1656 18.398
      vertex -16.6688 12.6405 17.5775
      vertex -16.6688 15.1656 18.398
    endloop
  endfacet
  facet normal 0 -0.309017 0.951057
    outer loop
      vertex -16.6688 12.6405 17.5775
      vertex -32.5438 15.1656 18.398
      vertex -32.5438 12.6405 17.5775
    endloop
  endfacet
  facet normal 0 -0.913545 0.406737
    outer loop
      vertex -32.5438 20.9985 23.65
      vertex -16.6688 21.7777 25.4
      vertex -32.5438 21.7777 25.4
    endloop
  endfacet
  facet normal 0 -0.913545 0.406737
    outer loop
      vertex -16.6688 21.7777 25.4
      vertex -32.5438 20.9985 23.65
      vertex -16.6688 20.9985 23.65
    endloop
  endfacet
  facet normal -0 0.104529 0.994522
    outer loop
      vertex -32.5438 10 17.3
      vertex -16.6688 7.35952 17.5775
      vertex -16.6688 10 17.3
    endloop
  endfacet
  facet normal 0 0.104529 0.994522
    outer loop
      vertex -16.6688 7.35952 17.5775
      vertex -32.5438 10 17.3
      vertex -32.5438 7.35952 17.5775
    endloop
  endfacet
  facet normal 0 -0.66913 0.743145
    outer loop
      vertex -32.5438 19.4379 21.502
      vertex -16.6688 17.4649 19.7255
      vertex -16.6688 19.4379 21.502
    endloop
  endfacet
  facet normal 0 -0.66913 0.743145
    outer loop
      vertex -16.6688 17.4649 19.7255
      vertex -32.5438 19.4379 21.502
      vertex -32.5438 17.4649 19.7255
    endloop
  endfacet
  facet normal 0 -0.809017 0.587785
    outer loop
      vertex -32.5438 19.4379 21.502
      vertex -16.6688 20.9985 23.65
      vertex -32.5438 20.9985 23.65
    endloop
  endfacet
  facet normal 0 -0.809017 0.587785
    outer loop
      vertex -16.6688 20.9985 23.65
      vertex -32.5438 19.4379 21.502
      vertex -16.6688 19.4379 21.502
    endloop
  endfacet
  facet normal 0 -0.104529 0.994522
    outer loop
      vertex -32.5438 12.6405 17.5775
      vertex -16.6688 10 17.3
      vertex -16.6688 12.6405 17.5775
    endloop
  endfacet
  facet normal 0 -0.104529 0.994522
    outer loop
      vertex -16.6688 10 17.3
      vertex -32.5438 12.6405 17.5775
      vertex -32.5438 10 17.3
    endloop
  endfacet
  facet normal 0 0.809017 0.587785
    outer loop
      vertex -16.6688 0.562061 21.502
      vertex -32.5438 -0.998522 23.65
      vertex -16.6688 -0.998522 23.65
    endloop
  endfacet
  facet normal 0 0.809017 0.587785
    outer loop
      vertex -32.5438 -0.998522 23.65
      vertex -16.6688 0.562061 21.502
      vertex -32.5438 0.562061 21.502
    endloop
  endfacet
  facet normal -1 0 0
    outer loop
      vertex -16.6688 19.4379 21.502
      vertex -16.6688 21.7777 25.4
      vertex -16.6688 20.9985 23.65
    endloop
  endfacet
  facet normal -1 0 0
    outer loop
      vertex -16.6688 17.4649 19.7255
      vertex -16.6688 21.7777 25.4
      vertex -16.6688 19.4379 21.502
    endloop
  endfacet
  facet normal -1 0 0
    outer loop
      vertex -16.6688 15.1656 18.398
      vertex -16.6688 21.7777 25.4
      vertex -16.6688 17.4649 19.7255
    endloop
  endfacet
  facet normal -1 0 0
    outer loop
      vertex -16.6688 12.6405 17.5775
      vertex -16.6688 21.7777 25.4
      vertex -16.6688 15.1656 18.398
    endloop
  endfacet
  facet normal -1 0 0
    outer loop
      vertex -16.6688 10 17.3
      vertex -16.6688 21.7777 25.4
      vertex -16.6688 12.6405 17.5775
    endloop
  endfacet
  facet normal -1 0 0
    outer loop
      vertex -16.6688 7.35952 17.5775
      vertex -16.6688 21.7777 25.4
      vertex -16.6688 10 17.3
    endloop
  endfacet
  facet normal -1 0 0
    outer loop
      vertex -16.6688 4.83444 18.398
      vertex -16.6688 21.7777 25.4
      vertex -16.6688 7.35952 17.5775
    endloop
  endfacet
  facet normal -1 0 0
    outer loop
      vertex -16.6688 2.53513 19.7255
      vertex -16.6688 21.7777 25.4
      vertex -16.6688 4.83444 18.398
    endloop
  endfacet
  facet normal -1 0 0
    outer loop
      vertex -16.6688 -1.77767 25.4
      vertex -16.6688 2.53513 19.7255
      vertex -16.6688 0.562061 21.502
    endloop
  endfacet
  facet normal -1 0 0
    outer loop
      vertex -16.6688 -1.77767 25.4
      vertex -16.6688 0.562061 21.502
      vertex -16.6688 -0.998522 23.65
    endloop
  endfacet
  facet normal -1 0 0
    outer loop
      vertex -16.6688 2.53513 19.7255
      vertex -16.6688 -1.77767 25.4
      vertex -16.6688 21.7777 25.4
    endloop
  endfacet
  facet normal -0 0.5 0.866025
    outer loop
      vertex -32.5438 4.83444 18.398
      vertex -16.6688 2.53513 19.7255
      vertex -16.6688 4.83444 18.398
    endloop
  endfacet
  facet normal 0 0.5 0.866025
    outer loop
      vertex -16.6688 2.53513 19.7255
      vertex -32.5438 4.83444 18.398
      vertex -32.5438 2.53513 19.7255
    endloop
  endfacet
  facet normal 1 0 0
    outer loop
      vertex -32.5438 21.7777 25.4
      vertex -32.5438 19.4379 21.502
      vertex -32.5438 20.9985 23.65
    endloop
  endfacet
  facet normal 1 0 0
    outer loop
      vertex -32.5438 21.7777 25.4
      vertex -32.5438 17.4649 19.7255
      vertex -32.5438 19.4379 21.502
    endloop
  endfacet
  facet normal 1 0 0
    outer loop
      vertex -32.5438 21.7777 25.4
      vertex -32.5438 15.1656 18.398
      vertex -32.5438 17.4649 19.7255
    endloop
  endfacet
  facet normal 1 0 0
    outer loop
      vertex -32.5438 21.7777 25.4
      vertex -32.5438 12.6405 17.5775
      vertex -32.5438 15.1656 18.398
    endloop
  endfacet
  facet normal 1 0 0
    outer loop
      vertex -32.5438 21.7777 25.4
      vertex -32.5438 10 17.3
      vertex -32.5438 12.6405 17.5775
    endloop
  endfacet
  facet normal 1 0 0
    outer loop
      vertex -32.5438 21.7777 25.4
      vertex -32.5438 7.35952 17.5775
      vertex -32.5438 10 17.3
    endloop
  endfacet
  facet normal 1 0 0
    outer loop
      vertex -32.5438 21.7777 25.4
      vertex -32.5438 4.83444 18.398
      vertex -32.5438 7.35952 17.5775
    endloop
  endfacet
  facet normal 1 0 0
    outer loop
      vertex -32.5438 21.7777 25.4
      vertex -32.5438 2.53513 19.7255
      vertex -32.5438 4.83444 18.398
    endloop
  endfacet
  facet normal 1 -0 0
    outer loop
      vertex -32.5438 -1.77767 25.4
      vertex -32.5438 2.53513 19.7255
      vertex -32.5438 21.7777 25.4
    endloop
  endfacet
  facet normal 1 0 0
    outer loop
      vertex -32.5438 2.53513 19.7255
      vertex -32.5438 -1.77767 25.4
      vertex -32.5438 0.562061 21.502
    endloop
  endfacet
  facet normal 1 0 0
    outer loop
      vertex -32.5438 0.562061 21.502
      vertex -32.5438 -1.77767 25.4
      vertex -32.5438 -0.998522 23.65
    endloop
  endfacet
  facet normal 0 0.913545 0.406737
    outer loop
      vertex -16.6688 -0.998522 23.65
      vertex -32.5438 -1.77767 25.4
      vertex -16.6688 -1.77767 25.4
    endloop
  endfacet
  facet normal 0 0.913545 0.406737
    outer loop
      vertex -32.5438 -1.77767 25.4
      vertex -16.6688 -0.998522 23.65
      vertex -32.5438 -0.998522 23.65
    endloop
  endfacet
  facet normal -0 0.309017 0.951057
    outer loop
      vertex -32.5438 7.35952 17.5775
      vertex -16.6688 4.83444 18.398
      vertex -16.6688 7.35952 17.5775
    endloop
  endfacet
  facet normal 0 0.309017 0.951057
    outer loop
      vertex -16.6688 4.83444 18.398
      vertex -32.5438 7.35952 17.5775
      vertex -32.5438 4.83444 18.398
    endloop
  endfacet
  facet normal -0 0.66913 0.743145
    outer loop
      vertex -32.5438 2.53513 19.7255
      vertex -16.6688 0.562061 21.502
      vertex -16.6688 2.53513 19.7255
    endloop
  endfacet
  facet normal 0 0.66913 0.743145
    outer loop
      vertex -16.6688 0.562061 21.502
      vertex -32.5438 2.53513 19.7255
      vertex -32.5438 0.562061 21.502
    endloop
  endfacet
  facet normal 0 -0.5 0.866025
    outer loop
      vertex -10.3188 18.398 18.4412
      vertex 5.55625 15.8112 16.9477
      vertex 5.55625 18.398 18.4412
    endloop
  endfacet
  facet normal 0 -0.5 0.866025
    outer loop
      vertex 5.55625 15.8112 16.9477
      vertex -10.3188 18.398 18.4412
      vertex -10.3188 15.8112 16.9477
    endloop
  endfacet
  facet normal 0 -0.669131 0.743145
    outer loop
      vertex -10.3188 20.6177 20.4398
      vertex 5.55625 18.398 18.4412
      vertex 5.55625 20.6177 20.4398
    endloop
  endfacet
  facet normal 0 -0.669131 0.743145
    outer loop
      vertex 5.55625 18.398 18.4412
      vertex -10.3188 20.6177 20.4398
      vertex -10.3188 18.398 18.4412
    endloop
  endfacet
  facet normal -0 0.104529 0.994522
    outer loop
      vertex -10.3188 10 15.7125
      vertex 5.55625 7.02946 16.0247
      vertex 5.55625 10 15.7125
    endloop
  endfacet
  facet normal 0 0.104529 0.994522
    outer loop
      vertex 5.55625 7.02946 16.0247
      vertex -10.3188 10 15.7125
      vertex -10.3188 7.02946 16.0247
    endloop
  endfacet
  facet normal 0 -0.809017 0.587785
    outer loop
      vertex -10.3188 20.6177 20.4398
      vertex 5.55625 22.3733 22.8563
      vertex -10.3188 22.3733 22.8563
    endloop
  endfacet
  facet normal 0 -0.809017 0.587785
    outer loop
      vertex 5.55625 22.3733 22.8563
      vertex -10.3188 20.6177 20.4398
      vertex 5.55625 20.6177 20.4398
    endloop
  endfacet
  facet normal 0 -0.913545 0.406737
    outer loop
      vertex -10.3188 22.3733 22.8563
      vertex 5.55625 23.5059 25.4
      vertex -10.3188 23.5059 25.4
    endloop
  endfacet
  facet normal 0 -0.913545 0.406737
    outer loop
      vertex 5.55625 23.5059 25.4
      vertex -10.3188 22.3733 22.8563
      vertex 5.55625 22.3733 22.8563
    endloop
  endfacet
  facet normal -1 0 0
    outer loop
      vertex 5.55625 20.6177 20.4398
      vertex 5.55625 23.5059 25.4
      vertex 5.55625 22.3733 22.8563
    endloop
  endfacet
  facet normal -1 0 0
    outer loop
      vertex 5.55625 18.398 18.4412
      vertex 5.55625 23.5059 25.4
      vertex 5.55625 20.6177 20.4398
    endloop
  endfacet
  facet normal -1 0 0
    outer loop
      vertex 5.55625 15.8112 16.9477
      vertex 5.55625 23.5059 25.4
      vertex 5.55625 18.398 18.4412
    endloop
  endfacet
  facet normal -1 0 0
    outer loop
      vertex 5.55625 12.9705 16.0247
      vertex 5.55625 23.5059 25.4
      vertex 5.55625 15.8112 16.9477
    endloop
  endfacet
  facet normal -1 0 0
    outer loop
      vertex 5.55625 10 15.7125
      vertex 5.55625 23.5059 25.4
      vertex 5.55625 12.9705 16.0247
    endloop
  endfacet
  facet normal -1 0 0
    outer loop
      vertex 5.55625 7.02946 16.0247
      vertex 5.55625 23.5059 25.4
      vertex 5.55625 10 15.7125
    endloop
  endfacet
  facet normal -1 0 0
    outer loop
      vertex 5.55625 4.18875 16.9477
      vertex 5.55625 23.5059 25.4
      vertex 5.55625 7.02946 16.0247
    endloop
  endfacet
  facet normal -1 0 0
    outer loop
      vertex 5.55625 1.60202 18.4412
      vertex 5.55625 23.5059 25.4
      vertex 5.55625 4.18875 16.9477
    endloop
  endfacet
  facet normal -1 0 0
    outer loop
      vertex 5.55625 -0.617682 20.4398
      vertex 5.55625 23.5059 25.4
      vertex 5.55625 1.60202 18.4412
    endloop
  endfacet
  facet normal -1 0 0
    outer loop
      vertex 5.55625 -2.37334 22.8563
      vertex 5.55625 23.5059 25.4
      vertex 5.55625 -0.617682 20.4398
    endloop
  endfacet
  facet normal -1 -0 0
    outer loop
      vertex 5.55625 23.5059 25.4
      vertex 5.55625 -2.37334 22.8563
      vertex 5.55625 -3.50589 25.4
    endloop
  endfacet
  facet normal 0 -0.104529 0.994522
    outer loop
      vertex -10.3188 12.9705 16.0247
      vertex 5.55625 10 15.7125
      vertex 5.55625 12.9705 16.0247
    endloop
  endfacet
  facet normal 0 -0.104529 0.994522
    outer loop
      vertex 5.55625 10 15.7125
      vertex -10.3188 12.9705 16.0247
      vertex -10.3188 10 15.7125
    endloop
  endfacet
  facet normal -0 0.309017 0.951057
    outer loop
      vertex -10.3188 7.02946 16.0247
      vertex 5.55625 4.18875 16.9477
      vertex 5.55625 7.02946 16.0247
    endloop
  endfacet
  facet normal 0 0.309017 0.951057
    outer loop
      vertex 5.55625 4.18875 16.9477
      vertex -10.3188 7.02946 16.0247
      vertex -10.3188 4.18875 16.9477
    endloop
  endfacet
  facet normal 0 0.809017 0.587785
    outer loop
      vertex 5.55625 -0.617682 20.4398
      vertex -10.3188 -2.37334 22.8563
      vertex 5.55625 -2.37334 22.8563
    endloop
  endfacet
  facet normal 0 0.809017 0.587785
    outer loop
      vertex -10.3188 -2.37334 22.8563
      vertex 5.55625 -0.617682 20.4398
      vertex -10.3188 -0.617682 20.4398
    endloop
  endfacet
  facet normal 0 -0.309017 0.951057
    outer loop
      vertex -10.3188 15.8112 16.9477
      vertex 5.55625 12.9705 16.0247
      vertex 5.55625 15.8112 16.9477
    endloop
  endfacet
  facet normal 0 -0.309017 0.951057
    outer loop
      vertex 5.55625 12.9705 16.0247
      vertex -10.3188 15.8112 16.9477
      vertex -10.3188 12.9705 16.0247
    endloop
  endfacet
  facet normal -0 0.5 0.866025
    outer loop
      vertex -10.3188 4.18875 16.9477
      vertex 5.55625 1.60202 18.4412
      vertex 5.55625 4.18875 16.9477
    endloop
  endfacet
  facet normal 0 0.5 0.866025
    outer loop
      vertex 5.55625 1.60202 18.4412
      vertex -10.3188 4.18875 16.9477
      vertex -10.3188 1.60202 18.4412
    endloop
  endfacet
  facet normal 0 0.913545 0.406737
    outer loop
      vertex 5.55625 -2.37334 22.8563
      vertex -10.3188 -3.50589 25.4
      vertex 5.55625 -3.50589 25.4
    endloop
  endfacet
  facet normal 0 0.913545 0.406737
    outer loop
      vertex -10.3188 -3.50589 25.4
      vertex 5.55625 -2.37334 22.8563
      vertex -10.3188 -2.37334 22.8563
    endloop
  endfacet
  facet normal 1 0 0
    outer loop
      vertex -10.3188 23.5059 25.4
      vertex -10.3188 20.6177 20.4398
      vertex -10.3188 22.3733 22.8563
    endloop
  endfacet
  facet normal 1 0 0
    outer loop
      vertex -10.3188 23.5059 25.4
      vertex -10.3188 18.398 18.4412
      vertex -10.3188 20.6177 20.4398
    endloop
  endfacet
  facet normal 1 0 0
    outer loop
      vertex -10.3188 23.5059 25.4
      vertex -10.3188 15.8112 16.9477
      vertex -10.3188 18.398 18.4412
    endloop
  endfacet
  facet normal 1 0 0
    outer loop
      vertex -10.3188 23.5059 25.4
      vertex -10.3188 12.9705 16.0247
      vertex -10.3188 15.8112 16.9477
    endloop
  endfacet
  facet normal 1 0 0
    outer loop
      vertex -10.3188 23.5059 25.4
      vertex -10.3188 10 15.7125
      vertex -10.3188 12.9705 16.0247
    endloop
  endfacet
  facet normal 1 0 0
    outer loop
      vertex -10.3188 23.5059 25.4
      vertex -10.3188 7.02946 16.0247
      vertex -10.3188 10 15.7125
    endloop
  endfacet
  facet normal 1 0 0
    outer loop
      vertex -10.3188 23.5059 25.4
      vertex -10.3188 4.18875 16.9477
      vertex -10.3188 7.02946 16.0247
    endloop
  endfacet
  facet normal 1 0 0
    outer loop
      vertex -10.3188 23.5059 25.4
      vertex -10.3188 1.60202 18.4412
      vertex -10.3188 4.18875 16.9477
    endloop
  endfacet
  facet normal 1 0 0
    outer loop
      vertex -10.3188 23.5059 25.4
      vertex -10.3188 -0.617682 20.4398
      vertex -10.3188 1.60202 18.4412
    endloop
  endfacet
  facet normal 1 0 0
    outer loop
      vertex -10.3188 23.5059 25.4
      vertex -10.3188 -2.37334 22.8563
      vertex -10.3188 -0.617682 20.4398
    endloop
  endfacet
  facet normal 1 0 -0
    outer loop
      vertex -10.3188 -2.37334 22.8563
      vertex -10.3188 23.5059 25.4
      vertex -10.3188 -3.50589 25.4
    endloop
  endfacet
  facet normal -0 0.669131 0.743145
    outer loop
      vertex -10.3188 1.60202 18.4412
      vertex 5.55625 -0.617682 20.4398
      vertex 5.55625 1.60202 18.4412
    endloop
  endfacet
  facet normal 0 0.669131 0.743145
    outer loop
      vertex 5.55625 -0.617682 20.4398
      vertex -10.3188 1.60202 18.4412
      vertex -10.3188 -0.617682 20.4398
    endloop
  endfacet
  facet normal 0 -0.104528 0.994522
    outer loop
      vertex 11.9062 13.6307 12.9191
      vertex 32.5438 10 12.5375
      vertex 32.5438 13.6307 12.9191
    endloop
  endfacet
  facet normal 0 -0.104528 0.994522
    outer loop
      vertex 32.5438 10 12.5375
      vertex 11.9062 13.6307 12.9191
      vertex 11.9062 10 12.5375
    endloop
  endfacet
  facet normal 0 -0.669131 0.743145
    outer loop
      vertex 11.9062 22.9772 18.3153
      vertex 32.5438 20.2642 15.8725
      vertex 32.5438 22.9772 18.3153
    endloop
  endfacet
  facet normal 0 -0.669131 0.743145
    outer loop
      vertex 32.5438 20.2642 15.8725
      vertex 11.9062 22.9772 18.3153
      vertex 11.9062 20.2642 15.8725
    endloop
  endfacet
  facet normal 0 -0.309017 0.951057
    outer loop
      vertex 11.9062 17.1026 14.0472
      vertex 32.5438 13.6307 12.9191
      vertex 32.5438 17.1026 14.0472
    endloop
  endfacet
  facet normal 0 -0.309017 0.951057
    outer loop
      vertex 32.5438 13.6307 12.9191
      vertex 11.9062 17.1026 14.0472
      vertex 11.9062 13.6307 12.9191
    endloop
  endfacet
  facet normal -0 0.5 0.866025
    outer loop
      vertex 11.9062 2.89736 14.0472
      vertex 32.5438 -0.264199 15.8725
      vertex 32.5438 2.89736 14.0472
    endloop
  endfacet
  facet normal 0 0.5 0.866025
    outer loop
      vertex 32.5438 -0.264199 15.8725
      vertex 11.9062 2.89736 14.0472
      vertex 11.9062 -0.264199 15.8725
    endloop
  endfacet
  facet normal 0 -0.5 0.866025
    outer loop
      vertex 11.9062 20.2642 15.8725
      vertex 32.5438 17.1026 14.0472
      vertex 32.5438 20.2642 15.8725
    endloop
  endfacet
  facet normal 0 -0.5 0.866025
    outer loop
      vertex 32.5438 17.1026 14.0472
      vertex 11.9062 20.2642 15.8725
      vertex 11.9062 17.1026 14.0472
    endloop
  endfacet
  facet normal 0 -0.913545 0.406737
    outer loop
      vertex 11.9062 25.123 21.2688
      vertex 32.5438 26.6078 24.6038
      vertex 11.9062 26.6078 24.6038
    endloop
  endfacet
  facet normal 0 -0.913545 0.406737
    outer loop
      vertex 32.5438 26.6078 24.6038
      vertex 11.9062 25.123 21.2688
      vertex 32.5438 25.123 21.2688
    endloop
  endfacet
  facet normal 0 -0.978148 0.207912
    outer loop
      vertex 11.9062 26.6078 24.6038
      vertex 32.5438 26.7771 25.4
      vertex 11.9062 26.7771 25.4
    endloop
  endfacet
  facet normal 0 -0.978148 0.207912
    outer loop
      vertex 32.5438 26.7771 25.4
      vertex 11.9062 26.6078 24.6038
      vertex 32.5438 26.6078 24.6038
    endloop
  endfacet
  facet normal 0 -0.809017 0.587785
    outer loop
      vertex 11.9062 22.9772 18.3153
      vertex 32.5438 25.123 21.2688
      vertex 11.9062 25.123 21.2688
    endloop
  endfacet
  facet normal 0 -0.809017 0.587785
    outer loop
      vertex 32.5438 25.123 21.2688
      vertex 11.9062 22.9772 18.3153
      vertex 32.5438 22.9772 18.3153
    endloop
  endfacet
  facet normal -1 0 0
    outer loop
      vertex 32.5438 25.123 21.2688
      vertex 32.5438 26.7771 25.4
      vertex 32.5438 26.6078 24.6038
    endloop
  endfacet
  facet normal -1 0 0
    outer loop
      vertex 32.5438 22.9772 18.3153
      vertex 32.5438 26.7771 25.4
      vertex 32.5438 25.123 21.2688
    endloop
  endfacet
  facet normal -1 0 0
    outer loop
      vertex 32.5438 20.2642 15.8725
      vertex 32.5438 26.7771 25.4
      vertex 32.5438 22.9772 18.3153
    endloop
  endfacet
  facet normal -1 0 0
    outer loop
      vertex 32.5438 17.1026 14.0472
      vertex 32.5438 26.7771 25.4
      vertex 32.5438 20.2642 15.8725
    endloop
  endfacet
  facet normal -1 0 0
    outer loop
      vertex 32.5438 13.6307 12.9191
      vertex 32.5438 26.7771 25.4
      vertex 32.5438 17.1026 14.0472
    endloop
  endfacet
  facet normal -1 0 0
    outer loop
      vertex 32.5438 10 12.5375
      vertex 32.5438 26.7771 25.4
      vertex 32.5438 13.6307 12.9191
    endloop
  endfacet
  facet normal -1 0 0
    outer loop
      vertex 32.5438 6.36934 12.9191
      vertex 32.5438 26.7771 25.4
      vertex 32.5438 10 12.5375
    endloop
  endfacet
  facet normal -1 0 0
    outer loop
      vertex 32.5438 2.89736 14.0472
      vertex 32.5438 26.7771 25.4
      vertex 32.5438 6.36934 12.9191
    endloop
  endfacet
  facet normal -1 0 0
    outer loop
      vertex 32.5438 -0.264199 15.8725
      vertex 32.5438 26.7771 25.4
      vertex 32.5438 2.89736 14.0472
    endloop
  endfacet
  facet normal -1 0 0
    outer loop
      vertex 32.5438 -2.97717 18.3153
      vertex 32.5438 26.7771 25.4
      vertex 32.5438 -0.264199 15.8725
    endloop
  endfacet
  facet normal -1 0 0
    outer loop
      vertex 32.5438 -6.77706 25.4
      vertex 32.5438 -2.97717 18.3153
      vertex 32.5438 -5.12297 21.2688
    endloop
  endfacet
  facet normal -1 0 0
    outer loop
      vertex 32.5438 -6.77706 25.4
      vertex 32.5438 -5.12297 21.2688
      vertex 32.5438 -6.60782 24.6038
    endloop
  endfacet
  facet normal -1 0 0
    outer loop
      vertex 32.5438 -2.97717 18.3153
      vertex 32.5438 -6.77706 25.4
      vertex 32.5438 26.7771 25.4
    endloop
  endfacet
  facet normal -0 0.104528 0.994522
    outer loop
      vertex 11.9062 10 12.5375
      vertex 32.5438 6.36934 12.9191
      vertex 32.5438 10 12.5375
    endloop
  endfacet
  facet normal 0 0.104528 0.994522
    outer loop
      vertex 32.5438 6.36934 12.9191
      vertex 11.9062 10 12.5375
      vertex 11.9062 6.36934 12.9191
    endloop
  endfacet
  facet normal 1 0 0
    outer loop
      vertex 11.9062 26.7771 25.4
      vertex 11.9062 25.123 21.2688
      vertex 11.9062 26.6078 24.6038
    endloop
  endfacet
  facet normal 1 0 0
    outer loop
      vertex 11.9062 26.7771 25.4
      vertex 11.9062 22.9772 18.3153
      vertex 11.9062 25.123 21.2688
    endloop
  endfacet
  facet normal 1 0 0
    outer loop
      vertex 11.9062 26.7771 25.4
      vertex 11.9062 20.2642 15.8725
      vertex 11.9062 22.9772 18.3153
    endloop
  endfacet
  facet normal 1 0 0
    outer loop
      vertex 11.9062 26.7771 25.4
      vertex 11.9062 17.1026 14.0472
      vertex 11.9062 20.2642 15.8725
    endloop
  endfacet
  facet normal 1 0 0
    outer loop
      vertex 11.9062 26.7771 25.4
      vertex 11.9062 13.6307 12.9191
      vertex 11.9062 17.1026 14.0472
    endloop
  endfacet
  facet normal 1 0 0
    outer loop
      vertex 11.9062 26.7771 25.4
      vertex 11.9062 10 12.5375
      vertex 11.9062 13.6307 12.9191
    endloop
  endfacet
  facet normal 1 0 0
    outer loop
      vertex 11.9062 26.7771 25.4
      vertex 11.9062 6.36934 12.9191
      vertex 11.9062 10 12.5375
    endloop
  endfacet
  facet normal 1 0 0
    outer loop
      vertex 11.9062 26.7771 25.4
      vertex 11.9062 2.89736 14.0472
      vertex 11.9062 6.36934 12.9191
    endloop
  endfacet
  facet normal 1 0 0
    outer loop
      vertex 11.9062 26.7771 25.4
      vertex 11.9062 -0.264199 15.8725
      vertex 11.9062 2.89736 14.0472
    endloop
  endfacet
  facet normal 1 0 0
    outer loop
      vertex 11.9062 26.7771 25.4
      vertex 11.9062 -2.97717 18.3153
      vertex 11.9062 -0.264199 15.8725
    endloop
  endfacet
  facet normal 1 -0 0
    outer loop
      vertex 11.9062 -6.77706 25.4
      vertex 11.9062 -2.97717 18.3153
      vertex 11.9062 26.7771 25.4
    endloop
  endfacet
  facet normal 1 0 0
    outer loop
      vertex 11.9062 -2.97717 18.3153
      vertex 11.9062 -6.77706 25.4
      vertex 11.9062 -5.12297 21.2688
    endloop
  endfacet
  facet normal 1 0 0
    outer loop
      vertex 11.9062 -5.12297 21.2688
      vertex 11.9062 -6.77706 25.4
      vertex 11.9062 -6.60782 24.6038
    endloop
  endfacet
  facet normal 0 0.978147 0.207912
    outer loop
      vertex 32.5438 -6.60782 24.6038
      vertex 11.9062 -6.77706 25.4
      vertex 32.5438 -6.77706 25.4
    endloop
  endfacet
  facet normal 0 0.978147 0.207912
    outer loop
      vertex 11.9062 -6.77706 25.4
      vertex 32.5438 -6.60782 24.6038
      vertex 11.9062 -6.60782 24.6038
    endloop
  endfacet
  facet normal 0 0.809017 0.587785
    outer loop
      vertex 32.5438 -2.97717 18.3153
      vertex 11.9062 -5.12297 21.2688
      vertex 32.5438 -5.12297 21.2688
    endloop
  endfacet
  facet normal 0 0.809017 0.587785
    outer loop
      vertex 11.9062 -5.12297 21.2688
      vertex 32.5438 -2.97717 18.3153
      vertex 11.9062 -2.97717 18.3153
    endloop
  endfacet
  facet normal -0 0.669131 0.743145
    outer loop
      vertex 11.9062 -0.264199 15.8725
      vertex 32.5438 -2.97717 18.3153
      vertex 32.5438 -0.264199 15.8725
    endloop
  endfacet
  facet normal 0 0.669131 0.743145
    outer loop
      vertex 32.5438 -2.97717 18.3153
      vertex 11.9062 -0.264199 15.8725
      vertex 11.9062 -2.97717 18.3153
    endloop
  endfacet
  facet normal -0 0.309017 0.951057
    outer loop
      vertex 11.9062 6.36934 12.9191
      vertex 32.5438 2.89736 14.0472
      vertex 32.5438 6.36934 12.9191
    endloop
  endfacet
  facet normal 0 0.309017 0.951057
    outer loop
      vertex 32.5438 2.89736 14.0472
      vertex 11.9062 6.36934 12.9191
      vertex 11.9062 2.89736 14.0472
    endloop
  endfacet
  facet normal 0 0.913545 0.406737
    outer loop
      vertex 32.5438 -5.12297 21.2688
      vertex 11.9062 -6.60782 24.6038
      vertex 32.5438 -6.60782 24.6038
    endloop
  endfacet
  facet normal 0 0.913545 0.406737
    outer loop
      vertex 11.9062 -6.60782 24.6038
      vertex 32.5438 -5.12297 21.2688
      vertex 11.9062 -5.12297 21.2688
    endloop
  endfacet
  facet normal 0.754916 0.504419 0.419121
    outer loop
      vertex 44.8105 38.4605 0
      vertex 35.8484 30.7684 25.4
      vertex 36.7155 29.4707 25.4
    endloop
  endfacet
  facet normal 0.907147 0.18045 0.380161
    outer loop
      vertex 46.275 34.925 0
      vertex 36.7155 29.4707 25.4
      vertex 37.02 27.94 25.4
    endloop
  endfacet
  facet normal 0.907147 0.18045 0.380161
    outer loop
      vertex 45.8944 36.8384 0
      vertex 36.7155 29.4707 25.4
      vertex 46.275 34.925 0
    endloop
  endfacet
  facet normal 0.754917 0.504419 0.419121
    outer loop
      vertex 44.8105 38.4605 0
      vertex 36.7155 29.4707 25.4
      vertex 45.8944 36.8384 0
    endloop
  endfacet
  facet normal -0.507048 -0.75885 0.408715
    outer loop
      vertex -35.8484 -30.7684 25.4
      vertex -44.8105 -38.4605 0
      vertex -34.5507 -31.6355 25.4
    endloop
  endfacet
  facet normal 0.507047 0.758851 0.408715
    outer loop
      vertex 43.1884 39.5444 0
      vertex 34.5507 31.6355 25.4
      vertex 44.8105 38.4605 0
    endloop
  endfacet
  facet normal -0.939572 0 0.342352
    outer loop
      vertex -46.275 34.925 0
      vertex -37.02 -27.94 25.4
      vertex -37.02 27.94 25.4
    endloop
  endfacet
  facet normal -0.939572 0 0.342352
    outer loop
      vertex -37.02 -27.94 25.4
      vertex -46.275 34.925 0
      vertex -46.275 -34.925 0
    endloop
  endfacet
  facet normal 0.754917 -0.504419 0.419121
    outer loop
      vertex 45.8944 -36.8384 0
      vertex 36.7155 -29.4707 25.4
      vertex 44.8105 -38.4605 0
    endloop
  endfacet
  facet normal 0.907147 -0.18045 0.380161
    outer loop
      vertex 37.02 -27.94 25.4
      vertex 36.7155 -29.4707 25.4
      vertex 46.275 -34.925 0
    endloop
  endfacet
  facet normal -0.907147 -0.18045 0.380161
    outer loop
      vertex -37.02 -27.94 25.4
      vertex -46.275 -34.925 0
      vertex -36.7155 -29.4707 25.4
    endloop
  endfacet
  facet normal -0.754916 -0.504419 0.419121
    outer loop
      vertex -36.7155 -29.4707 25.4
      vertex -44.8105 -38.4605 0
      vertex -35.8484 -30.7684 25.4
    endloop
  endfacet
  facet normal 0 -0.953971 0.2999
    outer loop
      vertex -41.275 -39.925 0
      vertex 33.02 -31.94 25.4
      vertex -33.02 -31.94 25.4
    endloop
  endfacet
  facet normal 0 -0.953971 0.2999
    outer loop
      vertex 33.02 -31.94 25.4
      vertex -41.275 -39.925 0
      vertex 41.275 -39.925 0
    endloop
  endfacet
  facet normal -0.182871 -0.919319 0.34844
    outer loop
      vertex -34.5507 -31.6355 25.4
      vertex -43.1884 -39.5444 0
      vertex -41.275 -39.925 0
    endloop
  endfacet
  facet normal 0.907147 -0.18045 0.380161
    outer loop
      vertex 46.275 -34.925 0
      vertex 36.7155 -29.4707 25.4
      vertex 45.8944 -36.8384 0
    endloop
  endfacet
  facet normal 0.939572 -0 0.342352
    outer loop
      vertex 37.02 -27.94 25.4
      vertex 46.275 34.925 0
      vertex 37.02 27.94 25.4
    endloop
  endfacet
  facet normal 0.939572 0 0.342352
    outer loop
      vertex 46.275 34.925 0
      vertex 37.02 -27.94 25.4
      vertex 46.275 -34.925 0
    endloop
  endfacet
  facet normal 0 0 -1
    outer loop
      vertex 41.275 -39.925 0
      vertex 46.275 -34.925 0
      vertex 45.8944 -36.8384 0
    endloop
  endfacet
  facet normal -0 0 -1
    outer loop
      vertex 46.275 -34.925 0
      vertex 41.275 -39.925 0
      vertex 46.275 34.925 0
    endloop
  endfacet
  facet normal 0 0 -1
    outer loop
      vertex 41.275 -39.925 0
      vertex 45.8944 -36.8384 0
      vertex 44.8105 -38.4605 0
    endloop
  endfacet
  facet normal 0 0 -1
    outer loop
      vertex 41.275 39.925 0
      vertex 46.275 34.925 0
      vertex 41.275 -39.925 0
    endloop
  endfacet
  facet normal 0 0 -1
    outer loop
      vertex 41.275 -39.925 0
      vertex 44.8105 -38.4605 0
      vertex 43.1884 -39.5444 0
    endloop
  endfacet
  facet normal 0 0 -1
    outer loop
      vertex 46.275 34.925 0
      vertex 41.275 39.925 0
      vertex 45.8944 36.8384 0
    endloop
  endfacet
  facet normal 0 0 -1
    outer loop
      vertex 45.8944 36.8384 0
      vertex 41.275 39.925 0
      vertex 44.8105 38.4605 0
    endloop
  endfacet
  facet normal 0 0 -1
    outer loop
      vertex 44.8105 38.4605 0
      vertex 41.275 39.925 0
      vertex 43.1884 39.5444 0
    endloop
  endfacet
  facet normal 0 0 -1
    outer loop
      vertex -41.275 -39.925 0
      vertex 41.275 39.925 0
      vertex 41.275 -39.925 0
    endloop
  endfacet
  facet normal 0 0 -1
    outer loop
      vertex -41.275 -39.925 0
      vertex -41.275 39.925 0
      vertex 41.275 39.925 0
    endloop
  endfacet
  facet normal 0 0 -1
    outer loop
      vertex -46.275 -34.925 0
      vertex -41.275 -39.925 0
      vertex -43.1884 -39.5444 0
    endloop
  endfacet
  facet normal 0 0 -1
    outer loop
      vertex -41.275 -39.925 0
      vertex -46.275 -34.925 0
      vertex -41.275 39.925 0
    endloop
  endfacet
  facet normal 0 0 -1
    outer loop
      vertex -46.275 -34.925 0
      vertex -43.1884 -39.5444 0
      vertex -44.8105 -38.4605 0
    endloop
  endfacet
  facet normal 0 0 -1
    outer loop
      vertex -46.275 34.925 0
      vertex -41.275 39.925 0
      vertex -46.275 -34.925 0
    endloop
  endfacet
  facet normal 0 0 -1
    outer loop
      vertex -46.275 -34.925 0
      vertex -44.8105 -38.4605 0
      vertex -45.8944 -36.8384 0
    endloop
  endfacet
  facet normal 0 0 -1
    outer loop
      vertex -41.275 39.925 0
      vertex -46.275 34.925 0
      vertex -43.1884 39.5444 0
    endloop
  endfacet
  facet normal 0 0 -1
    outer loop
      vertex -43.1884 39.5444 0
      vertex -46.275 34.925 0
      vertex -44.8105 38.4605 0
    endloop
  endfacet
  facet normal 0 0 -1
    outer loop
      vertex -44.8105 38.4605 0
      vertex -46.275 34.925 0
      vertex -45.8944 36.8384 0
    endloop
  endfacet
  facet normal -0.907147 0.18045 0.380161
    outer loop
      vertex -36.7155 29.4707 25.4
      vertex -46.275 34.925 0
      vertex -37.02 27.94 25.4
    endloop
  endfacet
  facet normal 0 0.953971 0.2999
    outer loop
      vertex 41.275 39.925 0
      vertex -33.02 31.94 25.4
      vertex 33.02 31.94 25.4
    endloop
  endfacet
  facet normal 0 0.953971 0.2999
    outer loop
      vertex -33.02 31.94 25.4
      vertex 41.275 39.925 0
      vertex -41.275 39.925 0
    endloop
  endfacet
  facet normal -0.182872 -0.919319 0.34844
    outer loop
      vertex -34.5507 -31.6355 25.4
      vertex -41.275 -39.925 0
      vertex -33.02 -31.94 25.4
    endloop
  endfacet
  facet normal 0.182872 -0.919319 0.34844
    outer loop
      vertex 34.5507 -31.6355 25.4
      vertex 33.02 -31.94 25.4
      vertex 41.275 -39.925 0
    endloop
  endfacet
  facet normal 0.754916 -0.504419 0.419121
    outer loop
      vertex 36.7155 -29.4707 25.4
      vertex 35.8484 -30.7684 25.4
      vertex 44.8105 -38.4605 0
    endloop
  endfacet
  facet normal -0.754917 -0.504419 0.419121
    outer loop
      vertex -36.7155 -29.4707 25.4
      vertex -45.8944 -36.8384 0
      vertex -44.8105 -38.4605 0
    endloop
  endfacet
  facet normal -0.907147 -0.18045 0.380161
    outer loop
      vertex -36.7155 -29.4707 25.4
      vertex -46.275 -34.925 0
      vertex -45.8944 -36.8384 0
    endloop
  endfacet
  facet normal 0 0 1
    outer loop
      vertex 10.8562 -18 25.4
      vertex -5.57753 -15.3595 25.4
      vertex -5.3 -18 25.4
    endloop
  endfacet
  facet normal 0 0 1
    outer loop
      vertex 5.55625 -3.50589 25.4
      vertex -6.39797 -12.8344 25.4
      vertex -5.57753 -15.3595 25.4
    endloop
  endfacet
  facet normal 0 0 1
    outer loop
      vertex 5.55625 -3.50589 25.4
      vertex -7.72548 -10.5351 25.4
      vertex -6.39797 -12.8344 25.4
    endloop
  endfacet
  facet normal -0 0 1
    outer loop
      vertex -10.3188 -3.50589 25.4
      vertex -7.72548 -10.5351 25.4
      vertex 5.55625 -3.50589 25.4
    endloop
  endfacet
  facet normal 0 0 1
    outer loop
      vertex -7.72548 -10.5351 25.4
      vertex -10.3188 -3.50589 25.4
      vertex -9.50204 -8.56206 25.4
    endloop
  endfacet
  facet normal 0 0 1
    outer loop
      vertex -9.50204 -8.56206 25.4
      vertex -10.3188 -3.50589 25.4
      vertex -11.65 -7.00148 25.4
    endloop
  endfacet
  facet normal 0 0 1
    outer loop
      vertex 32.5438 -6.77706 25.4
      vertex 21.5719 -11.8133 25.4
      vertex 25.1437 -18 25.4
    endloop
  endfacet
  facet normal -0 0 1
    outer loop
      vertex 11.9062 -6.77706 25.4
      vertex 21.5719 -11.8133 25.4
      vertex 32.5438 -6.77706 25.4
    endloop
  endfacet
  facet normal 0 0 1
    outer loop
      vertex 21.5719 -11.8133 25.4
      vertex 11.9062 -6.77706 25.4
      vertex 14.4281 -11.8133 25.4
    endloop
  endfacet
  facet normal 0 0 1
    outer loop
      vertex 14.4281 -11.8133 25.4
      vertex 11.9062 -6.77706 25.4
      vertex 10.8562 -18 25.4
    endloop
  endfacet
  facet normal 0 0 1
    outer loop
      vertex 32.5438 26.7771 25.4
      vertex 37.02 27.94 25.4
      vertex 36.7155 29.4707 25.4
    endloop
  endfacet
  facet normal 0 0 1
    outer loop
      vertex 37.02 27.94 25.4
      vertex 32.5438 -6.77706 25.4
      vertex 37.02 -27.94 25.4
    endloop
  endfacet
  facet normal 0 0 1
    outer loop
      vertex 32.5438 26.7771 25.4
      vertex 36.7155 29.4707 25.4
      vertex 35.8484 30.7684 25.4
    endloop
  endfacet
  facet normal -0 0 1
    outer loop
      vertex 25.1437 -18 25.4
      vertex 37.02 -27.94 25.4
      vertex 32.5438 -6.77706 25.4
    endloop
  endfacet
  facet normal 0 0 1
    outer loop
      vertex 32.5438 26.7771 25.4
      vertex 35.8484 30.7684 25.4
      vertex 34.5507 31.6355 25.4
    endloop
  endfacet
  facet normal 0 -0 1
    outer loop
      vertex 33.02 -31.94 25.4
      vertex 37.02 -27.94 25.4
      vertex 25.1437 -18 25.4
    endloop
  endfacet
  facet normal 0 0 1
    outer loop
      vertex 32.5438 26.7771 25.4
      vertex 34.5507 31.6355 25.4
      vertex 33.02 31.94 25.4
    endloop
  endfacet
  facet normal 0 0 1
    outer loop
      vertex 37.02 -27.94 25.4
      vertex 33.02 -31.94 25.4
      vertex 36.7155 -29.4707 25.4
    endloop
  endfacet
  facet normal 0 0 1
    outer loop
      vertex 37.02 27.94 25.4
      vertex 32.5438 26.7771 25.4
      vertex 32.5438 -6.77706 25.4
    endloop
  endfacet
  facet normal 0 0 1
    outer loop
      vertex 33.02 31.94 25.4
      vertex 11.9062 26.7771 25.4
      vertex 32.5438 26.7771 25.4
    endloop
  endfacet
  facet normal -0 0 1
    outer loop
      vertex 5.55625 -3.50589 25.4
      vertex 11.9062 -6.77706 25.4
      vertex 11.9062 26.7771 25.4
    endloop
  endfacet
  facet normal 0 0 1
    outer loop
      vertex 5.55625 -3.50589 25.4
      vertex 11.9062 26.7771 25.4
      vertex 5.55625 23.5059 25.4
    endloop
  endfacet
  facet normal 0 0 1
    outer loop
      vertex 11.9062 26.7771 25.4
      vertex -10.3188 23.5059 25.4
      vertex 5.55625 23.5059 25.4
    endloop
  endfacet
  facet normal -0 0 1
    outer loop
      vertex -33.02 31.94 25.4
      vertex 11.9062 26.7771 25.4
      vertex 33.02 31.94 25.4
    endloop
  endfacet
  facet normal -0 0 1
    outer loop
      vertex -16.6688 -1.77767 25.4
      vertex -10.3188 -3.50589 25.4
      vertex -10.3188 23.5059 25.4
    endloop
  endfacet
  facet normal 0 -0 1
    outer loop
      vertex -14.0755 -5.92158 25.4
      vertex -10.3188 -3.50589 25.4
      vertex -16.6688 -1.77767 25.4
    endloop
  endfacet
  facet normal 0 0 1
    outer loop
      vertex -16.6688 -1.77767 25.4
      vertex -10.3188 23.5059 25.4
      vertex -16.6688 21.7777 25.4
    endloop
  endfacet
  facet normal 0 0 1
    outer loop
      vertex -33.02 31.94 25.4
      vertex -16.6688 21.7777 25.4
      vertex -10.3188 23.5059 25.4
    endloop
  endfacet
  facet normal 0 0 1
    outer loop
      vertex 11.9062 26.7771 25.4
      vertex -33.02 31.94 25.4
      vertex -10.3188 23.5059 25.4
    endloop
  endfacet
  facet normal -0 0 1
    outer loop
      vertex -37.02 27.94 25.4
      vertex -32.5438 21.7777 25.4
      vertex -33.02 31.94 25.4
    endloop
  endfacet
  facet normal 0 0 1
    outer loop
      vertex -16.6688 21.7777 25.4
      vertex -33.02 31.94 25.4
      vertex -32.5438 21.7777 25.4
    endloop
  endfacet
  facet normal 0 0 1
    outer loop
      vertex 36.7155 -29.4707 25.4
      vertex 33.02 -31.94 25.4
      vertex 35.8484 -30.7684 25.4
    endloop
  endfacet
  facet normal 0 0 1
    outer loop
      vertex 35.8484 -30.7684 25.4
      vertex 33.02 -31.94 25.4
      vertex 34.5507 -31.6355 25.4
    endloop
  endfacet
  facet normal -0 0 1
    outer loop
      vertex 21.5719 -24.1867 25.4
      vertex 33.02 -31.94 25.4
      vertex 25.1437 -18 25.4
    endloop
  endfacet
  facet normal -0 0 1
    outer loop
      vertex 14.4281 -24.1867 25.4
      vertex 33.02 -31.94 25.4
      vertex 21.5719 -24.1867 25.4
    endloop
  endfacet
  facet normal 0 0 1
    outer loop
      vertex 11.9062 -6.77706 25.4
      vertex 5.55625 -3.50589 25.4
      vertex 10.8562 -18 25.4
    endloop
  endfacet
  facet normal -0 0 1
    outer loop
      vertex -5.57753 -15.3595 25.4
      vertex 10.8562 -18 25.4
      vertex 5.55625 -3.50589 25.4
    endloop
  endfacet
  facet normal 0 0 1
    outer loop
      vertex -5.57753 -20.6405 25.4
      vertex 10.8562 -18 25.4
      vertex -5.3 -18 25.4
    endloop
  endfacet
  facet normal 0 0 1
    outer loop
      vertex -6.39797 -23.1656 25.4
      vertex 10.8562 -18 25.4
      vertex -5.57753 -20.6405 25.4
    endloop
  endfacet
  facet normal 0 0 1
    outer loop
      vertex 10.8562 -18 25.4
      vertex -6.39797 -23.1656 25.4
      vertex 14.4281 -24.1867 25.4
    endloop
  endfacet
  facet normal 0 0 1
    outer loop
      vertex -7.72548 -25.4649 25.4
      vertex 14.4281 -24.1867 25.4
      vertex -6.39797 -23.1656 25.4
    endloop
  endfacet
  facet normal 0 0 1
    outer loop
      vertex -9.50204 -27.4379 25.4
      vertex 14.4281 -24.1867 25.4
      vertex -7.72548 -25.4649 25.4
    endloop
  endfacet
  facet normal 0 0 1
    outer loop
      vertex -11.65 -28.9985 25.4
      vertex 14.4281 -24.1867 25.4
      vertex -9.50204 -27.4379 25.4
    endloop
  endfacet
  facet normal 0 0 1
    outer loop
      vertex 14.4281 -24.1867 25.4
      vertex -11.65 -28.9985 25.4
      vertex 33.02 -31.94 25.4
    endloop
  endfacet
  facet normal -0 0 1
    outer loop
      vertex -14.0755 -30.0784 25.4
      vertex 33.02 -31.94 25.4
      vertex -11.65 -28.9985 25.4
    endloop
  endfacet
  facet normal -0 0 1
    outer loop
      vertex -16.6725 -30.6304 25.4
      vertex 33.02 -31.94 25.4
      vertex -14.0755 -30.0784 25.4
    endloop
  endfacet
  facet normal 0 0 1
    outer loop
      vertex -33.02 -31.94 25.4
      vertex -16.6725 -30.6304 25.4
      vertex -19.3275 -30.6304 25.4
    endloop
  endfacet
  facet normal 0 0 1
    outer loop
      vertex -30.4225 -15.3595 25.4
      vertex -37.02 -27.94 25.4
      vertex -30.7 -18 25.4
    endloop
  endfacet
  facet normal 0 0 1
    outer loop
      vertex -16.6725 -30.6304 25.4
      vertex -33.02 -31.94 25.4
      vertex 33.02 -31.94 25.4
    endloop
  endfacet
  facet normal 0 0 1
    outer loop
      vertex -21.9245 -30.0784 25.4
      vertex -33.02 -31.94 25.4
      vertex -19.3275 -30.6304 25.4
    endloop
  endfacet
  facet normal 0 0 1
    outer loop
      vertex -24.35 -28.9985 25.4
      vertex -33.02 -31.94 25.4
      vertex -21.9245 -30.0784 25.4
    endloop
  endfacet
  facet normal 0 0 1
    outer loop
      vertex -26.498 -27.4379 25.4
      vertex -33.02 -31.94 25.4
      vertex -24.35 -28.9985 25.4
    endloop
  endfacet
  facet normal 0 0 1
    outer loop
      vertex -28.2745 -25.4649 25.4
      vertex -33.02 -31.94 25.4
      vertex -26.498 -27.4379 25.4
    endloop
  endfacet
  facet normal 0 0 1
    outer loop
      vertex -37.02 -27.94 25.4
      vertex -28.2745 -25.4649 25.4
      vertex -29.602 -23.1656 25.4
    endloop
  endfacet
  facet normal 0 0 1
    outer loop
      vertex -37.02 -27.94 25.4
      vertex -29.602 -23.1656 25.4
      vertex -30.4225 -20.6405 25.4
    endloop
  endfacet
  facet normal 0 0 1
    outer loop
      vertex -30.7 -18 25.4
      vertex -37.02 -27.94 25.4
      vertex -30.4225 -20.6405 25.4
    endloop
  endfacet
  facet normal 0 0 1
    outer loop
      vertex -32.5438 21.7777 25.4
      vertex -37.02 27.94 25.4
      vertex -32.5438 -1.77767 25.4
    endloop
  endfacet
  facet normal 0 0 1
    outer loop
      vertex -37.02 27.94 25.4
      vertex -33.02 31.94 25.4
      vertex -34.5507 31.6355 25.4
    endloop
  endfacet
  facet normal 0 0 1
    outer loop
      vertex -37.02 -27.94 25.4
      vertex -32.5438 -1.77767 25.4
      vertex -37.02 27.94 25.4
    endloop
  endfacet
  facet normal 0 0 1
    outer loop
      vertex -37.02 27.94 25.4
      vertex -34.5507 31.6355 25.4
      vertex -35.8484 30.7684 25.4
    endloop
  endfacet
  facet normal 0 0 1
    outer loop
      vertex -28.2745 -25.4649 25.4
      vertex -37.02 -27.94 25.4
      vertex -33.02 -31.94 25.4
    endloop
  endfacet
  facet normal 0 0 1
    outer loop
      vertex -37.02 27.94 25.4
      vertex -35.8484 30.7684 25.4
      vertex -36.7155 29.4707 25.4
    endloop
  endfacet
  facet normal 0 0 1
    outer loop
      vertex -33.02 -31.94 25.4
      vertex -37.02 -27.94 25.4
      vertex -34.5507 -31.6355 25.4
    endloop
  endfacet
  facet normal 0 0 1
    outer loop
      vertex -34.5507 -31.6355 25.4
      vertex -37.02 -27.94 25.4
      vertex -35.8484 -30.7684 25.4
    endloop
  endfacet
  facet normal 0 0 1
    outer loop
      vertex -35.8484 -30.7684 25.4
      vertex -37.02 -27.94 25.4
      vertex -36.7155 -29.4707 25.4
    endloop
  endfacet
  facet normal 0 0 1
    outer loop
      vertex -10.3188 -3.50589 25.4
      vertex -14.0755 -5.92158 25.4
      vertex -11.65 -7.00148 25.4
    endloop
  endfacet
  facet normal 0 0 1
    outer loop
      vertex -16.6688 -1.77767 25.4
      vertex -16.6725 -5.36957 25.4
      vertex -14.0755 -5.92158 25.4
    endloop
  endfacet
  facet normal 0 0 1
    outer loop
      vertex -16.6688 -1.77767 25.4
      vertex -19.3275 -5.36957 25.4
      vertex -16.6725 -5.36957 25.4
    endloop
  endfacet
  facet normal 0 0 1
    outer loop
      vertex -16.6688 -1.77767 25.4
      vertex -21.9245 -5.92158 25.4
      vertex -19.3275 -5.36957 25.4
    endloop
  endfacet
  facet normal -0 0 1
    outer loop
      vertex -32.5438 -1.77767 25.4
      vertex -21.9245 -5.92158 25.4
      vertex -16.6688 -1.77767 25.4
    endloop
  endfacet
  facet normal 0 0 1
    outer loop
      vertex -37.02 -27.94 25.4
      vertex -30.4225 -15.3595 25.4
      vertex -32.5438 -1.77767 25.4
    endloop
  endfacet
  facet normal 0 0 1
    outer loop
      vertex -29.602 -12.8344 25.4
      vertex -32.5438 -1.77767 25.4
      vertex -30.4225 -15.3595 25.4
    endloop
  endfacet
  facet normal 0 0 1
    outer loop
      vertex -28.2745 -10.5351 25.4
      vertex -32.5438 -1.77767 25.4
      vertex -29.602 -12.8344 25.4
    endloop
  endfacet
  facet normal 0 0 1
    outer loop
      vertex -26.498 -8.56206 25.4
      vertex -32.5438 -1.77767 25.4
      vertex -28.2745 -10.5351 25.4
    endloop
  endfacet
  facet normal 0 0 1
    outer loop
      vertex -24.35 -7.00148 25.4
      vertex -32.5438 -1.77767 25.4
      vertex -26.498 -8.56206 25.4
    endloop
  endfacet
  facet normal 0 0 1
    outer loop
      vertex -21.9245 -5.92158 25.4
      vertex -32.5438 -1.77767 25.4
      vertex -24.35 -7.00148 25.4
    endloop
  endfacet
  facet normal -0.754916 0.504419 0.419121
    outer loop
      vertex -35.8484 30.7684 25.4
      vertex -44.8105 38.4605 0
      vertex -36.7155 29.4707 25.4
    endloop
  endfacet
  facet normal 0.507048 0.75885 0.408715
    outer loop
      vertex 44.8105 38.4605 0
      vertex 34.5507 31.6355 25.4
      vertex 35.8484 30.7684 25.4
    endloop
  endfacet
  facet normal -0.182872 0.919319 0.34844
    outer loop
      vertex -33.02 31.94 25.4
      vertex -41.275 39.925 0
      vertex -34.5507 31.6355 25.4
    endloop
  endfacet
  facet normal -0.507048 0.75885 0.408715
    outer loop
      vertex -34.5507 31.6355 25.4
      vertex -44.8105 38.4605 0
      vertex -35.8484 30.7684 25.4
    endloop
  endfacet
  facet normal -0.507047 -0.758851 0.408715
    outer loop
      vertex -34.5507 -31.6355 25.4
      vertex -44.8105 -38.4605 0
      vertex -43.1884 -39.5444 0
    endloop
  endfacet
  facet normal 0.507047 -0.758851 0.408715
    outer loop
      vertex 44.8105 -38.4605 0
      vertex 34.5507 -31.6355 25.4
      vertex 43.1884 -39.5444 0
    endloop
  endfacet
  facet normal 0.182871 -0.919319 0.34844
    outer loop
      vertex 43.1884 -39.5444 0
      vertex 34.5507 -31.6355 25.4
      vertex 41.275 -39.925 0
    endloop
  endfacet
  facet normal -0.754917 0.504419 0.419121
    outer loop
      vertex -44.8105 38.4605 0
      vertex -45.8944 36.8384 0
      vertex -36.7155 29.4707 25.4
    endloop
  endfacet
  facet normal -0.907147 0.18045 0.380161
    outer loop
      vertex -45.8944 36.8384 0
      vertex -46.275 34.925 0
      vertex -36.7155 29.4707 25.4
    endloop
  endfacet
  facet normal 0.182871 0.919319 0.34844
    outer loop
      vertex 41.275 39.925 0
      vertex 34.5507 31.6355 25.4
      vertex 43.1884 39.5444 0
    endloop
  endfacet
  facet normal 0.182872 0.919319 0.34844
    outer loop
      vertex 41.275 39.925 0
      vertex 33.02 31.94 25.4
      vertex 34.5507 31.6355 25.4
    endloop
  endfacet
  facet normal -0.507047 0.758851 0.408715
    outer loop
      vertex -43.1884 39.5444 0
      vertex -44.8105 38.4605 0
      vertex -34.5507 31.6355 25.4
    endloop
  endfacet
  facet normal -0.182871 0.919319 0.34844
    outer loop
      vertex -41.275 39.925 0
      vertex -43.1884 39.5444 0
      vertex -34.5507 31.6355 25.4
    endloop
  endfacet
  facet normal 0.507048 -0.75885 0.408715
    outer loop
      vertex 35.8484 -30.7684 25.4
      vertex 34.5507 -31.6355 25.4
      vertex 44.8105 -38.4605 0
    endloop
  endfacet
  facet normal -0.994522 -0.104529 0
    outer loop
      vertex -5.3 -18 6.35
      vertex -5.57753 -15.3595 25.4
      vertex -5.57753 -15.3595 6.35
    endloop
  endfacet
  facet normal -0.994522 -0.104529 0
    outer loop
      vertex -5.57753 -15.3595 25.4
      vertex -5.3 -18 6.35
      vertex -5.3 -18 25.4
    endloop
  endfacet
  facet normal 0.994522 -0.104529 0
    outer loop
      vertex -30.7 -18 25.4
      vertex -30.4225 -15.3595 6.35
      vertex -30.4225 -15.3595 25.4
    endloop
  endfacet
  facet normal 0.994522 -0.104529 0
    outer loop
      vertex -30.4225 -15.3595 6.35
      vertex -30.7 -18 25.4
      vertex -30.7 -18 6.35
    endloop
  endfacet
  facet normal 0 -1 0
    outer loop
      vertex -19.3275 -5.36957 6.35
      vertex -16.6725 -5.36957 25.4
      vertex -19.3275 -5.36957 25.4
    endloop
  endfacet
  facet normal 0 -1 -0
    outer loop
      vertex -16.6725 -5.36957 25.4
      vertex -19.3275 -5.36957 6.35
      vertex -16.6725 -5.36957 6.35
    endloop
  endfacet
  facet normal 0 1 -0
    outer loop
      vertex -16.6725 -30.6304 6.35
      vertex -19.3275 -30.6304 25.4
      vertex -16.6725 -30.6304 25.4
    endloop
  endfacet
  facet normal 0 1 0
    outer loop
      vertex -19.3275 -30.6304 25.4
      vertex -16.6725 -30.6304 6.35
      vertex -19.3275 -30.6304 6.35
    endloop
  endfacet
  facet normal -0.743145 -0.669131 0
    outer loop
      vertex -7.72548 -10.5351 6.35
      vertex -9.50204 -8.56206 25.4
      vertex -9.50204 -8.56206 6.35
    endloop
  endfacet
  facet normal -0.743145 -0.669131 0
    outer loop
      vertex -9.50204 -8.56206 25.4
      vertex -7.72548 -10.5351 6.35
      vertex -7.72548 -10.5351 25.4
    endloop
  endfacet
  facet normal -0.951057 -0.309017 0
    outer loop
      vertex -5.57753 -15.3595 6.35
      vertex -6.39797 -12.8344 25.4
      vertex -6.39797 -12.8344 6.35
    endloop
  endfacet
  facet normal -0.951057 -0.309017 0
    outer loop
      vertex -6.39797 -12.8344 25.4
      vertex -5.57753 -15.3595 6.35
      vertex -5.57753 -15.3595 25.4
    endloop
  endfacet
  facet normal 0.587785 -0.809017 0
    outer loop
      vertex -26.498 -8.56206 6.35
      vertex -24.35 -7.00148 25.4
      vertex -26.498 -8.56206 25.4
    endloop
  endfacet
  facet normal 0.587785 -0.809017 0
    outer loop
      vertex -24.35 -7.00148 25.4
      vertex -26.498 -8.56206 6.35
      vertex -24.35 -7.00148 6.35
    endloop
  endfacet
  facet normal 0.207912 -0.978148 0
    outer loop
      vertex -21.9245 -5.92158 6.35
      vertex -19.3275 -5.36957 25.4
      vertex -21.9245 -5.92158 25.4
    endloop
  endfacet
  facet normal 0.207912 -0.978148 0
    outer loop
      vertex -19.3275 -5.36957 25.4
      vertex -21.9245 -5.92158 6.35
      vertex -19.3275 -5.36957 6.35
    endloop
  endfacet
  facet normal -0.866025 -0.5 0
    outer loop
      vertex -6.39797 -12.8344 6.35
      vertex -7.72548 -10.5351 25.4
      vertex -7.72548 -10.5351 6.35
    endloop
  endfacet
  facet normal -0.866025 -0.5 0
    outer loop
      vertex -7.72548 -10.5351 25.4
      vertex -6.39797 -12.8344 6.35
      vertex -6.39797 -12.8344 25.4
    endloop
  endfacet
  facet normal -0.406737 -0.913545 0
    outer loop
      vertex -14.0755 -5.92158 6.35
      vertex -11.65 -7.00148 25.4
      vertex -14.0755 -5.92158 25.4
    endloop
  endfacet
  facet normal -0.406737 -0.913545 -0
    outer loop
      vertex -11.65 -7.00148 25.4
      vertex -14.0755 -5.92158 6.35
      vertex -11.65 -7.00148 6.35
    endloop
  endfacet
  facet normal -0.207912 -0.978148 0
    outer loop
      vertex -16.6725 -5.36957 6.35
      vertex -14.0755 -5.92158 25.4
      vertex -16.6725 -5.36957 25.4
    endloop
  endfacet
  facet normal -0.207912 -0.978148 -0
    outer loop
      vertex -14.0755 -5.92158 25.4
      vertex -16.6725 -5.36957 6.35
      vertex -14.0755 -5.92158 6.35
    endloop
  endfacet
  facet normal -0.587785 -0.809017 0
    outer loop
      vertex -11.65 -7.00148 6.35
      vertex -9.50204 -8.56206 25.4
      vertex -11.65 -7.00148 25.4
    endloop
  endfacet
  facet normal -0.587785 -0.809017 -0
    outer loop
      vertex -9.50204 -8.56206 25.4
      vertex -11.65 -7.00148 6.35
      vertex -9.50204 -8.56206 6.35
    endloop
  endfacet
  facet normal 0.866025 -0.5 0
    outer loop
      vertex -29.602 -12.8344 25.4
      vertex -28.2745 -10.5351 6.35
      vertex -28.2745 -10.5351 25.4
    endloop
  endfacet
  facet normal 0.866025 -0.5 0
    outer loop
      vertex -28.2745 -10.5351 6.35
      vertex -29.602 -12.8344 25.4
      vertex -29.602 -12.8344 6.35
    endloop
  endfacet
  facet normal 0.743145 -0.66913 0
    outer loop
      vertex -28.2745 -10.5351 25.4
      vertex -26.498 -8.56206 6.35
      vertex -26.498 -8.56206 25.4
    endloop
  endfacet
  facet normal 0.743145 -0.66913 0
    outer loop
      vertex -26.498 -8.56206 6.35
      vertex -28.2745 -10.5351 25.4
      vertex -28.2745 -10.5351 6.35
    endloop
  endfacet
  facet normal 0.951057 -0.309017 0
    outer loop
      vertex -30.4225 -15.3595 25.4
      vertex -29.602 -12.8344 6.35
      vertex -29.602 -12.8344 25.4
    endloop
  endfacet
  facet normal 0.951057 -0.309017 0
    outer loop
      vertex -29.602 -12.8344 6.35
      vertex -30.4225 -15.3595 25.4
      vertex -30.4225 -15.3595 6.35
    endloop
  endfacet
  facet normal 0.406737 -0.913545 0
    outer loop
      vertex -24.35 -7.00148 6.35
      vertex -21.9245 -5.92158 25.4
      vertex -24.35 -7.00148 25.4
    endloop
  endfacet
  facet normal 0.406737 -0.913545 0
    outer loop
      vertex -21.9245 -5.92158 25.4
      vertex -24.35 -7.00148 6.35
      vertex -21.9245 -5.92158 6.35
    endloop
  endfacet
  facet normal -0.994522 0.104529 0
    outer loop
      vertex -5.57753 -20.6405 6.35
      vertex -5.3 -18 25.4
      vertex -5.3 -18 6.35
    endloop
  endfacet
  facet normal -0.994522 0.104529 0
    outer loop
      vertex -5.3 -18 25.4
      vertex -5.57753 -20.6405 6.35
      vertex -5.57753 -20.6405 25.4
    endloop
  endfacet
  facet normal 0 0 1
    outer loop
      vertex -5.57753 -15.3595 6.35
      vertex -5.57753 -20.6405 6.35
      vertex -5.3 -18 6.35
    endloop
  endfacet
  facet normal 0 0 1
    outer loop
      vertex -6.39797 -12.8344 6.35
      vertex -5.57753 -20.6405 6.35
      vertex -5.57753 -15.3595 6.35
    endloop
  endfacet
  facet normal 0 0 1
    outer loop
      vertex -6.39797 -12.8344 6.35
      vertex -6.39797 -23.1656 6.35
      vertex -5.57753 -20.6405 6.35
    endloop
  endfacet
  facet normal 0 0 1
    outer loop
      vertex -7.72548 -10.5351 6.35
      vertex -6.39797 -23.1656 6.35
      vertex -6.39797 -12.8344 6.35
    endloop
  endfacet
  facet normal 0 0 1
    outer loop
      vertex -7.72548 -10.5351 6.35
      vertex -7.72548 -25.4649 6.35
      vertex -6.39797 -23.1656 6.35
    endloop
  endfacet
  facet normal 0 0 1
    outer loop
      vertex -9.50204 -8.56206 6.35
      vertex -7.72548 -25.4649 6.35
      vertex -7.72548 -10.5351 6.35
    endloop
  endfacet
  facet normal 0 0 1
    outer loop
      vertex -9.50204 -8.56206 6.35
      vertex -9.50204 -27.4379 6.35
      vertex -7.72548 -25.4649 6.35
    endloop
  endfacet
  facet normal 0 0 1
    outer loop
      vertex -11.65 -7.00148 6.35
      vertex -9.50204 -27.4379 6.35
      vertex -9.50204 -8.56206 6.35
    endloop
  endfacet
  facet normal 0 0 1
    outer loop
      vertex -11.65 -7.00148 6.35
      vertex -11.65 -28.9985 6.35
      vertex -9.50204 -27.4379 6.35
    endloop
  endfacet
  facet normal 0 0 1
    outer loop
      vertex -14.0755 -5.92158 6.35
      vertex -11.65 -28.9985 6.35
      vertex -11.65 -7.00148 6.35
    endloop
  endfacet
  facet normal 0 0 1
    outer loop
      vertex -14.0755 -5.92158 6.35
      vertex -14.0755 -30.0784 6.35
      vertex -11.65 -28.9985 6.35
    endloop
  endfacet
  facet normal 0 0 1
    outer loop
      vertex -16.6725 -5.36957 6.35
      vertex -14.0755 -30.0784 6.35
      vertex -14.0755 -5.92158 6.35
    endloop
  endfacet
  facet normal 0 0 1
    outer loop
      vertex -16.6725 -5.36957 6.35
      vertex -16.6725 -30.6304 6.35
      vertex -14.0755 -30.0784 6.35
    endloop
  endfacet
  facet normal -0 0 1
    outer loop
      vertex -19.3275 -5.36957 6.35
      vertex -16.6725 -30.6304 6.35
      vertex -16.6725 -5.36957 6.35
    endloop
  endfacet
  facet normal 0 0 1
    outer loop
      vertex -19.3275 -5.36957 6.35
      vertex -19.3275 -30.6304 6.35
      vertex -16.6725 -30.6304 6.35
    endloop
  endfacet
  facet normal -0 0 1
    outer loop
      vertex -21.9245 -5.92158 6.35
      vertex -19.3275 -30.6304 6.35
      vertex -19.3275 -5.36957 6.35
    endloop
  endfacet
  facet normal 0 0 1
    outer loop
      vertex -21.9245 -5.92158 6.35
      vertex -21.9245 -30.0784 6.35
      vertex -19.3275 -30.6304 6.35
    endloop
  endfacet
  facet normal -0 0 1
    outer loop
      vertex -24.35 -7.00148 6.35
      vertex -21.9245 -30.0784 6.35
      vertex -21.9245 -5.92158 6.35
    endloop
  endfacet
  facet normal 0 0 1
    outer loop
      vertex -24.35 -7.00148 6.35
      vertex -24.35 -28.9985 6.35
      vertex -21.9245 -30.0784 6.35
    endloop
  endfacet
  facet normal -0 0 1
    outer loop
      vertex -26.498 -8.56206 6.35
      vertex -24.35 -28.9985 6.35
      vertex -24.35 -7.00148 6.35
    endloop
  endfacet
  facet normal 0 0 1
    outer loop
      vertex -26.498 -8.56206 6.35
      vertex -26.498 -27.4379 6.35
      vertex -24.35 -28.9985 6.35
    endloop
  endfacet
  facet normal -0 0 1
    outer loop
      vertex -28.2745 -10.5351 6.35
      vertex -26.498 -27.4379 6.35
      vertex -26.498 -8.56206 6.35
    endloop
  endfacet
  facet normal 0 0 1
    outer loop
      vertex -28.2745 -10.5351 6.35
      vertex -28.2745 -25.4649 6.35
      vertex -26.498 -27.4379 6.35
    endloop
  endfacet
  facet normal -0 0 1
    outer loop
      vertex -29.602 -12.8344 6.35
      vertex -28.2745 -25.4649 6.35
      vertex -28.2745 -10.5351 6.35
    endloop
  endfacet
  facet normal 0 0 1
    outer loop
      vertex -29.602 -12.8344 6.35
      vertex -29.602 -23.1656 6.35
      vertex -28.2745 -25.4649 6.35
    endloop
  endfacet
  facet normal -0 0 1
    outer loop
      vertex -30.4225 -15.3595 6.35
      vertex -29.602 -23.1656 6.35
      vertex -29.602 -12.8344 6.35
    endloop
  endfacet
  facet normal 0 0 1
    outer loop
      vertex -30.4225 -15.3595 6.35
      vertex -30.4225 -20.6405 6.35
      vertex -29.602 -23.1656 6.35
    endloop
  endfacet
  facet normal 0 -0 1
    outer loop
      vertex -30.4225 -20.6405 6.35
      vertex -30.4225 -15.3595 6.35
      vertex -30.7 -18 6.35
    endloop
  endfacet
  facet normal -0.743145 0.669131 0
    outer loop
      vertex -9.50204 -27.4379 6.35
      vertex -7.72548 -25.4649 25.4
      vertex -7.72548 -25.4649 6.35
    endloop
  endfacet
  facet normal -0.743145 0.669131 0
    outer loop
      vertex -7.72548 -25.4649 25.4
      vertex -9.50204 -27.4379 6.35
      vertex -9.50204 -27.4379 25.4
    endloop
  endfacet
  facet normal -0.951057 0.309017 0
    outer loop
      vertex -6.39797 -23.1656 6.35
      vertex -5.57753 -20.6405 25.4
      vertex -5.57753 -20.6405 6.35
    endloop
  endfacet
  facet normal -0.951057 0.309017 0
    outer loop
      vertex -5.57753 -20.6405 25.4
      vertex -6.39797 -23.1656 6.35
      vertex -6.39797 -23.1656 25.4
    endloop
  endfacet
  facet normal -0.866025 0.5 0
    outer loop
      vertex -7.72548 -25.4649 6.35
      vertex -6.39797 -23.1656 25.4
      vertex -6.39797 -23.1656 6.35
    endloop
  endfacet
  facet normal -0.866025 0.5 0
    outer loop
      vertex -6.39797 -23.1656 25.4
      vertex -7.72548 -25.4649 6.35
      vertex -7.72548 -25.4649 25.4
    endloop
  endfacet
  facet normal 0.866025 0.5 0
    outer loop
      vertex -28.2745 -25.4649 25.4
      vertex -29.602 -23.1656 6.35
      vertex -29.602 -23.1656 25.4
    endloop
  endfacet
  facet normal 0.866025 0.5 0
    outer loop
      vertex -29.602 -23.1656 6.35
      vertex -28.2745 -25.4649 25.4
      vertex -28.2745 -25.4649 6.35
    endloop
  endfacet
  facet normal 0.994522 0.104529 0
    outer loop
      vertex -30.4225 -20.6405 25.4
      vertex -30.7 -18 6.35
      vertex -30.7 -18 25.4
    endloop
  endfacet
  facet normal 0.994522 0.104529 0
    outer loop
      vertex -30.7 -18 6.35
      vertex -30.4225 -20.6405 25.4
      vertex -30.4225 -20.6405 6.35
    endloop
  endfacet
  facet normal -0.207912 0.978148 0
    outer loop
      vertex -14.0755 -30.0784 6.35
      vertex -16.6725 -30.6304 25.4
      vertex -14.0755 -30.0784 25.4
    endloop
  endfacet
  facet normal -0.207912 0.978148 0
    outer loop
      vertex -16.6725 -30.6304 25.4
      vertex -14.0755 -30.0784 6.35
      vertex -16.6725 -30.6304 6.35
    endloop
  endfacet
  facet normal -0.587785 0.809017 0
    outer loop
      vertex -9.50204 -27.4379 6.35
      vertex -11.65 -28.9985 25.4
      vertex -9.50204 -27.4379 25.4
    endloop
  endfacet
  facet normal -0.587785 0.809017 0
    outer loop
      vertex -11.65 -28.9985 25.4
      vertex -9.50204 -27.4379 6.35
      vertex -11.65 -28.9985 6.35
    endloop
  endfacet
  facet normal 0.207912 0.978148 -0
    outer loop
      vertex -19.3275 -30.6304 6.35
      vertex -21.9245 -30.0784 25.4
      vertex -19.3275 -30.6304 25.4
    endloop
  endfacet
  facet normal 0.207912 0.978148 0
    outer loop
      vertex -21.9245 -30.0784 25.4
      vertex -19.3275 -30.6304 6.35
      vertex -21.9245 -30.0784 6.35
    endloop
  endfacet
  facet normal 0.406737 0.913545 -0
    outer loop
      vertex -21.9245 -30.0784 6.35
      vertex -24.35 -28.9985 25.4
      vertex -21.9245 -30.0784 25.4
    endloop
  endfacet
  facet normal 0.406737 0.913545 0
    outer loop
      vertex -24.35 -28.9985 25.4
      vertex -21.9245 -30.0784 6.35
      vertex -24.35 -28.9985 6.35
    endloop
  endfacet
  facet normal 0.743145 0.66913 0
    outer loop
      vertex -26.498 -27.4379 25.4
      vertex -28.2745 -25.4649 6.35
      vertex -28.2745 -25.4649 25.4
    endloop
  endfacet
  facet normal 0.743145 0.66913 0
    outer loop
      vertex -28.2745 -25.4649 6.35
      vertex -26.498 -27.4379 25.4
      vertex -26.498 -27.4379 6.35
    endloop
  endfacet
  facet normal 0.951057 0.309017 0
    outer loop
      vertex -29.602 -23.1656 25.4
      vertex -30.4225 -20.6405 6.35
      vertex -30.4225 -20.6405 25.4
    endloop
  endfacet
  facet normal 0.951057 0.309017 0
    outer loop
      vertex -30.4225 -20.6405 6.35
      vertex -29.602 -23.1656 25.4
      vertex -29.602 -23.1656 6.35
    endloop
  endfacet
  facet normal -0.406737 0.913545 0
    outer loop
      vertex -11.65 -28.9985 6.35
      vertex -14.0755 -30.0784 25.4
      vertex -11.65 -28.9985 25.4
    endloop
  endfacet
  facet normal -0.406737 0.913545 0
    outer loop
      vertex -14.0755 -30.0784 25.4
      vertex -11.65 -28.9985 6.35
      vertex -14.0755 -30.0784 6.35
    endloop
  endfacet
  facet normal 0.587785 0.809017 -0
    outer loop
      vertex -24.35 -28.9985 6.35
      vertex -26.498 -27.4379 25.4
      vertex -24.35 -28.9985 25.4
    endloop
  endfacet
  facet normal 0.587785 0.809017 0
    outer loop
      vertex -26.498 -27.4379 25.4
      vertex -24.35 -28.9985 6.35
      vertex -26.498 -27.4379 6.35
    endloop
  endfacet
  facet normal -0.866025 -0.5 0
    outer loop
      vertex 25.1437 -18 6.35
      vertex 21.5719 -11.8133 25.4
      vertex 21.5719 -11.8133 6.35
    endloop
  endfacet
  facet normal -0.866025 -0.5 0
    outer loop
      vertex 21.5719 -11.8133 25.4
      vertex 25.1437 -18 6.35
      vertex 25.1437 -18 25.4
    endloop
  endfacet
  facet normal 0.866025 -0.5 0
    outer loop
      vertex 10.8562 -18 25.4
      vertex 14.4281 -11.8133 6.35
      vertex 14.4281 -11.8133 25.4
    endloop
  endfacet
  facet normal 0.866025 -0.5 0
    outer loop
      vertex 14.4281 -11.8133 6.35
      vertex 10.8562 -18 25.4
      vertex 10.8562 -18 6.35
    endloop
  endfacet
  facet normal 0 -1 0
    outer loop
      vertex 14.4281 -11.8133 6.35
      vertex 21.5719 -11.8133 25.4
      vertex 14.4281 -11.8133 25.4
    endloop
  endfacet
  facet normal 0 -1 -0
    outer loop
      vertex 21.5719 -11.8133 25.4
      vertex 14.4281 -11.8133 6.35
      vertex 21.5719 -11.8133 6.35
    endloop
  endfacet
  facet normal -0.866025 0.5 0
    outer loop
      vertex 21.5719 -24.1867 6.35
      vertex 25.1437 -18 25.4
      vertex 25.1437 -18 6.35
    endloop
  endfacet
  facet normal -0.866025 0.5 0
    outer loop
      vertex 25.1437 -18 25.4
      vertex 21.5719 -24.1867 6.35
      vertex 21.5719 -24.1867 25.4
    endloop
  endfacet
  facet normal 0 0 1
    outer loop
      vertex 21.5719 -11.8133 6.35
      vertex 21.5719 -24.1867 6.35
      vertex 25.1437 -18 6.35
    endloop
  endfacet
  facet normal -0 0 1
    outer loop
      vertex 14.4281 -11.8133 6.35
      vertex 21.5719 -24.1867 6.35
      vertex 21.5719 -11.8133 6.35
    endloop
  endfacet
  facet normal 0 0 1
    outer loop
      vertex 14.4281 -11.8133 6.35
      vertex 14.4281 -24.1867 6.35
      vertex 21.5719 -24.1867 6.35
    endloop
  endfacet
  facet normal 0 -0 1
    outer loop
      vertex 14.4281 -24.1867 6.35
      vertex 14.4281 -11.8133 6.35
      vertex 10.8562 -18 6.35
    endloop
  endfacet
  facet normal 0 1 -0
    outer loop
      vertex 21.5719 -24.1867 6.35
      vertex 14.4281 -24.1867 25.4
      vertex 21.5719 -24.1867 25.4
    endloop
  endfacet
  facet normal 0 1 0
    outer loop
      vertex 14.4281 -24.1867 25.4
      vertex 21.5719 -24.1867 6.35
      vertex 14.4281 -24.1867 6.35
    endloop
  endfacet
  facet normal 0.866025 0.5 0
    outer loop
      vertex 14.4281 -24.1867 25.4
      vertex 10.8562 -18 6.35
      vertex 10.8562 -18 25.4
    endloop
  endfacet
  facet normal 0.866025 0.5 0
    outer loop
      vertex 10.8562 -18 6.35
      vertex 14.4281 -24.1867 25.4
      vertex 14.4281 -24.1867 6.35
    endloop
  endfacet
endsolid OpenSCAD_Model
