solid OpenSCAD_Model
  facet normal 0 -0.913545 0.406737
    outer loop
      vertex -32.3688 25.761 23.65
      vertex -14.4937 26.5402 25.4
      vertex -32.3688 26.5402 25.4
    endloop
  endfacet
  facet normal 0 -0.913545 0.406737
    outer loop
      vertex -14.4937 26.5402 25.4
      vertex -32.3688 25.761 23.65
      vertex -14.4937 25.761 23.65
    endloop
  endfacet
  facet normal -1.0612e-07 0.104528 0.994522
    outer loop
      vertex -32.3688 14.7625 17.3
      vertex -14.4937 12.122 17.5775
      vertex -14.4937 14.7625 17.3
    endloop
  endfacet
  facet normal 0 0.104529 0.994522
    outer loop
      vertex -14.4937 12.122 17.5775
      vertex -32.3688 14.7625 17.3
      vertex -32.3688 12.122 17.5775
    endloop
  endfacet
  facet normal 1 0 0
    outer loop
      vertex -32.3688 26.5402 25.4
      vertex -32.3688 24.2004 21.502
      vertex -32.3688 25.761 23.65
    endloop
  endfacet
  facet normal 1 0 0
    outer loop
      vertex -32.3688 26.5402 25.4
      vertex -32.3688 22.2274 19.7255
      vertex -32.3688 24.2004 21.502
    endloop
  endfacet
  facet normal 1 0 0
    outer loop
      vertex -32.3688 26.5402 25.4
      vertex -32.3688 19.9281 18.398
      vertex -32.3688 22.2274 19.7255
    endloop
  endfacet
  facet normal 1 0 0
    outer loop
      vertex -32.3688 26.5402 25.4
      vertex -32.3688 17.403 17.5775
      vertex -32.3688 19.9281 18.398
    endloop
  endfacet
  facet normal 1 0 0
    outer loop
      vertex -32.3688 26.5402 25.4
      vertex -32.3688 14.7625 17.3
      vertex -32.3688 17.403 17.5775
    endloop
  endfacet
  facet normal 1 0 0
    outer loop
      vertex -32.3688 26.5402 25.4
      vertex -32.3688 12.122 17.5775
      vertex -32.3688 14.7625 17.3
    endloop
  endfacet
  facet normal 1 0 0
    outer loop
      vertex -32.3688 26.5402 25.4
      vertex -32.3688 9.59694 18.398
      vertex -32.3688 12.122 17.5775
    endloop
  endfacet
  facet normal 1 0 0
    outer loop
      vertex -32.3688 26.5402 25.4
      vertex -32.3688 7.29763 19.7255
      vertex -32.3688 9.59694 18.398
    endloop
  endfacet
  facet normal 1 -0 0
    outer loop
      vertex -32.3688 2.98483 25.4
      vertex -32.3688 7.29763 19.7255
      vertex -32.3688 26.5402 25.4
    endloop
  endfacet
  facet normal 1 0 0
    outer loop
      vertex -32.3688 7.29763 19.7255
      vertex -32.3688 2.98483 25.4
      vertex -32.3688 5.32456 21.502
    endloop
  endfacet
  facet normal 1 0 0
    outer loop
      vertex -32.3688 5.32456 21.502
      vertex -32.3688 2.98483 25.4
      vertex -32.3688 3.76398 23.65
    endloop
  endfacet
  facet normal 0 -0.5 0.866025
    outer loop
      vertex -32.3688 22.2274 19.7255
      vertex -14.4937 19.9281 18.398
      vertex -14.4937 22.2274 19.7255
    endloop
  endfacet
  facet normal -9.2409e-08 -0.500001 0.866025
    outer loop
      vertex -14.4937 19.9281 18.398
      vertex -32.3688 22.2274 19.7255
      vertex -32.3688 19.9281 18.398
    endloop
  endfacet
  facet normal -7.92971e-08 -0.66913 0.743145
    outer loop
      vertex -32.3688 24.2004 21.502
      vertex -14.4937 22.2274 19.7255
      vertex -14.4937 24.2004 21.502
    endloop
  endfacet
  facet normal 0 -0.66913 0.743145
    outer loop
      vertex -14.4937 22.2274 19.7255
      vertex -32.3688 24.2004 21.502
      vertex -32.3688 22.2274 19.7255
    endloop
  endfacet
  facet normal 0 -0.809017 0.587785
    outer loop
      vertex -32.3688 25.761 23.65
      vertex -14.4937 24.2004 21.502
      vertex -14.4937 25.761 23.65
    endloop
  endfacet
  facet normal -6.27195e-08 -0.809017 0.587785
    outer loop
      vertex -14.4937 24.2004 21.502
      vertex -32.3688 25.761 23.65
      vertex -32.3688 24.2004 21.502
    endloop
  endfacet
  facet normal 0 -0.104528 0.994522
    outer loop
      vertex -32.3688 17.403 17.5775
      vertex -14.4937 14.7625 17.3
      vertex -14.4937 17.403 17.5775
    endloop
  endfacet
  facet normal -1.0612e-07 -0.104529 0.994522
    outer loop
      vertex -14.4937 14.7625 17.3
      vertex -32.3688 17.403 17.5775
      vertex -32.3688 14.7625 17.3
    endloop
  endfacet
  facet normal -9.24091e-08 0.5 0.866026
    outer loop
      vertex -32.3688 9.59694 18.398
      vertex -14.4937 7.29763 19.7255
      vertex -14.4937 9.59694 18.398
    endloop
  endfacet
  facet normal 0 0.5 0.866025
    outer loop
      vertex -14.4937 7.29763 19.7255
      vertex -32.3688 9.59694 18.398
      vertex -32.3688 7.29763 19.7255
    endloop
  endfacet
  facet normal -0 0.309017 0.951056
    outer loop
      vertex -32.3688 12.122 17.5775
      vertex -14.4937 9.59694 18.398
      vertex -14.4937 12.122 17.5775
    endloop
  endfacet
  facet normal -1.01482e-07 0.309017 0.951057
    outer loop
      vertex -14.4937 9.59694 18.398
      vertex -32.3688 12.122 17.5775
      vertex -32.3688 9.59694 18.398
    endloop
  endfacet
  facet normal 0 0.913545 0.406737
    outer loop
      vertex -14.4937 3.76398 23.65
      vertex -32.3688 2.98483 25.4
      vertex -14.4937 2.98483 25.4
    endloop
  endfacet
  facet normal 0 0.913545 0.406737
    outer loop
      vertex -32.3688 2.98483 25.4
      vertex -14.4937 3.76398 23.65
      vertex -32.3688 3.76398 23.65
    endloop
  endfacet
  facet normal 0 0.809017 0.587785
    outer loop
      vertex -14.4937 5.32456 21.502
      vertex -32.3688 3.76398 23.65
      vertex -14.4937 3.76398 23.65
    endloop
  endfacet
  facet normal -6.27195e-08 0.809017 0.587785
    outer loop
      vertex -32.3688 3.76398 23.65
      vertex -14.4937 5.32456 21.502
      vertex -32.3688 5.32456 21.502
    endloop
  endfacet
  facet normal -1.01482e-07 -0.309017 0.951056
    outer loop
      vertex -32.3688 19.9281 18.398
      vertex -14.4937 17.403 17.5775
      vertex -14.4937 19.9281 18.398
    endloop
  endfacet
  facet normal 0 -0.309016 0.951057
    outer loop
      vertex -14.4937 17.403 17.5775
      vertex -32.3688 19.9281 18.398
      vertex -32.3688 17.403 17.5775
    endloop
  endfacet
  facet normal -1 0 0
    outer loop
      vertex -14.4937 24.2004 21.502
      vertex -14.4937 26.5402 25.4
      vertex -14.4937 25.761 23.65
    endloop
  endfacet
  facet normal -1 0 0
    outer loop
      vertex -14.4937 22.2274 19.7255
      vertex -14.4937 26.5402 25.4
      vertex -14.4937 24.2004 21.502
    endloop
  endfacet
  facet normal -1 0 0
    outer loop
      vertex -14.4937 19.9281 18.398
      vertex -14.4937 26.5402 25.4
      vertex -14.4937 22.2274 19.7255
    endloop
  endfacet
  facet normal -1 0 0
    outer loop
      vertex -14.4937 17.403 17.5775
      vertex -14.4937 26.5402 25.4
      vertex -14.4937 19.9281 18.398
    endloop
  endfacet
  facet normal -1 0 0
    outer loop
      vertex -14.4937 14.7625 17.3
      vertex -14.4937 26.5402 25.4
      vertex -14.4937 17.403 17.5775
    endloop
  endfacet
  facet normal -1 0 0
    outer loop
      vertex -14.4937 12.122 17.5775
      vertex -14.4937 26.5402 25.4
      vertex -14.4937 14.7625 17.3
    endloop
  endfacet
  facet normal -1 0 0
    outer loop
      vertex -14.4937 9.59694 18.398
      vertex -14.4937 26.5402 25.4
      vertex -14.4937 12.122 17.5775
    endloop
  endfacet
  facet normal -1 0 0
    outer loop
      vertex -14.4937 7.29763 19.7255
      vertex -14.4937 26.5402 25.4
      vertex -14.4937 9.59694 18.398
    endloop
  endfacet
  facet normal -1 0 0
    outer loop
      vertex -14.4937 2.98483 25.4
      vertex -14.4937 7.29763 19.7255
      vertex -14.4937 5.32456 21.502
    endloop
  endfacet
  facet normal -1 0 0
    outer loop
      vertex -14.4937 2.98483 25.4
      vertex -14.4937 5.32456 21.502
      vertex -14.4937 3.76398 23.65
    endloop
  endfacet
  facet normal -1 0 0
    outer loop
      vertex -14.4937 7.29763 19.7255
      vertex -14.4937 2.98483 25.4
      vertex -14.4937 26.5402 25.4
    endloop
  endfacet
  facet normal -0 0.669131 0.743145
    outer loop
      vertex -32.3688 7.29763 19.7255
      vertex -14.4937 5.32456 21.502
      vertex -14.4937 7.29763 19.7255
    endloop
  endfacet
  facet normal -7.92971e-08 0.66913 0.743145
    outer loop
      vertex -14.4937 5.32456 21.502
      vertex -32.3688 7.29763 19.7255
      vertex -32.3688 5.32456 21.502
    endloop
  endfacet
  facet normal 0 -0.104529 0.994522
    outer loop
      vertex -11.3188 16.1455 16.0247
      vertex 6.55625 13.175 15.7125
      vertex 6.55625 16.1455 16.0247
    endloop
  endfacet
  facet normal 0 -0.104529 0.994522
    outer loop
      vertex 6.55625 13.175 15.7125
      vertex -11.3188 16.1455 16.0247
      vertex -11.3188 13.175 15.7125
    endloop
  endfacet
  facet normal 0 -0.809017 0.587786
    outer loop
      vertex -11.3188 23.7927 20.4398
      vertex 6.55625 25.5483 22.8563
      vertex -11.3188 25.5483 22.8563
    endloop
  endfacet
  facet normal 0 -0.809017 0.587786
    outer loop
      vertex 6.55625 25.5483 22.8563
      vertex -11.3188 23.7927 20.4398
      vertex 6.55625 23.7927 20.4398
    endloop
  endfacet
  facet normal -1 0 0
    outer loop
      vertex 6.55625 23.7927 20.4398
      vertex 6.55625 26.6809 25.4
      vertex 6.55625 25.5483 22.8563
    endloop
  endfacet
  facet normal -1 0 0
    outer loop
      vertex 6.55625 21.573 18.4412
      vertex 6.55625 26.6809 25.4
      vertex 6.55625 23.7927 20.4398
    endloop
  endfacet
  facet normal -1 0 0
    outer loop
      vertex 6.55625 18.9862 16.9477
      vertex 6.55625 26.6809 25.4
      vertex 6.55625 21.573 18.4412
    endloop
  endfacet
  facet normal -1 0 0
    outer loop
      vertex 6.55625 16.1455 16.0247
      vertex 6.55625 26.6809 25.4
      vertex 6.55625 18.9862 16.9477
    endloop
  endfacet
  facet normal -1 0 0
    outer loop
      vertex 6.55625 13.175 15.7125
      vertex 6.55625 26.6809 25.4
      vertex 6.55625 16.1455 16.0247
    endloop
  endfacet
  facet normal -1 0 0
    outer loop
      vertex 6.55625 10.2045 16.0247
      vertex 6.55625 26.6809 25.4
      vertex 6.55625 13.175 15.7125
    endloop
  endfacet
  facet normal -1 0 0
    outer loop
      vertex 6.55625 7.36375 16.9477
      vertex 6.55625 26.6809 25.4
      vertex 6.55625 10.2045 16.0247
    endloop
  endfacet
  facet normal -1 0 0
    outer loop
      vertex 6.55625 4.77702 18.4412
      vertex 6.55625 26.6809 25.4
      vertex 6.55625 7.36375 16.9477
    endloop
  endfacet
  facet normal -1 0 0
    outer loop
      vertex 6.55625 2.55732 20.4398
      vertex 6.55625 26.6809 25.4
      vertex 6.55625 4.77702 18.4412
    endloop
  endfacet
  facet normal -1 0 0
    outer loop
      vertex 6.55625 0.801662 22.8563
      vertex 6.55625 26.6809 25.4
      vertex 6.55625 2.55732 20.4398
    endloop
  endfacet
  facet normal -1 -0 0
    outer loop
      vertex 6.55625 26.6809 25.4
      vertex 6.55625 0.801662 22.8563
      vertex 6.55625 -0.330888 25.4
    endloop
  endfacet
  facet normal -0 0.5 0.866025
    outer loop
      vertex -11.3188 7.36375 16.9477
      vertex 6.55625 4.77702 18.4412
      vertex 6.55625 7.36375 16.9477
    endloop
  endfacet
  facet normal 0 0.5 0.866025
    outer loop
      vertex 6.55625 4.77702 18.4412
      vertex -11.3188 7.36375 16.9477
      vertex -11.3188 4.77702 18.4412
    endloop
  endfacet
  facet normal 0 -0.5 0.866026
    outer loop
      vertex -11.3188 21.573 18.4412
      vertex 6.55625 18.9862 16.9477
      vertex 6.55625 21.573 18.4412
    endloop
  endfacet
  facet normal 0 -0.5 0.866026
    outer loop
      vertex 6.55625 18.9862 16.9477
      vertex -11.3188 21.573 18.4412
      vertex -11.3188 18.9862 16.9477
    endloop
  endfacet
  facet normal 0 -0.309017 0.951057
    outer loop
      vertex -11.3188 18.9862 16.9477
      vertex 6.55625 16.1455 16.0247
      vertex 6.55625 18.9862 16.9477
    endloop
  endfacet
  facet normal 0 -0.309017 0.951057
    outer loop
      vertex 6.55625 16.1455 16.0247
      vertex -11.3188 18.9862 16.9477
      vertex -11.3188 16.1455 16.0247
    endloop
  endfacet
  facet normal 0 -0.669131 0.743145
    outer loop
      vertex -11.3188 23.7927 20.4398
      vertex 6.55625 21.573 18.4412
      vertex 6.55625 23.7927 20.4398
    endloop
  endfacet
  facet normal 0 -0.669131 0.743145
    outer loop
      vertex 6.55625 21.573 18.4412
      vertex -11.3188 23.7927 20.4398
      vertex -11.3188 21.573 18.4412
    endloop
  endfacet
  facet normal 0 -0.913546 0.406736
    outer loop
      vertex -11.3188 25.5483 22.8563
      vertex 6.55625 26.6809 25.4
      vertex -11.3188 26.6809 25.4
    endloop
  endfacet
  facet normal 0 -0.913546 0.406736
    outer loop
      vertex 6.55625 26.6809 25.4
      vertex -11.3188 25.5483 22.8563
      vertex 6.55625 25.5483 22.8563
    endloop
  endfacet
  facet normal 1 0 0
    outer loop
      vertex -11.3188 26.6809 25.4
      vertex -11.3188 23.7927 20.4398
      vertex -11.3188 25.5483 22.8563
    endloop
  endfacet
  facet normal 1 0 0
    outer loop
      vertex -11.3188 26.6809 25.4
      vertex -11.3188 21.573 18.4412
      vertex -11.3188 23.7927 20.4398
    endloop
  endfacet
  facet normal 1 0 0
    outer loop
      vertex -11.3188 26.6809 25.4
      vertex -11.3188 18.9862 16.9477
      vertex -11.3188 21.573 18.4412
    endloop
  endfacet
  facet normal 1 0 0
    outer loop
      vertex -11.3188 26.6809 25.4
      vertex -11.3188 16.1455 16.0247
      vertex -11.3188 18.9862 16.9477
    endloop
  endfacet
  facet normal 1 0 0
    outer loop
      vertex -11.3188 26.6809 25.4
      vertex -11.3188 13.175 15.7125
      vertex -11.3188 16.1455 16.0247
    endloop
  endfacet
  facet normal 1 0 0
    outer loop
      vertex -11.3188 26.6809 25.4
      vertex -11.3188 10.2045 16.0247
      vertex -11.3188 13.175 15.7125
    endloop
  endfacet
  facet normal 1 0 0
    outer loop
      vertex -11.3188 26.6809 25.4
      vertex -11.3188 7.36375 16.9477
      vertex -11.3188 10.2045 16.0247
    endloop
  endfacet
  facet normal 1 0 0
    outer loop
      vertex -11.3188 26.6809 25.4
      vertex -11.3188 4.77702 18.4412
      vertex -11.3188 7.36375 16.9477
    endloop
  endfacet
  facet normal 1 0 0
    outer loop
      vertex -11.3188 26.6809 25.4
      vertex -11.3188 2.55732 20.4398
      vertex -11.3188 4.77702 18.4412
    endloop
  endfacet
  facet normal 1 0 0
    outer loop
      vertex -11.3188 26.6809 25.4
      vertex -11.3188 0.801662 22.8563
      vertex -11.3188 2.55732 20.4398
    endloop
  endfacet
  facet normal 1 0 -0
    outer loop
      vertex -11.3188 0.801662 22.8563
      vertex -11.3188 26.6809 25.4
      vertex -11.3188 -0.330888 25.4
    endloop
  endfacet
  facet normal -0 0.669131 0.743145
    outer loop
      vertex -11.3188 4.77702 18.4412
      vertex 6.55625 2.55732 20.4398
      vertex 6.55625 4.77702 18.4412
    endloop
  endfacet
  facet normal 0 0.669131 0.743145
    outer loop
      vertex 6.55625 2.55732 20.4398
      vertex -11.3188 4.77702 18.4412
      vertex -11.3188 2.55732 20.4398
    endloop
  endfacet
  facet normal -0 0.309017 0.951057
    outer loop
      vertex -11.3188 10.2045 16.0247
      vertex 6.55625 7.36375 16.9477
      vertex 6.55625 10.2045 16.0247
    endloop
  endfacet
  facet normal 0 0.309017 0.951057
    outer loop
      vertex 6.55625 7.36375 16.9477
      vertex -11.3188 10.2045 16.0247
      vertex -11.3188 7.36375 16.9477
    endloop
  endfacet
  facet normal -0 0.104529 0.994522
    outer loop
      vertex -11.3188 13.175 15.7125
      vertex 6.55625 10.2045 16.0247
      vertex 6.55625 13.175 15.7125
    endloop
  endfacet
  facet normal 0 0.104529 0.994522
    outer loop
      vertex 6.55625 10.2045 16.0247
      vertex -11.3188 13.175 15.7125
      vertex -11.3188 10.2045 16.0247
    endloop
  endfacet
  facet normal 0 0.809017 0.587785
    outer loop
      vertex 6.55625 2.55732 20.4398
      vertex -11.3188 0.801662 22.8563
      vertex 6.55625 0.801662 22.8563
    endloop
  endfacet
  facet normal 0 0.809017 0.587785
    outer loop
      vertex -11.3188 0.801662 22.8563
      vertex 6.55625 2.55732 20.4398
      vertex -11.3188 2.55732 20.4398
    endloop
  endfacet
  facet normal 0 0.913545 0.406737
    outer loop
      vertex 6.55625 0.801662 22.8563
      vertex -11.3188 -0.330888 25.4
      vertex 6.55625 -0.330888 25.4
    endloop
  endfacet
  facet normal 0 0.913545 0.406737
    outer loop
      vertex -11.3188 -0.330888 25.4
      vertex 6.55625 0.801662 22.8563
      vertex -11.3188 0.801662 22.8563
    endloop
  endfacet
  facet normal 0 -0.104528 0.994522
    outer loop
      vertex 9.73125 13.6307 12.9191
      vertex 32.3687 10 12.5375
      vertex 32.3687 13.6307 12.9191
    endloop
  endfacet
  facet normal 0 -0.104528 0.994522
    outer loop
      vertex 32.3687 10 12.5375
      vertex 9.73125 13.6307 12.9191
      vertex 9.73125 10 12.5375
    endloop
  endfacet
  facet normal 0 -0.669131 0.743145
    outer loop
      vertex 9.73125 22.9772 18.3153
      vertex 32.3687 20.2642 15.8725
      vertex 32.3687 22.9772 18.3153
    endloop
  endfacet
  facet normal 0 -0.669131 0.743145
    outer loop
      vertex 32.3687 20.2642 15.8725
      vertex 9.73125 22.9772 18.3153
      vertex 9.73125 20.2642 15.8725
    endloop
  endfacet
  facet normal 0 -0.309017 0.951057
    outer loop
      vertex 9.73125 17.1026 14.0472
      vertex 32.3687 13.6307 12.9191
      vertex 32.3687 17.1026 14.0472
    endloop
  endfacet
  facet normal 0 -0.309017 0.951057
    outer loop
      vertex 32.3687 13.6307 12.9191
      vertex 9.73125 17.1026 14.0472
      vertex 9.73125 13.6307 12.9191
    endloop
  endfacet
  facet normal -0 0.5 0.866025
    outer loop
      vertex 9.73125 2.89736 14.0472
      vertex 32.3687 -0.264199 15.8725
      vertex 32.3687 2.89736 14.0472
    endloop
  endfacet
  facet normal 0 0.5 0.866025
    outer loop
      vertex 32.3687 -0.264199 15.8725
      vertex 9.73125 2.89736 14.0472
      vertex 9.73125 -0.264199 15.8725
    endloop
  endfacet
  facet normal 0 -0.5 0.866025
    outer loop
      vertex 9.73125 20.2642 15.8725
      vertex 32.3687 17.1026 14.0472
      vertex 32.3687 20.2642 15.8725
    endloop
  endfacet
  facet normal 0 -0.5 0.866025
    outer loop
      vertex 32.3687 17.1026 14.0472
      vertex 9.73125 20.2642 15.8725
      vertex 9.73125 17.1026 14.0472
    endloop
  endfacet
  facet normal 0 -0.913545 0.406737
    outer loop
      vertex 9.73125 25.123 21.2688
      vertex 32.3687 26.6078 24.6038
      vertex 9.73125 26.6078 24.6038
    endloop
  endfacet
  facet normal 0 -0.913545 0.406737
    outer loop
      vertex 32.3687 26.6078 24.6038
      vertex 9.73125 25.123 21.2688
      vertex 32.3687 25.123 21.2688
    endloop
  endfacet
  facet normal 0 -0.978148 0.207912
    outer loop
      vertex 9.73125 26.6078 24.6038
      vertex 32.3687 26.7771 25.4
      vertex 9.73125 26.7771 25.4
    endloop
  endfacet
  facet normal 0 -0.978148 0.207912
    outer loop
      vertex 32.3687 26.7771 25.4
      vertex 9.73125 26.6078 24.6038
      vertex 32.3687 26.6078 24.6038
    endloop
  endfacet
  facet normal 0 -0.809017 0.587785
    outer loop
      vertex 9.73125 22.9772 18.3153
      vertex 32.3687 25.123 21.2688
      vertex 9.73125 25.123 21.2688
    endloop
  endfacet
  facet normal 0 -0.809017 0.587785
    outer loop
      vertex 32.3687 25.123 21.2688
      vertex 9.73125 22.9772 18.3153
      vertex 32.3687 22.9772 18.3153
    endloop
  endfacet
  facet normal -1 0 0
    outer loop
      vertex 32.3687 25.123 21.2688
      vertex 32.3687 26.7771 25.4
      vertex 32.3687 26.6078 24.6038
    endloop
  endfacet
  facet normal -1 0 0
    outer loop
      vertex 32.3687 22.9772 18.3153
      vertex 32.3687 26.7771 25.4
      vertex 32.3687 25.123 21.2688
    endloop
  endfacet
  facet normal -1 0 0
    outer loop
      vertex 32.3687 20.2642 15.8725
      vertex 32.3687 26.7771 25.4
      vertex 32.3687 22.9772 18.3153
    endloop
  endfacet
  facet normal -1 0 0
    outer loop
      vertex 32.3687 17.1026 14.0472
      vertex 32.3687 26.7771 25.4
      vertex 32.3687 20.2642 15.8725
    endloop
  endfacet
  facet normal -1 0 0
    outer loop
      vertex 32.3687 13.6307 12.9191
      vertex 32.3687 26.7771 25.4
      vertex 32.3687 17.1026 14.0472
    endloop
  endfacet
  facet normal -1 0 0
    outer loop
      vertex 32.3687 10 12.5375
      vertex 32.3687 26.7771 25.4
      vertex 32.3687 13.6307 12.9191
    endloop
  endfacet
  facet normal -1 0 0
    outer loop
      vertex 32.3687 6.36934 12.9191
      vertex 32.3687 26.7771 25.4
      vertex 32.3687 10 12.5375
    endloop
  endfacet
  facet normal -1 0 0
    outer loop
      vertex 32.3687 2.89736 14.0472
      vertex 32.3687 26.7771 25.4
      vertex 32.3687 6.36934 12.9191
    endloop
  endfacet
  facet normal -1 0 0
    outer loop
      vertex 32.3687 -0.264199 15.8725
      vertex 32.3687 26.7771 25.4
      vertex 32.3687 2.89736 14.0472
    endloop
  endfacet
  facet normal -1 0 0
    outer loop
      vertex 32.3687 -2.97717 18.3153
      vertex 32.3687 26.7771 25.4
      vertex 32.3687 -0.264199 15.8725
    endloop
  endfacet
  facet normal -1 0 0
    outer loop
      vertex 32.3687 -6.77706 25.4
      vertex 32.3687 -2.97717 18.3153
      vertex 32.3687 -5.12297 21.2688
    endloop
  endfacet
  facet normal -1 0 0
    outer loop
      vertex 32.3687 -6.77706 25.4
      vertex 32.3687 -5.12297 21.2688
      vertex 32.3687 -6.60782 24.6038
    endloop
  endfacet
  facet normal -1 0 0
    outer loop
      vertex 32.3687 -2.97717 18.3153
      vertex 32.3687 -6.77706 25.4
      vertex 32.3687 26.7771 25.4
    endloop
  endfacet
  facet normal -0 0.104528 0.994522
    outer loop
      vertex 9.73125 10 12.5375
      vertex 32.3687 6.36934 12.9191
      vertex 32.3687 10 12.5375
    endloop
  endfacet
  facet normal 0 0.104528 0.994522
    outer loop
      vertex 32.3687 6.36934 12.9191
      vertex 9.73125 10 12.5375
      vertex 9.73125 6.36934 12.9191
    endloop
  endfacet
  facet normal 1 0 0
    outer loop
      vertex 9.73125 26.7771 25.4
      vertex 9.73125 25.123 21.2688
      vertex 9.73125 26.6078 24.6038
    endloop
  endfacet
  facet normal 1 0 0
    outer loop
      vertex 9.73125 26.7771 25.4
      vertex 9.73125 22.9772 18.3153
      vertex 9.73125 25.123 21.2688
    endloop
  endfacet
  facet normal 1 0 0
    outer loop
      vertex 9.73125 26.7771 25.4
      vertex 9.73125 20.2642 15.8725
      vertex 9.73125 22.9772 18.3153
    endloop
  endfacet
  facet normal 1 0 0
    outer loop
      vertex 9.73125 26.7771 25.4
      vertex 9.73125 17.1026 14.0472
      vertex 9.73125 20.2642 15.8725
    endloop
  endfacet
  facet normal 1 0 0
    outer loop
      vertex 9.73125 26.7771 25.4
      vertex 9.73125 13.6307 12.9191
      vertex 9.73125 17.1026 14.0472
    endloop
  endfacet
  facet normal 1 0 0
    outer loop
      vertex 9.73125 26.7771 25.4
      vertex 9.73125 10 12.5375
      vertex 9.73125 13.6307 12.9191
    endloop
  endfacet
  facet normal 1 0 0
    outer loop
      vertex 9.73125 26.7771 25.4
      vertex 9.73125 6.36934 12.9191
      vertex 9.73125 10 12.5375
    endloop
  endfacet
  facet normal 1 0 0
    outer loop
      vertex 9.73125 26.7771 25.4
      vertex 9.73125 2.89736 14.0472
      vertex 9.73125 6.36934 12.9191
    endloop
  endfacet
  facet normal 1 0 0
    outer loop
      vertex 9.73125 26.7771 25.4
      vertex 9.73125 -0.264199 15.8725
      vertex 9.73125 2.89736 14.0472
    endloop
  endfacet
  facet normal 1 0 0
    outer loop
      vertex 9.73125 26.7771 25.4
      vertex 9.73125 -2.97717 18.3153
      vertex 9.73125 -0.264199 15.8725
    endloop
  endfacet
  facet normal 1 -0 0
    outer loop
      vertex 9.73125 -6.77706 25.4
      vertex 9.73125 -2.97717 18.3153
      vertex 9.73125 26.7771 25.4
    endloop
  endfacet
  facet normal 1 0 0
    outer loop
      vertex 9.73125 -2.97717 18.3153
      vertex 9.73125 -6.77706 25.4
      vertex 9.73125 -5.12297 21.2688
    endloop
  endfacet
  facet normal 1 0 0
    outer loop
      vertex 9.73125 -5.12297 21.2688
      vertex 9.73125 -6.77706 25.4
      vertex 9.73125 -6.60782 24.6038
    endloop
  endfacet
  facet normal 0 0.978147 0.207912
    outer loop
      vertex 32.3687 -6.60782 24.6038
      vertex 9.73125 -6.77706 25.4
      vertex 32.3687 -6.77706 25.4
    endloop
  endfacet
  facet normal 0 0.978147 0.207912
    outer loop
      vertex 9.73125 -6.77706 25.4
      vertex 32.3687 -6.60782 24.6038
      vertex 9.73125 -6.60782 24.6038
    endloop
  endfacet
  facet normal 0 0.809017 0.587785
    outer loop
      vertex 32.3687 -2.97717 18.3153
      vertex 9.73125 -5.12297 21.2688
      vertex 32.3687 -5.12297 21.2688
    endloop
  endfacet
  facet normal 0 0.809017 0.587785
    outer loop
      vertex 9.73125 -5.12297 21.2688
      vertex 32.3687 -2.97717 18.3153
      vertex 9.73125 -2.97717 18.3153
    endloop
  endfacet
  facet normal -0 0.669131 0.743145
    outer loop
      vertex 9.73125 -0.264199 15.8725
      vertex 32.3687 -2.97717 18.3153
      vertex 32.3687 -0.264199 15.8725
    endloop
  endfacet
  facet normal 0 0.669131 0.743145
    outer loop
      vertex 32.3687 -2.97717 18.3153
      vertex 9.73125 -0.264199 15.8725
      vertex 9.73125 -2.97717 18.3153
    endloop
  endfacet
  facet normal -0 0.309017 0.951057
    outer loop
      vertex 9.73125 6.36934 12.9191
      vertex 32.3687 2.89736 14.0472
      vertex 32.3687 6.36934 12.9191
    endloop
  endfacet
  facet normal 0 0.309017 0.951057
    outer loop
      vertex 32.3687 2.89736 14.0472
      vertex 9.73125 6.36934 12.9191
      vertex 9.73125 2.89736 14.0472
    endloop
  endfacet
  facet normal 0 0.913545 0.406737
    outer loop
      vertex 32.3687 -5.12297 21.2688
      vertex 9.73125 -6.60782 24.6038
      vertex 32.3687 -6.60782 24.6038
    endloop
  endfacet
  facet normal 0 0.913545 0.406737
    outer loop
      vertex 9.73125 -6.60782 24.6038
      vertex 32.3687 -5.12297 21.2688
      vertex 9.73125 -5.12297 21.2688
    endloop
  endfacet
  facet normal 0.754916 0.504419 0.419121
    outer loop
      vertex 44.8105 38.4605 0
      vertex 35.8484 30.7684 25.4
      vertex 36.7155 29.4707 25.4
    endloop
  endfacet
  facet normal 0.907147 0.18045 0.380161
    outer loop
      vertex 46.275 34.925 0
      vertex 36.7155 29.4707 25.4
      vertex 37.02 27.94 25.4
    endloop
  endfacet
  facet normal 0.907147 0.18045 0.380161
    outer loop
      vertex 45.8944 36.8384 0
      vertex 36.7155 29.4707 25.4
      vertex 46.275 34.925 0
    endloop
  endfacet
  facet normal 0.754917 0.504419 0.419121
    outer loop
      vertex 44.8105 38.4605 0
      vertex 36.7155 29.4707 25.4
      vertex 45.8944 36.8384 0
    endloop
  endfacet
  facet normal -0.754917 -0.504419 0.419121
    outer loop
      vertex -36.7155 -29.4707 25.4
      vertex -45.8944 -36.8384 0
      vertex -44.8105 -38.4605 0
    endloop
  endfacet
  facet normal 0.507048 0.75885 0.408715
    outer loop
      vertex 44.8105 38.4605 0
      vertex 34.5507 31.6355 25.4
      vertex 35.8484 30.7684 25.4
    endloop
  endfacet
  facet normal 0.754916 -0.504419 0.419121
    outer loop
      vertex 36.7155 -29.4707 25.4
      vertex 35.8484 -30.7684 25.4
      vertex 44.8105 -38.4605 0
    endloop
  endfacet
  facet normal 0 0.953971 0.2999
    outer loop
      vertex 41.275 39.925 0
      vertex -33.02 31.94 25.4
      vertex 33.02 31.94 25.4
    endloop
  endfacet
  facet normal 0 0.953971 0.2999
    outer loop
      vertex -33.02 31.94 25.4
      vertex 41.275 39.925 0
      vertex -41.275 39.925 0
    endloop
  endfacet
  facet normal -0.754916 -0.504419 0.419121
    outer loop
      vertex -36.7155 -29.4707 25.4
      vertex -44.8105 -38.4605 0
      vertex -35.8484 -30.7684 25.4
    endloop
  endfacet
  facet normal -0.182872 -0.919319 0.34844
    outer loop
      vertex -34.5507 -31.6355 25.4
      vertex -41.275 -39.925 0
      vertex -33.02 -31.94 25.4
    endloop
  endfacet
  facet normal 0 -0.953971 0.2999
    outer loop
      vertex -41.275 -39.925 0
      vertex 33.02 -31.94 25.4
      vertex -33.02 -31.94 25.4
    endloop
  endfacet
  facet normal 0 -0.953971 0.2999
    outer loop
      vertex 33.02 -31.94 25.4
      vertex -41.275 -39.925 0
      vertex 41.275 -39.925 0
    endloop
  endfacet
  facet normal 0.907147 -0.18045 0.380161
    outer loop
      vertex 46.275 -34.925 0
      vertex 36.7155 -29.4707 25.4
      vertex 45.8944 -36.8384 0
    endloop
  endfacet
  facet normal 0.754917 -0.504419 0.419121
    outer loop
      vertex 45.8944 -36.8384 0
      vertex 36.7155 -29.4707 25.4
      vertex 44.8105 -38.4605 0
    endloop
  endfacet
  facet normal 0.907147 -0.18045 0.380161
    outer loop
      vertex 37.02 -27.94 25.4
      vertex 36.7155 -29.4707 25.4
      vertex 46.275 -34.925 0
    endloop
  endfacet
  facet normal 0.939572 -0 0.342352
    outer loop
      vertex 37.02 -27.94 25.4
      vertex 46.275 34.925 0
      vertex 37.02 27.94 25.4
    endloop
  endfacet
  facet normal 0.939572 0 0.342352
    outer loop
      vertex 46.275 34.925 0
      vertex 37.02 -27.94 25.4
      vertex 46.275 -34.925 0
    endloop
  endfacet
  facet normal -0.507048 0.75885 0.408715
    outer loop
      vertex -34.5507 31.6355 25.4
      vertex -44.8105 38.4605 0
      vertex -35.8484 30.7684 25.4
    endloop
  endfacet
  facet normal -0.182872 0.919319 0.34844
    outer loop
      vertex -33.02 31.94 25.4
      vertex -41.275 39.925 0
      vertex -34.5507 31.6355 25.4
    endloop
  endfacet
  facet normal -0.754917 0.504419 0.419121
    outer loop
      vertex -44.8105 38.4605 0
      vertex -45.8944 36.8384 0
      vertex -36.7155 29.4707 25.4
    endloop
  endfacet
  facet normal -0.907147 0.18045 0.380161
    outer loop
      vertex -45.8944 36.8384 0
      vertex -46.275 34.925 0
      vertex -36.7155 29.4707 25.4
    endloop
  endfacet
  facet normal 0.507047 0.758851 0.408715
    outer loop
      vertex 43.1884 39.5444 0
      vertex 34.5507 31.6355 25.4
      vertex 44.8105 38.4605 0
    endloop
  endfacet
  facet normal 0.182871 0.919319 0.34844
    outer loop
      vertex 41.275 39.925 0
      vertex 34.5507 31.6355 25.4
      vertex 43.1884 39.5444 0
    endloop
  endfacet
  facet normal -0.507048 -0.75885 0.408715
    outer loop
      vertex -35.8484 -30.7684 25.4
      vertex -44.8105 -38.4605 0
      vertex -34.5507 -31.6355 25.4
    endloop
  endfacet
  facet normal 0.507048 -0.75885 0.408715
    outer loop
      vertex 35.8484 -30.7684 25.4
      vertex 34.5507 -31.6355 25.4
      vertex 44.8105 -38.4605 0
    endloop
  endfacet
  facet normal -0.907147 -0.18045 0.380161
    outer loop
      vertex -36.7155 -29.4707 25.4
      vertex -46.275 -34.925 0
      vertex -45.8944 -36.8384 0
    endloop
  endfacet
  facet normal 0 0 -1
    outer loop
      vertex 41.275 -39.925 0
      vertex 46.275 -34.925 0
      vertex 45.8944 -36.8384 0
    endloop
  endfacet
  facet normal -0 0 -1
    outer loop
      vertex 46.275 -34.925 0
      vertex 41.275 -39.925 0
      vertex 46.275 34.925 0
    endloop
  endfacet
  facet normal 0 0 -1
    outer loop
      vertex 41.275 -39.925 0
      vertex 45.8944 -36.8384 0
      vertex 44.8105 -38.4605 0
    endloop
  endfacet
  facet normal 0 0 -1
    outer loop
      vertex 41.275 39.925 0
      vertex 46.275 34.925 0
      vertex 41.275 -39.925 0
    endloop
  endfacet
  facet normal 0 0 -1
    outer loop
      vertex 41.275 -39.925 0
      vertex 44.8105 -38.4605 0
      vertex 43.1884 -39.5444 0
    endloop
  endfacet
  facet normal 0 0 -1
    outer loop
      vertex 46.275 34.925 0
      vertex 41.275 39.925 0
      vertex 45.8944 36.8384 0
    endloop
  endfacet
  facet normal 0 0 -1
    outer loop
      vertex 45.8944 36.8384 0
      vertex 41.275 39.925 0
      vertex 44.8105 38.4605 0
    endloop
  endfacet
  facet normal 0 0 -1
    outer loop
      vertex 44.8105 38.4605 0
      vertex 41.275 39.925 0
      vertex 43.1884 39.5444 0
    endloop
  endfacet
  facet normal 0 0 -1
    outer loop
      vertex -41.275 -39.925 0
      vertex 41.275 39.925 0
      vertex 41.275 -39.925 0
    endloop
  endfacet
  facet normal 0 0 -1
    outer loop
      vertex -41.275 -39.925 0
      vertex -41.275 39.925 0
      vertex 41.275 39.925 0
    endloop
  endfacet
  facet normal 0 0 -1
    outer loop
      vertex -46.275 -34.925 0
      vertex -41.275 -39.925 0
      vertex -43.1884 -39.5444 0
    endloop
  endfacet
  facet normal 0 0 -1
    outer loop
      vertex -41.275 -39.925 0
      vertex -46.275 -34.925 0
      vertex -41.275 39.925 0
    endloop
  endfacet
  facet normal 0 0 -1
    outer loop
      vertex -46.275 -34.925 0
      vertex -43.1884 -39.5444 0
      vertex -44.8105 -38.4605 0
    endloop
  endfacet
  facet normal 0 0 -1
    outer loop
      vertex -46.275 34.925 0
      vertex -41.275 39.925 0
      vertex -46.275 -34.925 0
    endloop
  endfacet
  facet normal 0 0 -1
    outer loop
      vertex -46.275 -34.925 0
      vertex -44.8105 -38.4605 0
      vertex -45.8944 -36.8384 0
    endloop
  endfacet
  facet normal 0 0 -1
    outer loop
      vertex -41.275 39.925 0
      vertex -46.275 34.925 0
      vertex -43.1884 39.5444 0
    endloop
  endfacet
  facet normal 0 0 -1
    outer loop
      vertex -43.1884 39.5444 0
      vertex -46.275 34.925 0
      vertex -44.8105 38.4605 0
    endloop
  endfacet
  facet normal 0 0 -1
    outer loop
      vertex -44.8105 38.4605 0
      vertex -46.275 34.925 0
      vertex -45.8944 36.8384 0
    endloop
  endfacet
  facet normal -0.939572 0 0.342352
    outer loop
      vertex -46.275 34.925 0
      vertex -37.02 -27.94 25.4
      vertex -37.02 27.94 25.4
    endloop
  endfacet
  facet normal -0.939572 0 0.342352
    outer loop
      vertex -37.02 -27.94 25.4
      vertex -46.275 34.925 0
      vertex -46.275 -34.925 0
    endloop
  endfacet
  facet normal -0.907147 -0.18045 0.380161
    outer loop
      vertex -37.02 -27.94 25.4
      vertex -46.275 -34.925 0
      vertex -36.7155 -29.4707 25.4
    endloop
  endfacet
  facet normal -0.754916 0.504419 0.419121
    outer loop
      vertex -35.8484 30.7684 25.4
      vertex -44.8105 38.4605 0
      vertex -36.7155 29.4707 25.4
    endloop
  endfacet
  facet normal 0.182872 0.919319 0.34844
    outer loop
      vertex 41.275 39.925 0
      vertex 33.02 31.94 25.4
      vertex 34.5507 31.6355 25.4
    endloop
  endfacet
  facet normal -0.182871 -0.919319 0.34844
    outer loop
      vertex -34.5507 -31.6355 25.4
      vertex -43.1884 -39.5444 0
      vertex -41.275 -39.925 0
    endloop
  endfacet
  facet normal -0.507047 -0.758851 0.408715
    outer loop
      vertex -34.5507 -31.6355 25.4
      vertex -44.8105 -38.4605 0
      vertex -43.1884 -39.5444 0
    endloop
  endfacet
  facet normal 0.182872 -0.919319 0.34844
    outer loop
      vertex 34.5507 -31.6355 25.4
      vertex 33.02 -31.94 25.4
      vertex 41.275 -39.925 0
    endloop
  endfacet
  facet normal 0.507047 -0.758851 0.408715
    outer loop
      vertex 44.8105 -38.4605 0
      vertex 34.5507 -31.6355 25.4
      vertex 43.1884 -39.5444 0
    endloop
  endfacet
  facet normal -0.182871 0.919319 0.34844
    outer loop
      vertex -41.275 39.925 0
      vertex -43.1884 39.5444 0
      vertex -34.5507 31.6355 25.4
    endloop
  endfacet
  facet normal -0.507047 0.758851 0.408715
    outer loop
      vertex -43.1884 39.5444 0
      vertex -44.8105 38.4605 0
      vertex -34.5507 31.6355 25.4
    endloop
  endfacet
  facet normal 0 0 1
    outer loop
      vertex 9.73125 -6.77706 25.4
      vertex -7.59938 -13.1516 25.4
      vertex -7.3 -16 25.4
    endloop
  endfacet
  facet normal 0 0 1
    outer loop
      vertex 9.73125 -6.77706 25.4
      vertex -8.48443 -10.4277 25.4
      vertex -7.59938 -13.1516 25.4
    endloop
  endfacet
  facet normal 0 0 1
    outer loop
      vertex 6.55625 -0.330888 25.4
      vertex -9.91647 -7.94734 25.4
      vertex -8.48443 -10.4277 25.4
    endloop
  endfacet
  facet normal -0 0 1
    outer loop
      vertex -11.3188 -0.330888 25.4
      vertex -9.91647 -7.94734 25.4
      vertex 6.55625 -0.330888 25.4
    endloop
  endfacet
  facet normal 0 0 1
    outer loop
      vertex -9.91647 -7.94734 25.4
      vertex -11.3188 -0.330888 25.4
      vertex -11.8329 -5.81892 25.4
    endloop
  endfacet
  facet normal 0 0 1
    outer loop
      vertex -16.7665 -2.97052 25.4
      vertex -11.3188 -0.330888 25.4
      vertex -14.4937 2.98483 25.4
    endloop
  endfacet
  facet normal 0 0 1
    outer loop
      vertex -11.3188 -0.330888 25.4
      vertex -16.7665 -2.97052 25.4
      vertex -14.15 -4.13545 25.4
    endloop
  endfacet
  facet normal 0 0 1
    outer loop
      vertex -14.4937 2.98483 25.4
      vertex -19.568 -2.37505 25.4
      vertex -16.7665 -2.97052 25.4
    endloop
  endfacet
  facet normal 0 0 1
    outer loop
      vertex -14.4937 2.98483 25.4
      vertex -22.432 -2.37505 25.4
      vertex -19.568 -2.37505 25.4
    endloop
  endfacet
  facet normal -0 0 1
    outer loop
      vertex -32.3688 2.98483 25.4
      vertex -22.432 -2.37505 25.4
      vertex -14.4937 2.98483 25.4
    endloop
  endfacet
  facet normal 0 0 1
    outer loop
      vertex -22.432 -2.37505 25.4
      vertex -32.3688 2.98483 25.4
      vertex -25.2335 -2.97052 25.4
    endloop
  endfacet
  facet normal 0 0 1
    outer loop
      vertex -25.2335 -2.97052 25.4
      vertex -32.3688 2.98483 25.4
      vertex -27.85 -4.13545 25.4
    endloop
  endfacet
  facet normal 0 0 1
    outer loop
      vertex -32.3688 2.98483 25.4
      vertex -30.1671 -5.81892 25.4
      vertex -27.85 -4.13545 25.4
    endloop
  endfacet
  facet normal 0 0 1
    outer loop
      vertex -32.3688 2.98483 25.4
      vertex -32.0835 -7.94734 25.4
      vertex -30.1671 -5.81892 25.4
    endloop
  endfacet
  facet normal 0 0 1
    outer loop
      vertex -32.3688 2.98483 25.4
      vertex -33.5156 -10.4277 25.4
      vertex -32.0835 -7.94734 25.4
    endloop
  endfacet
  facet normal 0 0 1
    outer loop
      vertex -32.3688 26.5402 25.4
      vertex -37.02 27.94 25.4
      vertex -32.3688 2.98483 25.4
    endloop
  endfacet
  facet normal 0 -0 1
    outer loop
      vertex -34.4006 -13.1516 25.4
      vertex -32.3688 2.98483 25.4
      vertex -37.02 27.94 25.4
    endloop
  endfacet
  facet normal 0 0 1
    outer loop
      vertex -37.02 27.94 25.4
      vertex -33.02 31.94 25.4
      vertex -34.5507 31.6355 25.4
    endloop
  endfacet
  facet normal 0 0 1
    outer loop
      vertex -32.3688 2.98483 25.4
      vertex -34.4006 -13.1516 25.4
      vertex -33.5156 -10.4277 25.4
    endloop
  endfacet
  facet normal 0 0 1
    outer loop
      vertex -37.02 27.94 25.4
      vertex -34.5507 31.6355 25.4
      vertex -35.8484 30.7684 25.4
    endloop
  endfacet
  facet normal 0 0 1
    outer loop
      vertex 32.3687 -6.77706 25.4
      vertex 23.0719 -11.9473 25.4
      vertex 27.1437 -19 25.4
    endloop
  endfacet
  facet normal -0 0 1
    outer loop
      vertex 9.73125 -6.77706 25.4
      vertex 23.0719 -11.9473 25.4
      vertex 32.3687 -6.77706 25.4
    endloop
  endfacet
  facet normal 0 0 1
    outer loop
      vertex 14.9281 -11.9473 25.4
      vertex 9.73125 -6.77706 25.4
      vertex 10.8562 -19 25.4
    endloop
  endfacet
  facet normal 0 0 1
    outer loop
      vertex 23.0719 -11.9473 25.4
      vertex 9.73125 -6.77706 25.4
      vertex 14.9281 -11.9473 25.4
    endloop
  endfacet
  facet normal 0 0 1
    outer loop
      vertex 32.3687 26.7771 25.4
      vertex 37.02 27.94 25.4
      vertex 36.7155 29.4707 25.4
    endloop
  endfacet
  facet normal 0 0 1
    outer loop
      vertex 37.02 27.94 25.4
      vertex 32.3687 -6.77706 25.4
      vertex 37.02 -27.94 25.4
    endloop
  endfacet
  facet normal 0 0 1
    outer loop
      vertex 32.3687 26.7771 25.4
      vertex 36.7155 29.4707 25.4
      vertex 35.8484 30.7684 25.4
    endloop
  endfacet
  facet normal -0 0 1
    outer loop
      vertex 27.1437 -19 25.4
      vertex 37.02 -27.94 25.4
      vertex 32.3687 -6.77706 25.4
    endloop
  endfacet
  facet normal 0 0 1
    outer loop
      vertex 32.3687 26.7771 25.4
      vertex 35.8484 30.7684 25.4
      vertex 34.5507 31.6355 25.4
    endloop
  endfacet
  facet normal 0 -0 1
    outer loop
      vertex 33.02 -31.94 25.4
      vertex 37.02 -27.94 25.4
      vertex 27.1437 -19 25.4
    endloop
  endfacet
  facet normal 0 0 1
    outer loop
      vertex 32.3687 26.7771 25.4
      vertex 34.5507 31.6355 25.4
      vertex 33.02 31.94 25.4
    endloop
  endfacet
  facet normal 0 0 1
    outer loop
      vertex 37.02 -27.94 25.4
      vertex 33.02 -31.94 25.4
      vertex 36.7155 -29.4707 25.4
    endloop
  endfacet
  facet normal 0 0 1
    outer loop
      vertex 37.02 27.94 25.4
      vertex 32.3687 26.7771 25.4
      vertex 32.3687 -6.77706 25.4
    endloop
  endfacet
  facet normal 0 0 1
    outer loop
      vertex 33.02 31.94 25.4
      vertex 9.73125 26.7771 25.4
      vertex 32.3687 26.7771 25.4
    endloop
  endfacet
  facet normal 0 0 1
    outer loop
      vertex 6.55625 -0.330888 25.4
      vertex 9.73125 26.7771 25.4
      vertex 6.55625 26.6809 25.4
    endloop
  endfacet
  facet normal 0 0 1
    outer loop
      vertex 33.02 31.94 25.4
      vertex 6.55625 26.6809 25.4
      vertex 9.73125 26.7771 25.4
    endloop
  endfacet
  facet normal -0 0 1
    outer loop
      vertex -33.02 31.94 25.4
      vertex 6.55625 26.6809 25.4
      vertex 33.02 31.94 25.4
    endloop
  endfacet
  facet normal 0 0 1
    outer loop
      vertex -14.4937 2.98483 25.4
      vertex -11.3188 26.6809 25.4
      vertex -14.4937 26.5402 25.4
    endloop
  endfacet
  facet normal 0 0 1
    outer loop
      vertex -11.3188 -0.330888 25.4
      vertex -14.15 -4.13545 25.4
      vertex -11.8329 -5.81892 25.4
    endloop
  endfacet
  facet normal 0 0 1
    outer loop
      vertex -11.3188 26.6809 25.4
      vertex -14.4937 2.98483 25.4
      vertex -11.3188 -0.330888 25.4
    endloop
  endfacet
  facet normal 0 0 1
    outer loop
      vertex 6.55625 26.6809 25.4
      vertex -33.02 31.94 25.4
      vertex -11.3188 26.6809 25.4
    endloop
  endfacet
  facet normal 0 0 1
    outer loop
      vertex -11.3188 26.6809 25.4
      vertex -33.02 31.94 25.4
      vertex -14.4937 26.5402 25.4
    endloop
  endfacet
  facet normal -0 0 1
    outer loop
      vertex -37.02 27.94 25.4
      vertex -32.3688 26.5402 25.4
      vertex -33.02 31.94 25.4
    endloop
  endfacet
  facet normal 0 0 1
    outer loop
      vertex -14.4937 26.5402 25.4
      vertex -33.02 31.94 25.4
      vertex -32.3688 26.5402 25.4
    endloop
  endfacet
  facet normal 0 0 1
    outer loop
      vertex 36.7155 -29.4707 25.4
      vertex 33.02 -31.94 25.4
      vertex 35.8484 -30.7684 25.4
    endloop
  endfacet
  facet normal 0 0 1
    outer loop
      vertex 35.8484 -30.7684 25.4
      vertex 33.02 -31.94 25.4
      vertex 34.5507 -31.6355 25.4
    endloop
  endfacet
  facet normal -0 0 1
    outer loop
      vertex 23.0719 -26.0527 25.4
      vertex 33.02 -31.94 25.4
      vertex 27.1437 -19 25.4
    endloop
  endfacet
  facet normal -0 0 1
    outer loop
      vertex 14.9281 -26.0527 25.4
      vertex 33.02 -31.94 25.4
      vertex 23.0719 -26.0527 25.4
    endloop
  endfacet
  facet normal 0 0 1
    outer loop
      vertex 9.73125 26.7771 25.4
      vertex 6.55625 -0.330888 25.4
      vertex 9.73125 -6.77706 25.4
    endloop
  endfacet
  facet normal 0 0 1
    outer loop
      vertex -8.48443 -10.4277 25.4
      vertex 9.73125 -6.77706 25.4
      vertex 6.55625 -0.330888 25.4
    endloop
  endfacet
  facet normal 0 0 1
    outer loop
      vertex 9.73125 -6.77706 25.4
      vertex -7.3 -16 25.4
      vertex 10.8562 -19 25.4
    endloop
  endfacet
  facet normal -0 0 1
    outer loop
      vertex -7.59938 -18.8484 25.4
      vertex 10.8562 -19 25.4
      vertex -7.3 -16 25.4
    endloop
  endfacet
  facet normal 0 0 1
    outer loop
      vertex -8.48443 -21.5723 25.4
      vertex 10.8562 -19 25.4
      vertex -7.59938 -18.8484 25.4
    endloop
  endfacet
  facet normal 0 0 1
    outer loop
      vertex 10.8562 -19 25.4
      vertex -8.48443 -21.5723 25.4
      vertex 14.9281 -26.0527 25.4
    endloop
  endfacet
  facet normal -0 0 1
    outer loop
      vertex -9.91647 -24.0527 25.4
      vertex 14.9281 -26.0527 25.4
      vertex -8.48443 -21.5723 25.4
    endloop
  endfacet
  facet normal 0 0 1
    outer loop
      vertex -11.8329 -26.1811 25.4
      vertex 14.9281 -26.0527 25.4
      vertex -9.91647 -24.0527 25.4
    endloop
  endfacet
  facet normal 0 0 1
    outer loop
      vertex -14.15 -27.8645 25.4
      vertex 14.9281 -26.0527 25.4
      vertex -11.8329 -26.1811 25.4
    endloop
  endfacet
  facet normal 0 0 1
    outer loop
      vertex -16.7665 -29.0295 25.4
      vertex 14.9281 -26.0527 25.4
      vertex -14.15 -27.8645 25.4
    endloop
  endfacet
  facet normal 0 0 1
    outer loop
      vertex 14.9281 -26.0527 25.4
      vertex -16.7665 -29.0295 25.4
      vertex 33.02 -31.94 25.4
    endloop
  endfacet
  facet normal -0 0 1
    outer loop
      vertex -19.568 -29.625 25.4
      vertex 33.02 -31.94 25.4
      vertex -16.7665 -29.0295 25.4
    endloop
  endfacet
  facet normal 0 0 1
    outer loop
      vertex -33.02 -31.94 25.4
      vertex -19.568 -29.625 25.4
      vertex -22.432 -29.625 25.4
    endloop
  endfacet
  facet normal 0 0 1
    outer loop
      vertex -19.568 -29.625 25.4
      vertex -33.02 -31.94 25.4
      vertex 33.02 -31.94 25.4
    endloop
  endfacet
  facet normal 0 0 1
    outer loop
      vertex -25.2335 -29.0295 25.4
      vertex -33.02 -31.94 25.4
      vertex -22.432 -29.625 25.4
    endloop
  endfacet
  facet normal 0 0 1
    outer loop
      vertex -27.85 -27.8645 25.4
      vertex -33.02 -31.94 25.4
      vertex -25.2335 -29.0295 25.4
    endloop
  endfacet
  facet normal 0 0 1
    outer loop
      vertex -30.1671 -26.1811 25.4
      vertex -33.02 -31.94 25.4
      vertex -27.85 -27.8645 25.4
    endloop
  endfacet
  facet normal 0 0 1
    outer loop
      vertex -37.02 -27.94 25.4
      vertex -30.1671 -26.1811 25.4
      vertex -32.0835 -24.0527 25.4
    endloop
  endfacet
  facet normal 0 0 1
    outer loop
      vertex -37.02 -27.94 25.4
      vertex -32.0835 -24.0527 25.4
      vertex -33.5156 -21.5723 25.4
    endloop
  endfacet
  facet normal 0 0 1
    outer loop
      vertex -37.02 -27.94 25.4
      vertex -33.5156 -21.5723 25.4
      vertex -34.4006 -18.8484 25.4
    endloop
  endfacet
  facet normal 0 -0 1
    outer loop
      vertex -36.7155 -29.4707 25.4
      vertex -30.1671 -26.1811 25.4
      vertex -37.02 -27.94 25.4
    endloop
  endfacet
  facet normal 0 0 1
    outer loop
      vertex -37.02 -27.94 25.4
      vertex -34.4006 -18.8484 25.4
      vertex -34.7 -16 25.4
    endloop
  endfacet
  facet normal 0 0 1
    outer loop
      vertex -37.02 -27.94 25.4
      vertex -34.4006 -13.1516 25.4
      vertex -37.02 27.94 25.4
    endloop
  endfacet
  facet normal 0 0 1
    outer loop
      vertex -34.4006 -13.1516 25.4
      vertex -37.02 -27.94 25.4
      vertex -34.7 -16 25.4
    endloop
  endfacet
  facet normal 0 0 1
    outer loop
      vertex -37.02 27.94 25.4
      vertex -35.8484 30.7684 25.4
      vertex -36.7155 29.4707 25.4
    endloop
  endfacet
  facet normal 0 0 1
    outer loop
      vertex -30.1671 -26.1811 25.4
      vertex -34.5507 -31.6355 25.4
      vertex -33.02 -31.94 25.4
    endloop
  endfacet
  facet normal 0 0 1
    outer loop
      vertex -30.1671 -26.1811 25.4
      vertex -35.8484 -30.7684 25.4
      vertex -34.5507 -31.6355 25.4
    endloop
  endfacet
  facet normal 0 0 1
    outer loop
      vertex -30.1671 -26.1811 25.4
      vertex -36.7155 -29.4707 25.4
      vertex -35.8484 -30.7684 25.4
    endloop
  endfacet
  facet normal -0.907147 0.18045 0.380161
    outer loop
      vertex -36.7155 29.4707 25.4
      vertex -46.275 34.925 0
      vertex -37.02 27.94 25.4
    endloop
  endfacet
  facet normal 0.182871 -0.919319 0.34844
    outer loop
      vertex 43.1884 -39.5444 0
      vertex 34.5507 -31.6355 25.4
      vertex 41.275 -39.925 0
    endloop
  endfacet
  facet normal -0.994522 -0.104529 0
    outer loop
      vertex -7.3 -16 6.35
      vertex -7.59938 -13.1516 25.4
      vertex -7.59938 -13.1516 6.35
    endloop
  endfacet
  facet normal -0.994522 -0.104529 0
    outer loop
      vertex -7.59938 -13.1516 25.4
      vertex -7.3 -16 6.35
      vertex -7.3 -16 25.4
    endloop
  endfacet
  facet normal 0.994522 -0.10453 0
    outer loop
      vertex -34.7 -16 25.4
      vertex -34.4006 -13.1516 6.35
      vertex -34.4006 -13.1516 25.4
    endloop
  endfacet
  facet normal 0.994522 -0.10453 0
    outer loop
      vertex -34.4006 -13.1516 6.35
      vertex -34.7 -16 25.4
      vertex -34.7 -16 6.35
    endloop
  endfacet
  facet normal 0 -1 0
    outer loop
      vertex -22.432 -2.37505 6.35
      vertex -19.568 -2.37505 25.4
      vertex -22.432 -2.37505 25.4
    endloop
  endfacet
  facet normal 0 -1 -0
    outer loop
      vertex -19.568 -2.37505 25.4
      vertex -22.432 -2.37505 6.35
      vertex -19.568 -2.37505 6.35
    endloop
  endfacet
  facet normal 0 1 -0
    outer loop
      vertex -19.568 -29.625 6.35
      vertex -22.432 -29.625 25.4
      vertex -19.568 -29.625 25.4
    endloop
  endfacet
  facet normal 0 1 0
    outer loop
      vertex -22.432 -29.625 25.4
      vertex -19.568 -29.625 6.35
      vertex -22.432 -29.625 6.35
    endloop
  endfacet
  facet normal -0.587785 -0.809017 0
    outer loop
      vertex -14.15 -4.13545 6.35
      vertex -11.8329 -5.81892 25.4
      vertex -14.15 -4.13545 25.4
    endloop
  endfacet
  facet normal -0.587785 -0.809017 -0
    outer loop
      vertex -11.8329 -5.81892 25.4
      vertex -14.15 -4.13545 6.35
      vertex -11.8329 -5.81892 6.35
    endloop
  endfacet
  facet normal -0.406737 -0.913545 0
    outer loop
      vertex -16.7665 -2.97052 6.35
      vertex -14.15 -4.13545 25.4
      vertex -16.7665 -2.97052 25.4
    endloop
  endfacet
  facet normal -0.406737 -0.913545 -0
    outer loop
      vertex -14.15 -4.13545 25.4
      vertex -16.7665 -2.97052 6.35
      vertex -14.15 -4.13545 6.35
    endloop
  endfacet
  facet normal 0.587785 -0.809017 0
    outer loop
      vertex -30.1671 -5.81892 6.35
      vertex -27.85 -4.13545 25.4
      vertex -30.1671 -5.81892 25.4
    endloop
  endfacet
  facet normal 0.587785 -0.809017 0
    outer loop
      vertex -27.85 -4.13545 25.4
      vertex -30.1671 -5.81892 6.35
      vertex -27.85 -4.13545 6.35
    endloop
  endfacet
  facet normal 0.207912 -0.978148 0
    outer loop
      vertex -25.2335 -2.97052 6.35
      vertex -22.432 -2.37505 25.4
      vertex -25.2335 -2.97052 25.4
    endloop
  endfacet
  facet normal 0.207912 -0.978148 0
    outer loop
      vertex -22.432 -2.37505 25.4
      vertex -25.2335 -2.97052 6.35
      vertex -22.432 -2.37505 6.35
    endloop
  endfacet
  facet normal -0.866025 -0.5 0
    outer loop
      vertex -8.48443 -10.4277 6.35
      vertex -9.91647 -7.94734 25.4
      vertex -9.91647 -7.94734 6.35
    endloop
  endfacet
  facet normal -0.866025 -0.5 0
    outer loop
      vertex -9.91647 -7.94734 25.4
      vertex -8.48443 -10.4277 6.35
      vertex -8.48443 -10.4277 25.4
    endloop
  endfacet
  facet normal -0.951057 -0.309017 0
    outer loop
      vertex -7.59938 -13.1516 6.35
      vertex -8.48443 -10.4277 25.4
      vertex -8.48443 -10.4277 6.35
    endloop
  endfacet
  facet normal -0.951057 -0.309017 0
    outer loop
      vertex -8.48443 -10.4277 25.4
      vertex -7.59938 -13.1516 6.35
      vertex -7.59938 -13.1516 25.4
    endloop
  endfacet
  facet normal -0.743145 -0.669131 0
    outer loop
      vertex -9.91647 -7.94734 6.35
      vertex -11.8329 -5.81892 25.4
      vertex -11.8329 -5.81892 6.35
    endloop
  endfacet
  facet normal -0.743145 -0.669131 0
    outer loop
      vertex -11.8329 -5.81892 25.4
      vertex -9.91647 -7.94734 6.35
      vertex -9.91647 -7.94734 25.4
    endloop
  endfacet
  facet normal -0.207912 -0.978148 0
    outer loop
      vertex -19.568 -2.37505 6.35
      vertex -16.7665 -2.97052 25.4
      vertex -19.568 -2.37505 25.4
    endloop
  endfacet
  facet normal -0.207912 -0.978148 -0
    outer loop
      vertex -16.7665 -2.97052 25.4
      vertex -19.568 -2.37505 6.35
      vertex -16.7665 -2.97052 6.35
    endloop
  endfacet
  facet normal 0.866026 -0.499999 0
    outer loop
      vertex -33.5156 -10.4277 25.4
      vertex -32.0835 -7.94734 6.35
      vertex -32.0835 -7.94734 25.4
    endloop
  endfacet
  facet normal 0.866026 -0.499999 0
    outer loop
      vertex -32.0835 -7.94734 6.35
      vertex -33.5156 -10.4277 25.4
      vertex -33.5156 -10.4277 6.35
    endloop
  endfacet
  facet normal 0.743144 -0.669131 0
    outer loop
      vertex -32.0835 -7.94734 25.4
      vertex -30.1671 -5.81892 6.35
      vertex -30.1671 -5.81892 25.4
    endloop
  endfacet
  facet normal 0.743144 -0.669131 0
    outer loop
      vertex -30.1671 -5.81892 6.35
      vertex -32.0835 -7.94734 25.4
      vertex -32.0835 -7.94734 6.35
    endloop
  endfacet
  facet normal 0.951057 -0.309017 0
    outer loop
      vertex -34.4006 -13.1516 25.4
      vertex -33.5156 -10.4277 6.35
      vertex -33.5156 -10.4277 25.4
    endloop
  endfacet
  facet normal 0.951057 -0.309017 0
    outer loop
      vertex -33.5156 -10.4277 6.35
      vertex -34.4006 -13.1516 25.4
      vertex -34.4006 -13.1516 6.35
    endloop
  endfacet
  facet normal 0.406737 -0.913545 0
    outer loop
      vertex -27.85 -4.13545 6.35
      vertex -25.2335 -2.97052 25.4
      vertex -27.85 -4.13545 25.4
    endloop
  endfacet
  facet normal 0.406737 -0.913545 0
    outer loop
      vertex -25.2335 -2.97052 25.4
      vertex -27.85 -4.13545 6.35
      vertex -25.2335 -2.97052 6.35
    endloop
  endfacet
  facet normal -0.994522 0.104529 0
    outer loop
      vertex -7.59938 -18.8484 6.35
      vertex -7.3 -16 25.4
      vertex -7.3 -16 6.35
    endloop
  endfacet
  facet normal -0.994522 0.104529 0
    outer loop
      vertex -7.3 -16 25.4
      vertex -7.59938 -18.8484 6.35
      vertex -7.59938 -18.8484 25.4
    endloop
  endfacet
  facet normal 0 0 1
    outer loop
      vertex -7.59938 -13.1516 6.35
      vertex -7.59938 -18.8484 6.35
      vertex -7.3 -16 6.35
    endloop
  endfacet
  facet normal 0 0 1
    outer loop
      vertex -8.48443 -10.4277 6.35
      vertex -7.59938 -18.8484 6.35
      vertex -7.59938 -13.1516 6.35
    endloop
  endfacet
  facet normal 0 0 1
    outer loop
      vertex -8.48443 -10.4277 6.35
      vertex -8.48443 -21.5723 6.35
      vertex -7.59938 -18.8484 6.35
    endloop
  endfacet
  facet normal 0 0 1
    outer loop
      vertex -9.91647 -7.94734 6.35
      vertex -8.48443 -21.5723 6.35
      vertex -8.48443 -10.4277 6.35
    endloop
  endfacet
  facet normal 0 0 1
    outer loop
      vertex -9.91647 -7.94734 6.35
      vertex -9.91647 -24.0527 6.35
      vertex -8.48443 -21.5723 6.35
    endloop
  endfacet
  facet normal 0 0 1
    outer loop
      vertex -11.8329 -5.81892 6.35
      vertex -9.91647 -24.0527 6.35
      vertex -9.91647 -7.94734 6.35
    endloop
  endfacet
  facet normal 0 0 1
    outer loop
      vertex -11.8329 -5.81892 6.35
      vertex -11.8329 -26.1811 6.35
      vertex -9.91647 -24.0527 6.35
    endloop
  endfacet
  facet normal 0 0 1
    outer loop
      vertex -14.15 -4.13545 6.35
      vertex -11.8329 -26.1811 6.35
      vertex -11.8329 -5.81892 6.35
    endloop
  endfacet
  facet normal 0 0 1
    outer loop
      vertex -14.15 -4.13545 6.35
      vertex -14.15 -27.8645 6.35
      vertex -11.8329 -26.1811 6.35
    endloop
  endfacet
  facet normal 0 0 1
    outer loop
      vertex -16.7665 -2.97052 6.35
      vertex -14.15 -27.8645 6.35
      vertex -14.15 -4.13545 6.35
    endloop
  endfacet
  facet normal 0 0 1
    outer loop
      vertex -16.7665 -2.97052 6.35
      vertex -16.7665 -29.0295 6.35
      vertex -14.15 -27.8645 6.35
    endloop
  endfacet
  facet normal 0 0 1
    outer loop
      vertex -19.568 -2.37505 6.35
      vertex -16.7665 -29.0295 6.35
      vertex -16.7665 -2.97052 6.35
    endloop
  endfacet
  facet normal 0 0 1
    outer loop
      vertex -19.568 -2.37505 6.35
      vertex -19.568 -29.625 6.35
      vertex -16.7665 -29.0295 6.35
    endloop
  endfacet
  facet normal -0 0 1
    outer loop
      vertex -22.432 -2.37505 6.35
      vertex -19.568 -29.625 6.35
      vertex -19.568 -2.37505 6.35
    endloop
  endfacet
  facet normal 0 0 1
    outer loop
      vertex -22.432 -2.37505 6.35
      vertex -22.432 -29.625 6.35
      vertex -19.568 -29.625 6.35
    endloop
  endfacet
  facet normal -0 0 1
    outer loop
      vertex -25.2335 -2.97052 6.35
      vertex -22.432 -29.625 6.35
      vertex -22.432 -2.37505 6.35
    endloop
  endfacet
  facet normal 0 0 1
    outer loop
      vertex -25.2335 -2.97052 6.35
      vertex -25.2335 -29.0295 6.35
      vertex -22.432 -29.625 6.35
    endloop
  endfacet
  facet normal -0 0 1
    outer loop
      vertex -27.85 -4.13545 6.35
      vertex -25.2335 -29.0295 6.35
      vertex -25.2335 -2.97052 6.35
    endloop
  endfacet
  facet normal 0 0 1
    outer loop
      vertex -27.85 -4.13545 6.35
      vertex -27.85 -27.8645 6.35
      vertex -25.2335 -29.0295 6.35
    endloop
  endfacet
  facet normal -0 0 1
    outer loop
      vertex -30.1671 -5.81892 6.35
      vertex -27.85 -27.8645 6.35
      vertex -27.85 -4.13545 6.35
    endloop
  endfacet
  facet normal 0 0 1
    outer loop
      vertex -30.1671 -5.81892 6.35
      vertex -30.1671 -26.1811 6.35
      vertex -27.85 -27.8645 6.35
    endloop
  endfacet
  facet normal -0 0 1
    outer loop
      vertex -32.0835 -7.94734 6.35
      vertex -30.1671 -26.1811 6.35
      vertex -30.1671 -5.81892 6.35
    endloop
  endfacet
  facet normal 0 0 1
    outer loop
      vertex -32.0835 -7.94734 6.35
      vertex -32.0835 -24.0527 6.35
      vertex -30.1671 -26.1811 6.35
    endloop
  endfacet
  facet normal -0 0 1
    outer loop
      vertex -33.5156 -10.4277 6.35
      vertex -32.0835 -24.0527 6.35
      vertex -32.0835 -7.94734 6.35
    endloop
  endfacet
  facet normal 0 0 1
    outer loop
      vertex -33.5156 -10.4277 6.35
      vertex -33.5156 -21.5723 6.35
      vertex -32.0835 -24.0527 6.35
    endloop
  endfacet
  facet normal -0 0 1
    outer loop
      vertex -34.4006 -13.1516 6.35
      vertex -33.5156 -21.5723 6.35
      vertex -33.5156 -10.4277 6.35
    endloop
  endfacet
  facet normal 0 0 1
    outer loop
      vertex -34.4006 -13.1516 6.35
      vertex -34.4006 -18.8484 6.35
      vertex -33.5156 -21.5723 6.35
    endloop
  endfacet
  facet normal 0 -0 1
    outer loop
      vertex -34.4006 -18.8484 6.35
      vertex -34.4006 -13.1516 6.35
      vertex -34.7 -16 6.35
    endloop
  endfacet
  facet normal -0.207912 0.978148 0
    outer loop
      vertex -16.7665 -29.0295 6.35
      vertex -19.568 -29.625 25.4
      vertex -16.7665 -29.0295 25.4
    endloop
  endfacet
  facet normal -0.207912 0.978148 0
    outer loop
      vertex -19.568 -29.625 25.4
      vertex -16.7665 -29.0295 6.35
      vertex -19.568 -29.625 6.35
    endloop
  endfacet
  facet normal -0.743145 0.669131 0
    outer loop
      vertex -11.8329 -26.1811 6.35
      vertex -9.91647 -24.0527 25.4
      vertex -9.91647 -24.0527 6.35
    endloop
  endfacet
  facet normal -0.743145 0.669131 0
    outer loop
      vertex -9.91647 -24.0527 25.4
      vertex -11.8329 -26.1811 6.35
      vertex -11.8329 -26.1811 25.4
    endloop
  endfacet
  facet normal -0.951057 0.309017 0
    outer loop
      vertex -8.48443 -21.5723 6.35
      vertex -7.59938 -18.8484 25.4
      vertex -7.59938 -18.8484 6.35
    endloop
  endfacet
  facet normal -0.951057 0.309017 0
    outer loop
      vertex -7.59938 -18.8484 25.4
      vertex -8.48443 -21.5723 6.35
      vertex -8.48443 -21.5723 25.4
    endloop
  endfacet
  facet normal -0.866025 0.5 0
    outer loop
      vertex -9.91647 -24.0527 6.35
      vertex -8.48443 -21.5723 25.4
      vertex -8.48443 -21.5723 6.35
    endloop
  endfacet
  facet normal -0.866025 0.5 0
    outer loop
      vertex -8.48443 -21.5723 25.4
      vertex -9.91647 -24.0527 6.35
      vertex -9.91647 -24.0527 25.4
    endloop
  endfacet
  facet normal 0.406737 0.913545 -0
    outer loop
      vertex -25.2335 -29.0295 6.35
      vertex -27.85 -27.8645 25.4
      vertex -25.2335 -29.0295 25.4
    endloop
  endfacet
  facet normal 0.406737 0.913545 0
    outer loop
      vertex -27.85 -27.8645 25.4
      vertex -25.2335 -29.0295 6.35
      vertex -27.85 -27.8645 6.35
    endloop
  endfacet
  facet normal 0.866026 0.499999 0
    outer loop
      vertex -32.0835 -24.0527 25.4
      vertex -33.5156 -21.5723 6.35
      vertex -33.5156 -21.5723 25.4
    endloop
  endfacet
  facet normal 0.866026 0.499999 0
    outer loop
      vertex -33.5156 -21.5723 6.35
      vertex -32.0835 -24.0527 25.4
      vertex -32.0835 -24.0527 6.35
    endloop
  endfacet
  facet normal -0.587785 0.809017 0
    outer loop
      vertex -11.8329 -26.1811 6.35
      vertex -14.15 -27.8645 25.4
      vertex -11.8329 -26.1811 25.4
    endloop
  endfacet
  facet normal -0.587785 0.809017 0
    outer loop
      vertex -14.15 -27.8645 25.4
      vertex -11.8329 -26.1811 6.35
      vertex -14.15 -27.8645 6.35
    endloop
  endfacet
  facet normal -0.406737 0.913545 0
    outer loop
      vertex -14.15 -27.8645 6.35
      vertex -16.7665 -29.0295 25.4
      vertex -14.15 -27.8645 25.4
    endloop
  endfacet
  facet normal -0.406737 0.913545 0
    outer loop
      vertex -16.7665 -29.0295 25.4
      vertex -14.15 -27.8645 6.35
      vertex -16.7665 -29.0295 6.35
    endloop
  endfacet
  facet normal 0.207912 0.978148 -0
    outer loop
      vertex -22.432 -29.625 6.35
      vertex -25.2335 -29.0295 25.4
      vertex -22.432 -29.625 25.4
    endloop
  endfacet
  facet normal 0.207912 0.978148 0
    outer loop
      vertex -25.2335 -29.0295 25.4
      vertex -22.432 -29.625 6.35
      vertex -25.2335 -29.0295 6.35
    endloop
  endfacet
  facet normal 0.587785 0.809017 -0
    outer loop
      vertex -27.85 -27.8645 6.35
      vertex -30.1671 -26.1811 25.4
      vertex -27.85 -27.8645 25.4
    endloop
  endfacet
  facet normal 0.587785 0.809017 0
    outer loop
      vertex -30.1671 -26.1811 25.4
      vertex -27.85 -27.8645 6.35
      vertex -30.1671 -26.1811 6.35
    endloop
  endfacet
  facet normal 0.743144 0.669131 0
    outer loop
      vertex -30.1671 -26.1811 25.4
      vertex -32.0835 -24.0527 6.35
      vertex -32.0835 -24.0527 25.4
    endloop
  endfacet
  facet normal 0.743144 0.669131 0
    outer loop
      vertex -32.0835 -24.0527 6.35
      vertex -30.1671 -26.1811 25.4
      vertex -30.1671 -26.1811 6.35
    endloop
  endfacet
  facet normal 0.951057 0.309016 0
    outer loop
      vertex -33.5156 -21.5723 25.4
      vertex -34.4006 -18.8484 6.35
      vertex -34.4006 -18.8484 25.4
    endloop
  endfacet
  facet normal 0.951057 0.309016 0
    outer loop
      vertex -34.4006 -18.8484 6.35
      vertex -33.5156 -21.5723 25.4
      vertex -33.5156 -21.5723 6.35
    endloop
  endfacet
  facet normal 0.994522 0.10453 0
    outer loop
      vertex -34.4006 -18.8484 25.4
      vertex -34.7 -16 6.35
      vertex -34.7 -16 25.4
    endloop
  endfacet
  facet normal 0.994522 0.10453 0
    outer loop
      vertex -34.7 -16 6.35
      vertex -34.4006 -18.8484 25.4
      vertex -34.4006 -18.8484 6.35
    endloop
  endfacet
  facet normal -0.866025 -0.5 0
    outer loop
      vertex 27.1437 -19 6.35
      vertex 23.0719 -11.9473 25.4
      vertex 23.0719 -11.9473 6.35
    endloop
  endfacet
  facet normal -0.866025 -0.5 0
    outer loop
      vertex 23.0719 -11.9473 25.4
      vertex 27.1437 -19 6.35
      vertex 27.1437 -19 25.4
    endloop
  endfacet
  facet normal 0.866025 -0.5 0
    outer loop
      vertex 10.8562 -19 25.4
      vertex 14.9281 -11.9473 6.35
      vertex 14.9281 -11.9473 25.4
    endloop
  endfacet
  facet normal 0.866025 -0.5 0
    outer loop
      vertex 14.9281 -11.9473 6.35
      vertex 10.8562 -19 25.4
      vertex 10.8562 -19 6.35
    endloop
  endfacet
  facet normal 0 -1 0
    outer loop
      vertex 14.9281 -11.9473 6.35
      vertex 23.0719 -11.9473 25.4
      vertex 14.9281 -11.9473 25.4
    endloop
  endfacet
  facet normal 0 -1 -0
    outer loop
      vertex 23.0719 -11.9473 25.4
      vertex 14.9281 -11.9473 6.35
      vertex 23.0719 -11.9473 6.35
    endloop
  endfacet
  facet normal 0.866025 0.5 0
    outer loop
      vertex 14.9281 -26.0527 25.4
      vertex 10.8562 -19 6.35
      vertex 10.8562 -19 25.4
    endloop
  endfacet
  facet normal 0.866025 0.5 0
    outer loop
      vertex 10.8562 -19 6.35
      vertex 14.9281 -26.0527 25.4
      vertex 14.9281 -26.0527 6.35
    endloop
  endfacet
  facet normal -0.866025 0.5 0
    outer loop
      vertex 23.0719 -26.0527 6.35
      vertex 27.1437 -19 25.4
      vertex 27.1437 -19 6.35
    endloop
  endfacet
  facet normal -0.866025 0.5 0
    outer loop
      vertex 27.1437 -19 25.4
      vertex 23.0719 -26.0527 6.35
      vertex 23.0719 -26.0527 25.4
    endloop
  endfacet
  facet normal 0 0 1
    outer loop
      vertex 23.0719 -11.9473 6.35
      vertex 23.0719 -26.0527 6.35
      vertex 27.1437 -19 6.35
    endloop
  endfacet
  facet normal -0 0 1
    outer loop
      vertex 14.9281 -11.9473 6.35
      vertex 23.0719 -26.0527 6.35
      vertex 23.0719 -11.9473 6.35
    endloop
  endfacet
  facet normal 0 0 1
    outer loop
      vertex 14.9281 -11.9473 6.35
      vertex 14.9281 -26.0527 6.35
      vertex 23.0719 -26.0527 6.35
    endloop
  endfacet
  facet normal 0 -0 1
    outer loop
      vertex 14.9281 -26.0527 6.35
      vertex 14.9281 -11.9473 6.35
      vertex 10.8562 -19 6.35
    endloop
  endfacet
  facet normal 0 1 -0
    outer loop
      vertex 23.0719 -26.0527 6.35
      vertex 14.9281 -26.0527 25.4
      vertex 23.0719 -26.0527 25.4
    endloop
  endfacet
  facet normal 0 1 0
    outer loop
      vertex 14.9281 -26.0527 25.4
      vertex 23.0719 -26.0527 6.35
      vertex 14.9281 -26.0527 6.35
    endloop
  endfacet
endsolid OpenSCAD_Model
