solid OpenSCAD_Model
  facet normal 0.866025 0.5 0
    outer loop
      vertex 15.6699 -27.5 25.4
      vertex 11.3397 -20 3.175
      vertex 11.3397 -20 25.4
    endloop
  endfacet
  facet normal 0.866025 0.5 0
    outer loop
      vertex 11.3397 -20 3.175
      vertex 15.6699 -27.5 25.4
      vertex 15.6699 -27.5 3.175
    endloop
  endfacet
  facet normal -0.866025 -0.5 0
    outer loop
      vertex 28.6603 -20 3.175
      vertex 24.3301 -12.5 25.4
      vertex 24.3301 -12.5 3.175
    endloop
  endfacet
  facet normal -0.866025 -0.5 0
    outer loop
      vertex 24.3301 -12.5 25.4
      vertex 28.6603 -20 3.175
      vertex 28.6603 -20 25.4
    endloop
  endfacet
  facet normal 0 0 1
    outer loop
      vertex 24.3301 -12.5 3.175
      vertex 24.3301 -27.5 3.175
      vertex 28.6603 -20 3.175
    endloop
  endfacet
  facet normal -0 0 1
    outer loop
      vertex 15.6699 -12.5 3.175
      vertex 24.3301 -27.5 3.175
      vertex 24.3301 -12.5 3.175
    endloop
  endfacet
  facet normal 0 0 1
    outer loop
      vertex 15.6699 -12.5 3.175
      vertex 15.6699 -27.5 3.175
      vertex 24.3301 -27.5 3.175
    endloop
  endfacet
  facet normal 0 -0 1
    outer loop
      vertex 15.6699 -27.5 3.175
      vertex 15.6699 -12.5 3.175
      vertex 11.3397 -20 3.175
    endloop
  endfacet
  facet normal 0 -1 0
    outer loop
      vertex 15.6699 -12.5 3.175
      vertex 24.3301 -12.5 25.4
      vertex 15.6699 -12.5 25.4
    endloop
  endfacet
  facet normal 0 -1 -0
    outer loop
      vertex 24.3301 -12.5 25.4
      vertex 15.6699 -12.5 3.175
      vertex 24.3301 -12.5 3.175
    endloop
  endfacet
  facet normal 0 1 -0
    outer loop
      vertex 24.3301 -27.5 3.175
      vertex 15.6699 -27.5 25.4
      vertex 24.3301 -27.5 25.4
    endloop
  endfacet
  facet normal 0 1 0
    outer loop
      vertex 15.6699 -27.5 25.4
      vertex 24.3301 -27.5 3.175
      vertex 15.6699 -27.5 3.175
    endloop
  endfacet
  facet normal 0.866025 -0.5 0
    outer loop
      vertex 11.3397 -20 25.4
      vertex 15.6699 -12.5 3.175
      vertex 15.6699 -12.5 25.4
    endloop
  endfacet
  facet normal 0.866025 -0.5 0
    outer loop
      vertex 15.6699 -12.5 3.175
      vertex 11.3397 -20 25.4
      vertex 11.3397 -20 3.175
    endloop
  endfacet
  facet normal -0.866025 0.5 0
    outer loop
      vertex 24.3301 -27.5 3.175
      vertex 28.6603 -20 25.4
      vertex 28.6603 -20 3.175
    endloop
  endfacet
  facet normal -0.866025 0.5 0
    outer loop
      vertex 28.6603 -20 25.4
      vertex 24.3301 -27.5 3.175
      vertex 24.3301 -27.5 25.4
    endloop
  endfacet
  facet normal 0 -0.104528 0.994522
    outer loop
      vertex -32.3688 19.403 17.5775
      vertex -14.4937 16.7625 17.3
      vertex -14.4937 19.403 17.5775
    endloop
  endfacet
  facet normal -1.0612e-07 -0.104529 0.994522
    outer loop
      vertex -14.4937 16.7625 17.3
      vertex -32.3688 19.403 17.5775
      vertex -32.3688 16.7625 17.3
    endloop
  endfacet
  facet normal 0 -0.809017 0.587785
    outer loop
      vertex -32.3688 27.761 23.65
      vertex -14.4937 26.2004 21.502
      vertex -14.4937 27.761 23.65
    endloop
  endfacet
  facet normal -6.27195e-08 -0.809017 0.587785
    outer loop
      vertex -14.4937 26.2004 21.502
      vertex -32.3688 27.761 23.65
      vertex -32.3688 26.2004 21.502
    endloop
  endfacet
  facet normal 1 0 0
    outer loop
      vertex -32.3688 28.5402 25.4
      vertex -32.3688 26.2004 21.502
      vertex -32.3688 27.761 23.65
    endloop
  endfacet
  facet normal 1 0 0
    outer loop
      vertex -32.3688 28.5402 25.4
      vertex -32.3688 24.2274 19.7255
      vertex -32.3688 26.2004 21.502
    endloop
  endfacet
  facet normal 1 0 0
    outer loop
      vertex -32.3688 28.5402 25.4
      vertex -32.3688 21.9281 18.398
      vertex -32.3688 24.2274 19.7255
    endloop
  endfacet
  facet normal 1 0 0
    outer loop
      vertex -32.3688 28.5402 25.4
      vertex -32.3688 19.403 17.5775
      vertex -32.3688 21.9281 18.398
    endloop
  endfacet
  facet normal 1 0 0
    outer loop
      vertex -32.3688 28.5402 25.4
      vertex -32.3688 16.7625 17.3
      vertex -32.3688 19.403 17.5775
    endloop
  endfacet
  facet normal 1 0 0
    outer loop
      vertex -32.3688 28.5402 25.4
      vertex -32.3688 14.122 17.5775
      vertex -32.3688 16.7625 17.3
    endloop
  endfacet
  facet normal 1 0 0
    outer loop
      vertex -32.3688 28.5402 25.4
      vertex -32.3688 11.5969 18.398
      vertex -32.3688 14.122 17.5775
    endloop
  endfacet
  facet normal 1 0 0
    outer loop
      vertex -32.3688 28.5402 25.4
      vertex -32.3688 9.29763 19.7255
      vertex -32.3688 11.5969 18.398
    endloop
  endfacet
  facet normal 1 -0 0
    outer loop
      vertex -32.3688 4.98483 25.4
      vertex -32.3688 9.29763 19.7255
      vertex -32.3688 28.5402 25.4
    endloop
  endfacet
  facet normal 1 0 0
    outer loop
      vertex -32.3688 9.29763 19.7255
      vertex -32.3688 4.98483 25.4
      vertex -32.3688 7.32456 21.502
    endloop
  endfacet
  facet normal 1 0 0
    outer loop
      vertex -32.3688 7.32456 21.502
      vertex -32.3688 4.98483 25.4
      vertex -32.3688 5.76398 23.65
    endloop
  endfacet
  facet normal 0 -0.5 0.866025
    outer loop
      vertex -32.3688 24.2274 19.7255
      vertex -14.4937 21.9281 18.398
      vertex -14.4937 24.2274 19.7255
    endloop
  endfacet
  facet normal -9.2409e-08 -0.500001 0.866025
    outer loop
      vertex -14.4937 21.9281 18.398
      vertex -32.3688 24.2274 19.7255
      vertex -32.3688 21.9281 18.398
    endloop
  endfacet
  facet normal -1.01482e-07 -0.309017 0.951056
    outer loop
      vertex -32.3688 21.9281 18.398
      vertex -14.4937 19.403 17.5775
      vertex -14.4937 21.9281 18.398
    endloop
  endfacet
  facet normal 0 -0.309016 0.951057
    outer loop
      vertex -14.4937 19.403 17.5775
      vertex -32.3688 21.9281 18.398
      vertex -32.3688 19.403 17.5775
    endloop
  endfacet
  facet normal -7.92971e-08 -0.66913 0.743145
    outer loop
      vertex -32.3688 26.2004 21.502
      vertex -14.4937 24.2274 19.7255
      vertex -14.4937 26.2004 21.502
    endloop
  endfacet
  facet normal 0 -0.66913 0.743145
    outer loop
      vertex -14.4937 24.2274 19.7255
      vertex -32.3688 26.2004 21.502
      vertex -32.3688 24.2274 19.7255
    endloop
  endfacet
  facet normal 0 -0.913545 0.406737
    outer loop
      vertex -32.3688 27.761 23.65
      vertex -14.4937 28.5402 25.4
      vertex -32.3688 28.5402 25.4
    endloop
  endfacet
  facet normal 0 -0.913545 0.406737
    outer loop
      vertex -14.4937 28.5402 25.4
      vertex -32.3688 27.761 23.65
      vertex -14.4937 27.761 23.65
    endloop
  endfacet
  facet normal -1.0612e-07 0.104528 0.994522
    outer loop
      vertex -32.3688 16.7625 17.3
      vertex -14.4937 14.122 17.5775
      vertex -14.4937 16.7625 17.3
    endloop
  endfacet
  facet normal 0 0.104529 0.994522
    outer loop
      vertex -14.4937 14.122 17.5775
      vertex -32.3688 16.7625 17.3
      vertex -32.3688 14.122 17.5775
    endloop
  endfacet
  facet normal 0 0.809017 0.587785
    outer loop
      vertex -14.4937 7.32456 21.502
      vertex -32.3688 5.76398 23.65
      vertex -14.4937 5.76398 23.65
    endloop
  endfacet
  facet normal -6.27195e-08 0.809017 0.587785
    outer loop
      vertex -32.3688 5.76398 23.65
      vertex -14.4937 7.32456 21.502
      vertex -32.3688 7.32456 21.502
    endloop
  endfacet
  facet normal -1 0 0
    outer loop
      vertex -14.4937 26.2004 21.502
      vertex -14.4937 28.5402 25.4
      vertex -14.4937 27.761 23.65
    endloop
  endfacet
  facet normal -1 0 0
    outer loop
      vertex -14.4937 24.2274 19.7255
      vertex -14.4937 28.5402 25.4
      vertex -14.4937 26.2004 21.502
    endloop
  endfacet
  facet normal -1 0 0
    outer loop
      vertex -14.4937 21.9281 18.398
      vertex -14.4937 28.5402 25.4
      vertex -14.4937 24.2274 19.7255
    endloop
  endfacet
  facet normal -1 0 0
    outer loop
      vertex -14.4937 19.403 17.5775
      vertex -14.4937 28.5402 25.4
      vertex -14.4937 21.9281 18.398
    endloop
  endfacet
  facet normal -1 0 0
    outer loop
      vertex -14.4937 16.7625 17.3
      vertex -14.4937 28.5402 25.4
      vertex -14.4937 19.403 17.5775
    endloop
  endfacet
  facet normal -1 0 0
    outer loop
      vertex -14.4937 14.122 17.5775
      vertex -14.4937 28.5402 25.4
      vertex -14.4937 16.7625 17.3
    endloop
  endfacet
  facet normal -1 0 0
    outer loop
      vertex -14.4937 11.5969 18.398
      vertex -14.4937 28.5402 25.4
      vertex -14.4937 14.122 17.5775
    endloop
  endfacet
  facet normal -1 0 0
    outer loop
      vertex -14.4937 9.29763 19.7255
      vertex -14.4937 28.5402 25.4
      vertex -14.4937 11.5969 18.398
    endloop
  endfacet
  facet normal -1 0 0
    outer loop
      vertex -14.4937 4.98483 25.4
      vertex -14.4937 9.29763 19.7255
      vertex -14.4937 7.32456 21.502
    endloop
  endfacet
  facet normal -1 0 0
    outer loop
      vertex -14.4937 4.98483 25.4
      vertex -14.4937 7.32456 21.502
      vertex -14.4937 5.76398 23.65
    endloop
  endfacet
  facet normal -1 0 0
    outer loop
      vertex -14.4937 9.29763 19.7255
      vertex -14.4937 4.98483 25.4
      vertex -14.4937 28.5402 25.4
    endloop
  endfacet
  facet normal 0 0.913545 0.406737
    outer loop
      vertex -14.4937 5.76398 23.65
      vertex -32.3688 4.98483 25.4
      vertex -14.4937 4.98483 25.4
    endloop
  endfacet
  facet normal 0 0.913545 0.406737
    outer loop
      vertex -32.3688 4.98483 25.4
      vertex -14.4937 5.76398 23.65
      vertex -32.3688 5.76398 23.65
    endloop
  endfacet
  facet normal -0 0.669131 0.743145
    outer loop
      vertex -32.3688 9.29763 19.7255
      vertex -14.4937 7.32456 21.502
      vertex -14.4937 9.29763 19.7255
    endloop
  endfacet
  facet normal -7.92971e-08 0.66913 0.743145
    outer loop
      vertex -14.4937 7.32456 21.502
      vertex -32.3688 9.29763 19.7255
      vertex -32.3688 7.32456 21.502
    endloop
  endfacet
  facet normal -0 0.309017 0.951056
    outer loop
      vertex -32.3688 14.122 17.5775
      vertex -14.4937 11.5969 18.398
      vertex -14.4937 14.122 17.5775
    endloop
  endfacet
  facet normal -1.01482e-07 0.309017 0.951057
    outer loop
      vertex -14.4937 11.5969 18.398
      vertex -32.3688 14.122 17.5775
      vertex -32.3688 11.5969 18.398
    endloop
  endfacet
  facet normal -9.24091e-08 0.5 0.866026
    outer loop
      vertex -32.3688 11.5969 18.398
      vertex -14.4937 9.29763 19.7255
      vertex -14.4937 11.5969 18.398
    endloop
  endfacet
  facet normal 0 0.5 0.866025
    outer loop
      vertex -14.4937 9.29763 19.7255
      vertex -32.3688 11.5969 18.398
      vertex -32.3688 9.29763 19.7255
    endloop
  endfacet
  facet normal 0 -0.104529 0.994522
    outer loop
      vertex -11.3188 18.1455 16.0247
      vertex 6.55625 15.175 15.7125
      vertex 6.55625 18.1455 16.0247
    endloop
  endfacet
  facet normal 0 -0.104529 0.994522
    outer loop
      vertex 6.55625 15.175 15.7125
      vertex -11.3188 18.1455 16.0247
      vertex -11.3188 15.175 15.7125
    endloop
  endfacet
  facet normal 0 -0.809017 0.587786
    outer loop
      vertex -11.3188 25.7927 20.4398
      vertex 6.55625 27.5483 22.8563
      vertex -11.3188 27.5483 22.8563
    endloop
  endfacet
  facet normal 0 -0.809017 0.587786
    outer loop
      vertex 6.55625 27.5483 22.8563
      vertex -11.3188 25.7927 20.4398
      vertex 6.55625 25.7927 20.4398
    endloop
  endfacet
  facet normal -1 0 0
    outer loop
      vertex 6.55625 25.7927 20.4398
      vertex 6.55625 28.6809 25.4
      vertex 6.55625 27.5483 22.8563
    endloop
  endfacet
  facet normal -1 0 0
    outer loop
      vertex 6.55625 23.573 18.4412
      vertex 6.55625 28.6809 25.4
      vertex 6.55625 25.7927 20.4398
    endloop
  endfacet
  facet normal -1 0 0
    outer loop
      vertex 6.55625 20.9862 16.9477
      vertex 6.55625 28.6809 25.4
      vertex 6.55625 23.573 18.4412
    endloop
  endfacet
  facet normal -1 0 0
    outer loop
      vertex 6.55625 18.1455 16.0247
      vertex 6.55625 28.6809 25.4
      vertex 6.55625 20.9862 16.9477
    endloop
  endfacet
  facet normal -1 0 0
    outer loop
      vertex 6.55625 15.175 15.7125
      vertex 6.55625 28.6809 25.4
      vertex 6.55625 18.1455 16.0247
    endloop
  endfacet
  facet normal -1 0 0
    outer loop
      vertex 6.55625 12.2045 16.0247
      vertex 6.55625 28.6809 25.4
      vertex 6.55625 15.175 15.7125
    endloop
  endfacet
  facet normal -1 0 0
    outer loop
      vertex 6.55625 9.36375 16.9477
      vertex 6.55625 28.6809 25.4
      vertex 6.55625 12.2045 16.0247
    endloop
  endfacet
  facet normal -1 0 0
    outer loop
      vertex 6.55625 6.77702 18.4412
      vertex 6.55625 28.6809 25.4
      vertex 6.55625 9.36375 16.9477
    endloop
  endfacet
  facet normal -1 0 0
    outer loop
      vertex 6.55625 4.55732 20.4398
      vertex 6.55625 28.6809 25.4
      vertex 6.55625 6.77702 18.4412
    endloop
  endfacet
  facet normal -1 0 0
    outer loop
      vertex 6.55625 2.80166 22.8563
      vertex 6.55625 28.6809 25.4
      vertex 6.55625 4.55732 20.4398
    endloop
  endfacet
  facet normal -1 -0 0
    outer loop
      vertex 6.55625 28.6809 25.4
      vertex 6.55625 2.80166 22.8563
      vertex 6.55625 1.66911 25.4
    endloop
  endfacet
  facet normal -0 0.5 0.866025
    outer loop
      vertex -11.3188 9.36375 16.9477
      vertex 6.55625 6.77702 18.4412
      vertex 6.55625 9.36375 16.9477
    endloop
  endfacet
  facet normal 0 0.5 0.866025
    outer loop
      vertex 6.55625 6.77702 18.4412
      vertex -11.3188 9.36375 16.9477
      vertex -11.3188 6.77702 18.4412
    endloop
  endfacet
  facet normal 0 -0.5 0.866026
    outer loop
      vertex -11.3188 23.573 18.4412
      vertex 6.55625 20.9862 16.9477
      vertex 6.55625 23.573 18.4412
    endloop
  endfacet
  facet normal 0 -0.5 0.866026
    outer loop
      vertex 6.55625 20.9862 16.9477
      vertex -11.3188 23.573 18.4412
      vertex -11.3188 20.9862 16.9477
    endloop
  endfacet
  facet normal 0 -0.309017 0.951057
    outer loop
      vertex -11.3188 20.9862 16.9477
      vertex 6.55625 18.1455 16.0247
      vertex 6.55625 20.9862 16.9477
    endloop
  endfacet
  facet normal 0 -0.309017 0.951057
    outer loop
      vertex 6.55625 18.1455 16.0247
      vertex -11.3188 20.9862 16.9477
      vertex -11.3188 18.1455 16.0247
    endloop
  endfacet
  facet normal 0 -0.669131 0.743145
    outer loop
      vertex -11.3188 25.7927 20.4398
      vertex 6.55625 23.573 18.4412
      vertex 6.55625 25.7927 20.4398
    endloop
  endfacet
  facet normal 0 -0.669131 0.743145
    outer loop
      vertex 6.55625 23.573 18.4412
      vertex -11.3188 25.7927 20.4398
      vertex -11.3188 23.573 18.4412
    endloop
  endfacet
  facet normal 0 -0.913546 0.406736
    outer loop
      vertex -11.3188 27.5483 22.8563
      vertex 6.55625 28.6809 25.4
      vertex -11.3188 28.6809 25.4
    endloop
  endfacet
  facet normal 0 -0.913546 0.406736
    outer loop
      vertex 6.55625 28.6809 25.4
      vertex -11.3188 27.5483 22.8563
      vertex 6.55625 27.5483 22.8563
    endloop
  endfacet
  facet normal -0 0.104529 0.994522
    outer loop
      vertex -11.3188 15.175 15.7125
      vertex 6.55625 12.2045 16.0247
      vertex 6.55625 15.175 15.7125
    endloop
  endfacet
  facet normal 0 0.104529 0.994522
    outer loop
      vertex 6.55625 12.2045 16.0247
      vertex -11.3188 15.175 15.7125
      vertex -11.3188 12.2045 16.0247
    endloop
  endfacet
  facet normal -0 0.309017 0.951057
    outer loop
      vertex -11.3188 12.2045 16.0247
      vertex 6.55625 9.36375 16.9477
      vertex 6.55625 12.2045 16.0247
    endloop
  endfacet
  facet normal 0 0.309017 0.951057
    outer loop
      vertex 6.55625 9.36375 16.9477
      vertex -11.3188 12.2045 16.0247
      vertex -11.3188 9.36375 16.9477
    endloop
  endfacet
  facet normal 1 0 0
    outer loop
      vertex -11.3188 28.6809 25.4
      vertex -11.3188 25.7927 20.4398
      vertex -11.3188 27.5483 22.8563
    endloop
  endfacet
  facet normal 1 0 0
    outer loop
      vertex -11.3188 28.6809 25.4
      vertex -11.3188 23.573 18.4412
      vertex -11.3188 25.7927 20.4398
    endloop
  endfacet
  facet normal 1 0 0
    outer loop
      vertex -11.3188 28.6809 25.4
      vertex -11.3188 20.9862 16.9477
      vertex -11.3188 23.573 18.4412
    endloop
  endfacet
  facet normal 1 0 0
    outer loop
      vertex -11.3188 28.6809 25.4
      vertex -11.3188 18.1455 16.0247
      vertex -11.3188 20.9862 16.9477
    endloop
  endfacet
  facet normal 1 0 0
    outer loop
      vertex -11.3188 28.6809 25.4
      vertex -11.3188 15.175 15.7125
      vertex -11.3188 18.1455 16.0247
    endloop
  endfacet
  facet normal 1 0 0
    outer loop
      vertex -11.3188 28.6809 25.4
      vertex -11.3188 12.2045 16.0247
      vertex -11.3188 15.175 15.7125
    endloop
  endfacet
  facet normal 1 0 0
    outer loop
      vertex -11.3188 28.6809 25.4
      vertex -11.3188 9.36375 16.9477
      vertex -11.3188 12.2045 16.0247
    endloop
  endfacet
  facet normal 1 0 0
    outer loop
      vertex -11.3188 28.6809 25.4
      vertex -11.3188 6.77702 18.4412
      vertex -11.3188 9.36375 16.9477
    endloop
  endfacet
  facet normal 1 0 0
    outer loop
      vertex -11.3188 28.6809 25.4
      vertex -11.3188 4.55732 20.4398
      vertex -11.3188 6.77702 18.4412
    endloop
  endfacet
  facet normal 1 0 0
    outer loop
      vertex -11.3188 28.6809 25.4
      vertex -11.3188 2.80166 22.8563
      vertex -11.3188 4.55732 20.4398
    endloop
  endfacet
  facet normal 1 0 -0
    outer loop
      vertex -11.3188 2.80166 22.8563
      vertex -11.3188 28.6809 25.4
      vertex -11.3188 1.66911 25.4
    endloop
  endfacet
  facet normal 0 0.809017 0.587785
    outer loop
      vertex 6.55625 4.55732 20.4398
      vertex -11.3188 2.80166 22.8563
      vertex 6.55625 2.80166 22.8563
    endloop
  endfacet
  facet normal 0 0.809017 0.587785
    outer loop
      vertex -11.3188 2.80166 22.8563
      vertex 6.55625 4.55732 20.4398
      vertex -11.3188 4.55732 20.4398
    endloop
  endfacet
  facet normal 0 0.913545 0.406737
    outer loop
      vertex 6.55625 2.80166 22.8563
      vertex -11.3188 1.66911 25.4
      vertex 6.55625 1.66911 25.4
    endloop
  endfacet
  facet normal 0 0.913545 0.406737
    outer loop
      vertex -11.3188 1.66911 25.4
      vertex 6.55625 2.80166 22.8563
      vertex -11.3188 2.80166 22.8563
    endloop
  endfacet
  facet normal -0 0.669131 0.743145
    outer loop
      vertex -11.3188 6.77702 18.4412
      vertex 6.55625 4.55732 20.4398
      vertex 6.55625 6.77702 18.4412
    endloop
  endfacet
  facet normal 0 0.669131 0.743145
    outer loop
      vertex 6.55625 4.55732 20.4398
      vertex -11.3188 6.77702 18.4412
      vertex -11.3188 4.55732 20.4398
    endloop
  endfacet
  facet normal 0 -0.5 0.866025
    outer loop
      vertex 9.73125 22.2642 15.8725
      vertex 32.3687 19.1026 14.0472
      vertex 32.3687 22.2642 15.8725
    endloop
  endfacet
  facet normal 0 -0.5 0.866025
    outer loop
      vertex 32.3687 19.1026 14.0472
      vertex 9.73125 22.2642 15.8725
      vertex 9.73125 19.1026 14.0472
    endloop
  endfacet
  facet normal 0 -0.309017 0.951057
    outer loop
      vertex 9.73125 19.1026 14.0472
      vertex 32.3687 15.6307 12.9191
      vertex 32.3687 19.1026 14.0472
    endloop
  endfacet
  facet normal 0 -0.309017 0.951057
    outer loop
      vertex 32.3687 15.6307 12.9191
      vertex 9.73125 19.1026 14.0472
      vertex 9.73125 15.6307 12.9191
    endloop
  endfacet
  facet normal 0 -0.913545 0.406737
    outer loop
      vertex 9.73125 27.123 21.2688
      vertex 32.3687 28.6078 24.6038
      vertex 9.73125 28.6078 24.6038
    endloop
  endfacet
  facet normal 0 -0.913545 0.406737
    outer loop
      vertex 32.3687 28.6078 24.6038
      vertex 9.73125 27.123 21.2688
      vertex 32.3687 27.123 21.2688
    endloop
  endfacet
  facet normal -0 0.104528 0.994522
    outer loop
      vertex 9.73125 12 12.5375
      vertex 32.3687 8.36934 12.9191
      vertex 32.3687 12 12.5375
    endloop
  endfacet
  facet normal 0 0.104528 0.994522
    outer loop
      vertex 32.3687 8.36934 12.9191
      vertex 9.73125 12 12.5375
      vertex 9.73125 8.36934 12.9191
    endloop
  endfacet
  facet normal 0 -0.669131 0.743145
    outer loop
      vertex 9.73125 24.9772 18.3153
      vertex 32.3687 22.2642 15.8725
      vertex 32.3687 24.9772 18.3153
    endloop
  endfacet
  facet normal 0 -0.669131 0.743145
    outer loop
      vertex 32.3687 22.2642 15.8725
      vertex 9.73125 24.9772 18.3153
      vertex 9.73125 22.2642 15.8725
    endloop
  endfacet
  facet normal 0 -0.809017 0.587785
    outer loop
      vertex 9.73125 24.9772 18.3153
      vertex 32.3687 27.123 21.2688
      vertex 9.73125 27.123 21.2688
    endloop
  endfacet
  facet normal 0 -0.809017 0.587785
    outer loop
      vertex 32.3687 27.123 21.2688
      vertex 9.73125 24.9772 18.3153
      vertex 32.3687 24.9772 18.3153
    endloop
  endfacet
  facet normal 0 -0.104528 0.994522
    outer loop
      vertex 9.73125 15.6307 12.9191
      vertex 32.3687 12 12.5375
      vertex 32.3687 15.6307 12.9191
    endloop
  endfacet
  facet normal 0 -0.104528 0.994522
    outer loop
      vertex 32.3687 12 12.5375
      vertex 9.73125 15.6307 12.9191
      vertex 9.73125 12 12.5375
    endloop
  endfacet
  facet normal 0 0.809017 0.587785
    outer loop
      vertex 32.3687 -0.977166 18.3153
      vertex 9.73125 -3.12297 21.2688
      vertex 32.3687 -3.12297 21.2688
    endloop
  endfacet
  facet normal 0 0.809017 0.587785
    outer loop
      vertex 9.73125 -3.12297 21.2688
      vertex 32.3687 -0.977166 18.3153
      vertex 9.73125 -0.977166 18.3153
    endloop
  endfacet
  facet normal -0 0.309017 0.951057
    outer loop
      vertex 9.73125 8.36934 12.9191
      vertex 32.3687 4.89736 14.0472
      vertex 32.3687 8.36934 12.9191
    endloop
  endfacet
  facet normal 0 0.309017 0.951057
    outer loop
      vertex 32.3687 4.89736 14.0472
      vertex 9.73125 8.36934 12.9191
      vertex 9.73125 4.89736 14.0472
    endloop
  endfacet
  facet normal 0 -0.978148 0.207912
    outer loop
      vertex 9.73125 28.6078 24.6038
      vertex 32.3687 28.7771 25.4
      vertex 9.73125 28.7771 25.4
    endloop
  endfacet
  facet normal 0 -0.978148 0.207912
    outer loop
      vertex 32.3687 28.7771 25.4
      vertex 9.73125 28.6078 24.6038
      vertex 32.3687 28.6078 24.6038
    endloop
  endfacet
  facet normal -1 0 0
    outer loop
      vertex 32.3687 27.123 21.2688
      vertex 32.3687 28.7771 25.4
      vertex 32.3687 28.6078 24.6038
    endloop
  endfacet
  facet normal -1 0 0
    outer loop
      vertex 32.3687 24.9772 18.3153
      vertex 32.3687 28.7771 25.4
      vertex 32.3687 27.123 21.2688
    endloop
  endfacet
  facet normal -1 0 0
    outer loop
      vertex 32.3687 22.2642 15.8725
      vertex 32.3687 28.7771 25.4
      vertex 32.3687 24.9772 18.3153
    endloop
  endfacet
  facet normal -1 0 0
    outer loop
      vertex 32.3687 19.1026 14.0472
      vertex 32.3687 28.7771 25.4
      vertex 32.3687 22.2642 15.8725
    endloop
  endfacet
  facet normal -1 0 0
    outer loop
      vertex 32.3687 15.6307 12.9191
      vertex 32.3687 28.7771 25.4
      vertex 32.3687 19.1026 14.0472
    endloop
  endfacet
  facet normal -1 0 0
    outer loop
      vertex 32.3687 12 12.5375
      vertex 32.3687 28.7771 25.4
      vertex 32.3687 15.6307 12.9191
    endloop
  endfacet
  facet normal -1 0 0
    outer loop
      vertex 32.3687 8.36934 12.9191
      vertex 32.3687 28.7771 25.4
      vertex 32.3687 12 12.5375
    endloop
  endfacet
  facet normal -1 0 0
    outer loop
      vertex 32.3687 4.89736 14.0472
      vertex 32.3687 28.7771 25.4
      vertex 32.3687 8.36934 12.9191
    endloop
  endfacet
  facet normal -1 0 0
    outer loop
      vertex 32.3687 1.7358 15.8725
      vertex 32.3687 28.7771 25.4
      vertex 32.3687 4.89736 14.0472
    endloop
  endfacet
  facet normal -1 0 0
    outer loop
      vertex 32.3687 -0.977166 18.3153
      vertex 32.3687 28.7771 25.4
      vertex 32.3687 1.7358 15.8725
    endloop
  endfacet
  facet normal -1 0 0
    outer loop
      vertex 32.3687 -4.77706 25.4
      vertex 32.3687 -0.977166 18.3153
      vertex 32.3687 -3.12297 21.2688
    endloop
  endfacet
  facet normal -1 0 0
    outer loop
      vertex 32.3687 -4.77706 25.4
      vertex 32.3687 -3.12297 21.2688
      vertex 32.3687 -4.60782 24.6038
    endloop
  endfacet
  facet normal -1 0 0
    outer loop
      vertex 32.3687 -0.977166 18.3153
      vertex 32.3687 -4.77706 25.4
      vertex 32.3687 28.7771 25.4
    endloop
  endfacet
  facet normal 0 0.978147 0.207912
    outer loop
      vertex 32.3687 -4.60782 24.6038
      vertex 9.73125 -4.77706 25.4
      vertex 32.3687 -4.77706 25.4
    endloop
  endfacet
  facet normal 0 0.978147 0.207912
    outer loop
      vertex 9.73125 -4.77706 25.4
      vertex 32.3687 -4.60782 24.6038
      vertex 9.73125 -4.60782 24.6038
    endloop
  endfacet
  facet normal 0 0.913545 0.406737
    outer loop
      vertex 32.3687 -3.12297 21.2688
      vertex 9.73125 -4.60782 24.6038
      vertex 32.3687 -4.60782 24.6038
    endloop
  endfacet
  facet normal 0 0.913545 0.406737
    outer loop
      vertex 9.73125 -4.60782 24.6038
      vertex 32.3687 -3.12297 21.2688
      vertex 9.73125 -3.12297 21.2688
    endloop
  endfacet
  facet normal -0 0.669131 0.743145
    outer loop
      vertex 9.73125 1.7358 15.8725
      vertex 32.3687 -0.977166 18.3153
      vertex 32.3687 1.7358 15.8725
    endloop
  endfacet
  facet normal 0 0.669131 0.743145
    outer loop
      vertex 32.3687 -0.977166 18.3153
      vertex 9.73125 1.7358 15.8725
      vertex 9.73125 -0.977166 18.3153
    endloop
  endfacet
  facet normal -0 0.5 0.866025
    outer loop
      vertex 9.73125 4.89736 14.0472
      vertex 32.3687 1.7358 15.8725
      vertex 32.3687 4.89736 14.0472
    endloop
  endfacet
  facet normal 0 0.5 0.866025
    outer loop
      vertex 32.3687 1.7358 15.8725
      vertex 9.73125 4.89736 14.0472
      vertex 9.73125 1.7358 15.8725
    endloop
  endfacet
  facet normal 1 0 0
    outer loop
      vertex 9.73125 28.7771 25.4
      vertex 9.73125 27.123 21.2688
      vertex 9.73125 28.6078 24.6038
    endloop
  endfacet
  facet normal 1 0 0
    outer loop
      vertex 9.73125 28.7771 25.4
      vertex 9.73125 24.9772 18.3153
      vertex 9.73125 27.123 21.2688
    endloop
  endfacet
  facet normal 1 0 0
    outer loop
      vertex 9.73125 28.7771 25.4
      vertex 9.73125 22.2642 15.8725
      vertex 9.73125 24.9772 18.3153
    endloop
  endfacet
  facet normal 1 0 0
    outer loop
      vertex 9.73125 28.7771 25.4
      vertex 9.73125 19.1026 14.0472
      vertex 9.73125 22.2642 15.8725
    endloop
  endfacet
  facet normal 1 0 0
    outer loop
      vertex 9.73125 28.7771 25.4
      vertex 9.73125 15.6307 12.9191
      vertex 9.73125 19.1026 14.0472
    endloop
  endfacet
  facet normal 1 0 0
    outer loop
      vertex 9.73125 28.7771 25.4
      vertex 9.73125 12 12.5375
      vertex 9.73125 15.6307 12.9191
    endloop
  endfacet
  facet normal 1 0 0
    outer loop
      vertex 9.73125 28.7771 25.4
      vertex 9.73125 8.36934 12.9191
      vertex 9.73125 12 12.5375
    endloop
  endfacet
  facet normal 1 0 0
    outer loop
      vertex 9.73125 28.7771 25.4
      vertex 9.73125 4.89736 14.0472
      vertex 9.73125 8.36934 12.9191
    endloop
  endfacet
  facet normal 1 0 0
    outer loop
      vertex 9.73125 28.7771 25.4
      vertex 9.73125 1.7358 15.8725
      vertex 9.73125 4.89736 14.0472
    endloop
  endfacet
  facet normal 1 0 0
    outer loop
      vertex 9.73125 28.7771 25.4
      vertex 9.73125 -0.977166 18.3153
      vertex 9.73125 1.7358 15.8725
    endloop
  endfacet
  facet normal 1 -0 0
    outer loop
      vertex 9.73125 -4.77706 25.4
      vertex 9.73125 -0.977166 18.3153
      vertex 9.73125 28.7771 25.4
    endloop
  endfacet
  facet normal 1 0 0
    outer loop
      vertex 9.73125 -0.977166 18.3153
      vertex 9.73125 -4.77706 25.4
      vertex 9.73125 -3.12297 21.2688
    endloop
  endfacet
  facet normal 1 0 0
    outer loop
      vertex 9.73125 -3.12297 21.2688
      vertex 9.73125 -4.77706 25.4
      vertex 9.73125 -4.60782 24.6038
    endloop
  endfacet
  facet normal 0.750898 0.501735 0.429434
    outer loop
      vertex 44.8105 41.6355 0
      vertex 35.8484 33.3084 25.4
      vertex 36.7155 32.0107 25.4
    endloop
  endfacet
  facet normal 0.905586 0.18014 0.38401
    outer loop
      vertex 46.275 38.1 0
      vertex 36.7155 32.0107 25.4
      vertex 37.02 30.48 25.4
    endloop
  endfacet
  facet normal 0.905586 0.180139 0.38401
    outer loop
      vertex 45.8944 40.0134 0
      vertex 36.7155 32.0107 25.4
      vertex 46.275 38.1 0
    endloop
  endfacet
  facet normal 0.750899 0.501734 0.429434
    outer loop
      vertex 44.8105 41.6355 0
      vertex 36.7155 32.0107 25.4
      vertex 45.8944 40.0134 0
    endloop
  endfacet
  facet normal -0.750899 -0.501734 0.429434
    outer loop
      vertex -36.7155 -32.0107 25.4
      vertex -45.8944 -40.0134 0
      vertex -44.8105 -41.6355 0
    endloop
  endfacet
  facet normal 0.503072 0.752901 0.424333
    outer loop
      vertex 43.1884 42.7194 0
      vertex 35.8484 33.3084 25.4
      vertex 44.8105 41.6355 0
    endloop
  endfacet
  facet normal 0.750898 -0.501735 0.429434
    outer loop
      vertex 36.7155 -32.0107 25.4
      vertex 35.8484 -33.3084 25.4
      vertex 44.8105 -41.6355 0
    endloop
  endfacet
  facet normal 0 0.946954 0.321368
    outer loop
      vertex 41.275 43.1 0
      vertex -33.02 34.48 25.4
      vertex 33.02 34.48 25.4
    endloop
  endfacet
  facet normal 0 0.946954 0.321368
    outer loop
      vertex -33.02 34.48 25.4
      vertex 41.275 43.1 0
      vertex -41.275 43.1 0
    endloop
  endfacet
  facet normal -0.750898 -0.501735 0.429434
    outer loop
      vertex -36.7155 -32.0107 25.4
      vertex -44.8105 -41.6355 0
      vertex -35.8484 -33.3084 25.4
    endloop
  endfacet
  facet normal 0 -0.946954 0.321368
    outer loop
      vertex -41.275 -43.1 0
      vertex 33.02 -34.48 25.4
      vertex -33.02 -34.48 25.4
    endloop
  endfacet
  facet normal 0 -0.946954 0.321368
    outer loop
      vertex 33.02 -34.48 25.4
      vertex -41.275 -43.1 0
      vertex 41.275 -43.1 0
    endloop
  endfacet
  facet normal 0.503072 -0.752901 0.424333
    outer loop
      vertex 44.8105 -41.6355 0
      vertex 35.8484 -33.3084 25.4
      vertex 43.1884 -42.7194 0
    endloop
  endfacet
  facet normal 0.905586 -0.180139 0.38401
    outer loop
      vertex 46.275 -38.1 0
      vertex 36.7155 -32.0107 25.4
      vertex 45.8944 -40.0134 0
    endloop
  endfacet
  facet normal 0.750899 -0.501734 0.429434
    outer loop
      vertex 45.8944 -40.0134 0
      vertex 36.7155 -32.0107 25.4
      vertex 44.8105 -41.6355 0
    endloop
  endfacet
  facet normal 0.905586 -0.18014 0.38401
    outer loop
      vertex 37.02 -30.48 25.4
      vertex 36.7155 -32.0107 25.4
      vertex 46.275 -38.1 0
    endloop
  endfacet
  facet normal 0.939572 -0 0.342352
    outer loop
      vertex 37.02 -30.48 25.4
      vertex 46.275 38.1 0
      vertex 37.02 30.48 25.4
    endloop
  endfacet
  facet normal 0.939572 0 0.342352
    outer loop
      vertex 46.275 38.1 0
      vertex 37.02 -30.48 25.4
      vertex 46.275 -38.1 0
    endloop
  endfacet
  facet normal -0.905586 -0.180139 0.38401
    outer loop
      vertex -36.7155 -32.0107 25.4
      vertex -46.275 -38.1 0
      vertex -45.8944 -40.0134 0
    endloop
  endfacet
  facet normal 0 0 -1
    outer loop
      vertex 41.275 -43.1 0
      vertex 46.275 -38.1 0
      vertex 45.8944 -40.0134 0
    endloop
  endfacet
  facet normal -0 0 -1
    outer loop
      vertex 46.275 -38.1 0
      vertex 41.275 -43.1 0
      vertex 46.275 38.1 0
    endloop
  endfacet
  facet normal 0 0 -1
    outer loop
      vertex 41.275 -43.1 0
      vertex 45.8944 -40.0134 0
      vertex 44.8105 -41.6355 0
    endloop
  endfacet
  facet normal 0 0 -1
    outer loop
      vertex 41.275 43.1 0
      vertex 46.275 38.1 0
      vertex 41.275 -43.1 0
    endloop
  endfacet
  facet normal 0 0 -1
    outer loop
      vertex 41.275 -43.1 0
      vertex 44.8105 -41.6355 0
      vertex 43.1884 -42.7194 0
    endloop
  endfacet
  facet normal 0 0 -1
    outer loop
      vertex 46.275 38.1 0
      vertex 41.275 43.1 0
      vertex 45.8944 40.0134 0
    endloop
  endfacet
  facet normal 0 0 -1
    outer loop
      vertex 45.8944 40.0134 0
      vertex 41.275 43.1 0
      vertex 44.8105 41.6355 0
    endloop
  endfacet
  facet normal 0 0 -1
    outer loop
      vertex 44.8105 41.6355 0
      vertex 41.275 43.1 0
      vertex 43.1884 42.7194 0
    endloop
  endfacet
  facet normal 0 0 -1
    outer loop
      vertex -41.275 -43.1 0
      vertex 41.275 43.1 0
      vertex 41.275 -43.1 0
    endloop
  endfacet
  facet normal 0 0 -1
    outer loop
      vertex -41.275 -43.1 0
      vertex -41.275 43.1 0
      vertex 41.275 43.1 0
    endloop
  endfacet
  facet normal 0 0 -1
    outer loop
      vertex -46.275 -38.1 0
      vertex -41.275 -43.1 0
      vertex -43.1884 -42.7194 0
    endloop
  endfacet
  facet normal 0 0 -1
    outer loop
      vertex -41.275 -43.1 0
      vertex -46.275 -38.1 0
      vertex -41.275 43.1 0
    endloop
  endfacet
  facet normal 0 0 -1
    outer loop
      vertex -46.275 -38.1 0
      vertex -43.1884 -42.7194 0
      vertex -44.8105 -41.6355 0
    endloop
  endfacet
  facet normal 0 0 -1
    outer loop
      vertex -46.275 38.1 0
      vertex -41.275 43.1 0
      vertex -46.275 -38.1 0
    endloop
  endfacet
  facet normal 0 0 -1
    outer loop
      vertex -46.275 -38.1 0
      vertex -44.8105 -41.6355 0
      vertex -45.8944 -40.0134 0
    endloop
  endfacet
  facet normal 0 0 -1
    outer loop
      vertex -41.275 43.1 0
      vertex -46.275 38.1 0
      vertex -43.1884 42.7194 0
    endloop
  endfacet
  facet normal 0 0 -1
    outer loop
      vertex -43.1884 42.7194 0
      vertex -46.275 38.1 0
      vertex -44.8105 41.6355 0
    endloop
  endfacet
  facet normal 0 0 -1
    outer loop
      vertex -44.8105 41.6355 0
      vertex -46.275 38.1 0
      vertex -45.8944 40.0134 0
    endloop
  endfacet
  facet normal -0.503072 0.752901 0.424333
    outer loop
      vertex -43.1884 42.7194 0
      vertex -44.8105 41.6355 0
      vertex -35.8484 33.3084 25.4
    endloop
  endfacet
  facet normal -0.750899 0.501734 0.429434
    outer loop
      vertex -44.8105 41.6355 0
      vertex -45.8944 40.0134 0
      vertex -36.7155 32.0107 25.4
    endloop
  endfacet
  facet normal 0.181378 0.911807 0.368388
    outer loop
      vertex 41.275 43.1 0
      vertex 33.02 34.48 25.4
      vertex 34.5507 34.1755 25.4
    endloop
  endfacet
  facet normal -0.503072 -0.752901 0.424333
    outer loop
      vertex -35.8484 -33.3084 25.4
      vertex -43.1884 -42.7194 0
      vertex -34.5507 -34.1755 25.4
    endloop
  endfacet
  facet normal -0.503072 -0.752901 0.424333
    outer loop
      vertex -35.8484 -33.3084 25.4
      vertex -44.8105 -41.6355 0
      vertex -43.1884 -42.7194 0
    endloop
  endfacet
  facet normal 0.181378 -0.911807 0.368388
    outer loop
      vertex 34.5507 -34.1755 25.4
      vertex 33.02 -34.48 25.4
      vertex 41.275 -43.1 0
    endloop
  endfacet
  facet normal -0.939572 0 0.342352
    outer loop
      vertex -46.275 38.1 0
      vertex -37.02 -30.48 25.4
      vertex -37.02 30.48 25.4
    endloop
  endfacet
  facet normal -0.939572 0 0.342352
    outer loop
      vertex -37.02 -30.48 25.4
      vertex -46.275 38.1 0
      vertex -46.275 -38.1 0
    endloop
  endfacet
  facet normal 0 0 1
    outer loop
      vertex 11.3397 -20 25.4
      vertex -7.59938 -13.1516 25.4
      vertex -7.3 -16 25.4
    endloop
  endfacet
  facet normal 0 0 1
    outer loop
      vertex 9.73125 -4.77706 25.4
      vertex -8.48443 -10.4277 25.4
      vertex -7.59938 -13.1516 25.4
    endloop
  endfacet
  facet normal 0 0 1
    outer loop
      vertex 6.55625 1.66911 25.4
      vertex -9.91647 -7.94734 25.4
      vertex -8.48443 -10.4277 25.4
    endloop
  endfacet
  facet normal -0 0 1
    outer loop
      vertex -11.3188 1.66911 25.4
      vertex -9.91647 -7.94734 25.4
      vertex 6.55625 1.66911 25.4
    endloop
  endfacet
  facet normal 0 0 1
    outer loop
      vertex -9.91647 -7.94734 25.4
      vertex -11.3188 1.66911 25.4
      vertex -11.8329 -5.81892 25.4
    endloop
  endfacet
  facet normal 0 0 1
    outer loop
      vertex -16.7665 -2.97052 25.4
      vertex -11.3188 1.66911 25.4
      vertex -14.4937 4.98483 25.4
    endloop
  endfacet
  facet normal 0 0 1
    outer loop
      vertex -11.3188 1.66911 25.4
      vertex -16.7665 -2.97052 25.4
      vertex -14.15 -4.13545 25.4
    endloop
  endfacet
  facet normal 0 0 1
    outer loop
      vertex -14.4937 4.98483 25.4
      vertex -19.568 -2.37505 25.4
      vertex -16.7665 -2.97052 25.4
    endloop
  endfacet
  facet normal 0 0 1
    outer loop
      vertex -14.4937 4.98483 25.4
      vertex -22.432 -2.37505 25.4
      vertex -19.568 -2.37505 25.4
    endloop
  endfacet
  facet normal -0 0 1
    outer loop
      vertex -32.3688 4.98483 25.4
      vertex -22.432 -2.37505 25.4
      vertex -14.4937 4.98483 25.4
    endloop
  endfacet
  facet normal 0 0 1
    outer loop
      vertex -22.432 -2.37505 25.4
      vertex -32.3688 4.98483 25.4
      vertex -25.2335 -2.97052 25.4
    endloop
  endfacet
  facet normal 0 0 1
    outer loop
      vertex -25.2335 -2.97052 25.4
      vertex -32.3688 4.98483 25.4
      vertex -27.85 -4.13545 25.4
    endloop
  endfacet
  facet normal 0 0 1
    outer loop
      vertex -32.3688 4.98483 25.4
      vertex -30.1671 -5.81892 25.4
      vertex -27.85 -4.13545 25.4
    endloop
  endfacet
  facet normal 0 0 1
    outer loop
      vertex -32.3688 4.98483 25.4
      vertex -32.0835 -7.94734 25.4
      vertex -30.1671 -5.81892 25.4
    endloop
  endfacet
  facet normal 0 0 1
    outer loop
      vertex -32.3688 28.5402 25.4
      vertex -37.02 30.48 25.4
      vertex -32.3688 4.98483 25.4
    endloop
  endfacet
  facet normal 0 -0 1
    outer loop
      vertex -34.4006 -13.1516 25.4
      vertex -32.3688 4.98483 25.4
      vertex -37.02 30.48 25.4
    endloop
  endfacet
  facet normal 0 0 1
    outer loop
      vertex -32.3688 4.98483 25.4
      vertex -33.5156 -10.4277 25.4
      vertex -32.0835 -7.94734 25.4
    endloop
  endfacet
  facet normal 0 0 1
    outer loop
      vertex -37.02 30.48 25.4
      vertex -33.02 34.48 25.4
      vertex -34.5507 34.1755 25.4
    endloop
  endfacet
  facet normal 0 0 1
    outer loop
      vertex -32.3688 4.98483 25.4
      vertex -34.4006 -13.1516 25.4
      vertex -33.5156 -10.4277 25.4
    endloop
  endfacet
  facet normal 0 0 1
    outer loop
      vertex -37.02 30.48 25.4
      vertex -34.5507 34.1755 25.4
      vertex -35.8484 33.3084 25.4
    endloop
  endfacet
  facet normal 0 0 1
    outer loop
      vertex 32.3687 -4.77706 25.4
      vertex 24.3301 -12.5 25.4
      vertex 28.6603 -20 25.4
    endloop
  endfacet
  facet normal -0 0 1
    outer loop
      vertex 9.73125 -4.77706 25.4
      vertex 24.3301 -12.5 25.4
      vertex 32.3687 -4.77706 25.4
    endloop
  endfacet
  facet normal 0 0 1
    outer loop
      vertex 15.6699 -12.5 25.4
      vertex 9.73125 -4.77706 25.4
      vertex 11.3397 -20 25.4
    endloop
  endfacet
  facet normal 0 0 1
    outer loop
      vertex 24.3301 -12.5 25.4
      vertex 9.73125 -4.77706 25.4
      vertex 15.6699 -12.5 25.4
    endloop
  endfacet
  facet normal 0 0 1
    outer loop
      vertex 32.3687 28.7771 25.4
      vertex 37.02 30.48 25.4
      vertex 36.7155 32.0107 25.4
    endloop
  endfacet
  facet normal 0 0 1
    outer loop
      vertex 37.02 30.48 25.4
      vertex 32.3687 -4.77706 25.4
      vertex 37.02 -30.48 25.4
    endloop
  endfacet
  facet normal 0 0 1
    outer loop
      vertex 32.3687 28.7771 25.4
      vertex 36.7155 32.0107 25.4
      vertex 35.8484 33.3084 25.4
    endloop
  endfacet
  facet normal -0 0 1
    outer loop
      vertex 28.6603 -20 25.4
      vertex 37.02 -30.48 25.4
      vertex 32.3687 -4.77706 25.4
    endloop
  endfacet
  facet normal 0 0 1
    outer loop
      vertex 32.3687 28.7771 25.4
      vertex 35.8484 33.3084 25.4
      vertex 34.5507 34.1755 25.4
    endloop
  endfacet
  facet normal -0 0 1
    outer loop
      vertex 24.3301 -27.5 25.4
      vertex 37.02 -30.48 25.4
      vertex 28.6603 -20 25.4
    endloop
  endfacet
  facet normal 0 0 1
    outer loop
      vertex 32.3687 28.7771 25.4
      vertex 34.5507 34.1755 25.4
      vertex 33.02 34.48 25.4
    endloop
  endfacet
  facet normal 0 -0 1
    outer loop
      vertex 33.02 -34.48 25.4
      vertex 37.02 -30.48 25.4
      vertex 24.3301 -27.5 25.4
    endloop
  endfacet
  facet normal 0 0 1
    outer loop
      vertex 37.02 30.48 25.4
      vertex 32.3687 28.7771 25.4
      vertex 32.3687 -4.77706 25.4
    endloop
  endfacet
  facet normal 0 0 1
    outer loop
      vertex 33.02 34.48 25.4
      vertex 9.73125 28.7771 25.4
      vertex 32.3687 28.7771 25.4
    endloop
  endfacet
  facet normal 0 0 1
    outer loop
      vertex 6.55625 1.66911 25.4
      vertex 9.73125 28.7771 25.4
      vertex 6.55625 28.6809 25.4
    endloop
  endfacet
  facet normal 0 0 1
    outer loop
      vertex 33.02 34.48 25.4
      vertex 6.55625 28.6809 25.4
      vertex 9.73125 28.7771 25.4
    endloop
  endfacet
  facet normal -0 0 1
    outer loop
      vertex -33.02 34.48 25.4
      vertex 6.55625 28.6809 25.4
      vertex 33.02 34.48 25.4
    endloop
  endfacet
  facet normal 0 0 1
    outer loop
      vertex -14.4937 4.98483 25.4
      vertex -11.3188 28.6809 25.4
      vertex -14.4937 28.5402 25.4
    endloop
  endfacet
  facet normal 0 0 1
    outer loop
      vertex -11.3188 1.66911 25.4
      vertex -14.15 -4.13545 25.4
      vertex -11.8329 -5.81892 25.4
    endloop
  endfacet
  facet normal 0 0 1
    outer loop
      vertex -11.3188 28.6809 25.4
      vertex -14.4937 4.98483 25.4
      vertex -11.3188 1.66911 25.4
    endloop
  endfacet
  facet normal 0 0 1
    outer loop
      vertex 6.55625 28.6809 25.4
      vertex -33.02 34.48 25.4
      vertex -11.3188 28.6809 25.4
    endloop
  endfacet
  facet normal 0 0 1
    outer loop
      vertex -11.3188 28.6809 25.4
      vertex -33.02 34.48 25.4
      vertex -14.4937 28.5402 25.4
    endloop
  endfacet
  facet normal -0 0 1
    outer loop
      vertex -37.02 30.48 25.4
      vertex -32.3688 28.5402 25.4
      vertex -33.02 34.48 25.4
    endloop
  endfacet
  facet normal 0 0 1
    outer loop
      vertex -14.4937 28.5402 25.4
      vertex -33.02 34.48 25.4
      vertex -32.3688 28.5402 25.4
    endloop
  endfacet
  facet normal 0 0 1
    outer loop
      vertex 37.02 -30.48 25.4
      vertex 33.02 -34.48 25.4
      vertex 36.7155 -32.0107 25.4
    endloop
  endfacet
  facet normal 0 0 1
    outer loop
      vertex 35.8484 -33.3084 25.4
      vertex 33.02 -34.48 25.4
      vertex 34.5507 -34.1755 25.4
    endloop
  endfacet
  facet normal 0 0 1
    outer loop
      vertex 36.7155 -32.0107 25.4
      vertex 33.02 -34.48 25.4
      vertex 35.8484 -33.3084 25.4
    endloop
  endfacet
  facet normal -0 0 1
    outer loop
      vertex 15.6699 -27.5 25.4
      vertex 33.02 -34.48 25.4
      vertex 24.3301 -27.5 25.4
    endloop
  endfacet
  facet normal 0 0 1
    outer loop
      vertex 9.73125 28.7771 25.4
      vertex 6.55625 1.66911 25.4
      vertex 9.73125 -4.77706 25.4
    endloop
  endfacet
  facet normal 0 0 1
    outer loop
      vertex -8.48443 -10.4277 25.4
      vertex 9.73125 -4.77706 25.4
      vertex 6.55625 1.66911 25.4
    endloop
  endfacet
  facet normal -0 0 1
    outer loop
      vertex -7.59938 -13.1516 25.4
      vertex 11.3397 -20 25.4
      vertex 9.73125 -4.77706 25.4
    endloop
  endfacet
  facet normal -0 0 1
    outer loop
      vertex -7.59938 -18.8484 25.4
      vertex 11.3397 -20 25.4
      vertex -7.3 -16 25.4
    endloop
  endfacet
  facet normal 0 0 1
    outer loop
      vertex -8.48443 -21.5723 25.4
      vertex 11.3397 -20 25.4
      vertex -7.59938 -18.8484 25.4
    endloop
  endfacet
  facet normal 0 0 1
    outer loop
      vertex -9.91647 -24.0527 25.4
      vertex 11.3397 -20 25.4
      vertex -8.48443 -21.5723 25.4
    endloop
  endfacet
  facet normal 0 0 1
    outer loop
      vertex 11.3397 -20 25.4
      vertex -9.91647 -24.0527 25.4
      vertex 15.6699 -27.5 25.4
    endloop
  endfacet
  facet normal -0 0 1
    outer loop
      vertex -11.8329 -26.1811 25.4
      vertex 15.6699 -27.5 25.4
      vertex -9.91647 -24.0527 25.4
    endloop
  endfacet
  facet normal 0 0 1
    outer loop
      vertex -14.15 -27.8645 25.4
      vertex 15.6699 -27.5 25.4
      vertex -11.8329 -26.1811 25.4
    endloop
  endfacet
  facet normal 0 0 1
    outer loop
      vertex -16.7665 -29.0295 25.4
      vertex 15.6699 -27.5 25.4
      vertex -14.15 -27.8645 25.4
    endloop
  endfacet
  facet normal 0 0 1
    outer loop
      vertex 15.6699 -27.5 25.4
      vertex -16.7665 -29.0295 25.4
      vertex 33.02 -34.48 25.4
    endloop
  endfacet
  facet normal 0 0 1
    outer loop
      vertex -33.02 -34.48 25.4
      vertex -16.7665 -29.0295 25.4
      vertex -19.568 -29.625 25.4
    endloop
  endfacet
  facet normal 0 0 1
    outer loop
      vertex -33.02 -34.48 25.4
      vertex -19.568 -29.625 25.4
      vertex -22.432 -29.625 25.4
    endloop
  endfacet
  facet normal 0 0 1
    outer loop
      vertex -16.7665 -29.0295 25.4
      vertex -33.02 -34.48 25.4
      vertex 33.02 -34.48 25.4
    endloop
  endfacet
  facet normal 0 0 1
    outer loop
      vertex -25.2335 -29.0295 25.4
      vertex -33.02 -34.48 25.4
      vertex -22.432 -29.625 25.4
    endloop
  endfacet
  facet normal 0 0 1
    outer loop
      vertex -27.85 -27.8645 25.4
      vertex -33.02 -34.48 25.4
      vertex -25.2335 -29.0295 25.4
    endloop
  endfacet
  facet normal 0 0 1
    outer loop
      vertex -30.1671 -26.1811 25.4
      vertex -33.02 -34.48 25.4
      vertex -27.85 -27.8645 25.4
    endloop
  endfacet
  facet normal 0 0 1
    outer loop
      vertex -37.02 -30.48 25.4
      vertex -30.1671 -26.1811 25.4
      vertex -32.0835 -24.0527 25.4
    endloop
  endfacet
  facet normal 0 0 1
    outer loop
      vertex -37.02 -30.48 25.4
      vertex -32.0835 -24.0527 25.4
      vertex -33.5156 -21.5723 25.4
    endloop
  endfacet
  facet normal 0 0 1
    outer loop
      vertex -37.02 -30.48 25.4
      vertex -33.5156 -21.5723 25.4
      vertex -34.4006 -18.8484 25.4
    endloop
  endfacet
  facet normal 0 0 1
    outer loop
      vertex -30.1671 -26.1811 25.4
      vertex -37.02 -30.48 25.4
      vertex -33.02 -34.48 25.4
    endloop
  endfacet
  facet normal 0 0 1
    outer loop
      vertex -37.02 -30.48 25.4
      vertex -34.4006 -18.8484 25.4
      vertex -34.7 -16 25.4
    endloop
  endfacet
  facet normal 0 0 1
    outer loop
      vertex -34.4006 -13.1516 25.4
      vertex -37.02 30.48 25.4
      vertex -34.7 -16 25.4
    endloop
  endfacet
  facet normal 0 0 1
    outer loop
      vertex -37.02 -30.48 25.4
      vertex -34.7 -16 25.4
      vertex -37.02 30.48 25.4
    endloop
  endfacet
  facet normal 0 0 1
    outer loop
      vertex -37.02 30.48 25.4
      vertex -35.8484 33.3084 25.4
      vertex -36.7155 32.0107 25.4
    endloop
  endfacet
  facet normal 0 0 1
    outer loop
      vertex -33.02 -34.48 25.4
      vertex -37.02 -30.48 25.4
      vertex -34.5507 -34.1755 25.4
    endloop
  endfacet
  facet normal 0 0 1
    outer loop
      vertex -34.5507 -34.1755 25.4
      vertex -37.02 -30.48 25.4
      vertex -35.8484 -33.3084 25.4
    endloop
  endfacet
  facet normal 0 0 1
    outer loop
      vertex -35.8484 -33.3084 25.4
      vertex -37.02 -30.48 25.4
      vertex -36.7155 -32.0107 25.4
    endloop
  endfacet
  facet normal -0.905586 0.180139 0.38401
    outer loop
      vertex -45.8944 40.0134 0
      vertex -46.275 38.1 0
      vertex -36.7155 32.0107 25.4
    endloop
  endfacet
  facet normal -0.905586 0.18014 0.38401
    outer loop
      vertex -36.7155 32.0107 25.4
      vertex -46.275 38.1 0
      vertex -37.02 30.48 25.4
    endloop
  endfacet
  facet normal -0.181378 0.911807 0.368388
    outer loop
      vertex -33.02 34.48 25.4
      vertex -41.275 43.1 0
      vertex -34.5507 34.1755 25.4
    endloop
  endfacet
  facet normal 0.503072 0.752901 0.424333
    outer loop
      vertex 43.1884 42.7194 0
      vertex 34.5507 34.1755 25.4
      vertex 35.8484 33.3084 25.4
    endloop
  endfacet
  facet normal 0.181377 0.911807 0.368388
    outer loop
      vertex 41.275 43.1 0
      vertex 34.5507 34.1755 25.4
      vertex 43.1884 42.7194 0
    endloop
  endfacet
  facet normal -0.181377 -0.911807 0.368388
    outer loop
      vertex -34.5507 -34.1755 25.4
      vertex -43.1884 -42.7194 0
      vertex -41.275 -43.1 0
    endloop
  endfacet
  facet normal -0.181378 -0.911807 0.368388
    outer loop
      vertex -34.5507 -34.1755 25.4
      vertex -41.275 -43.1 0
      vertex -33.02 -34.48 25.4
    endloop
  endfacet
  facet normal 0.181377 -0.911807 0.368388
    outer loop
      vertex 43.1884 -42.7194 0
      vertex 34.5507 -34.1755 25.4
      vertex 41.275 -43.1 0
    endloop
  endfacet
  facet normal -0.905586 -0.18014 0.38401
    outer loop
      vertex -37.02 -30.48 25.4
      vertex -46.275 -38.1 0
      vertex -36.7155 -32.0107 25.4
    endloop
  endfacet
  facet normal -0.750898 0.501735 0.429434
    outer loop
      vertex -35.8484 33.3084 25.4
      vertex -44.8105 41.6355 0
      vertex -36.7155 32.0107 25.4
    endloop
  endfacet
  facet normal -0.181377 0.911807 0.368388
    outer loop
      vertex -41.275 43.1 0
      vertex -43.1884 42.7194 0
      vertex -34.5507 34.1755 25.4
    endloop
  endfacet
  facet normal -0.503072 0.752901 0.424333
    outer loop
      vertex -34.5507 34.1755 25.4
      vertex -43.1884 42.7194 0
      vertex -35.8484 33.3084 25.4
    endloop
  endfacet
  facet normal 0.503072 -0.752901 0.424333
    outer loop
      vertex 35.8484 -33.3084 25.4
      vertex 34.5507 -34.1755 25.4
      vertex 43.1884 -42.7194 0
    endloop
  endfacet
  facet normal -0.994522 -0.104529 0
    outer loop
      vertex -7.3 -16 6.35
      vertex -7.59938 -13.1516 25.4
      vertex -7.59938 -13.1516 6.35
    endloop
  endfacet
  facet normal -0.994522 -0.104529 0
    outer loop
      vertex -7.59938 -13.1516 25.4
      vertex -7.3 -16 6.35
      vertex -7.3 -16 25.4
    endloop
  endfacet
  facet normal 0.994522 -0.10453 0
    outer loop
      vertex -34.7 -16 25.4
      vertex -34.4006 -13.1516 6.35
      vertex -34.4006 -13.1516 25.4
    endloop
  endfacet
  facet normal 0.994522 -0.10453 0
    outer loop
      vertex -34.4006 -13.1516 6.35
      vertex -34.7 -16 25.4
      vertex -34.7 -16 6.35
    endloop
  endfacet
  facet normal 0 -1 0
    outer loop
      vertex -22.432 -2.37505 6.35
      vertex -19.568 -2.37505 25.4
      vertex -22.432 -2.37505 25.4
    endloop
  endfacet
  facet normal 0 -1 -0
    outer loop
      vertex -19.568 -2.37505 25.4
      vertex -22.432 -2.37505 6.35
      vertex -19.568 -2.37505 6.35
    endloop
  endfacet
  facet normal 0 1 -0
    outer loop
      vertex -19.568 -29.625 6.35
      vertex -22.432 -29.625 25.4
      vertex -19.568 -29.625 25.4
    endloop
  endfacet
  facet normal 0 1 0
    outer loop
      vertex -22.432 -29.625 25.4
      vertex -19.568 -29.625 6.35
      vertex -22.432 -29.625 6.35
    endloop
  endfacet
  facet normal -0.587785 -0.809017 0
    outer loop
      vertex -14.15 -4.13545 6.35
      vertex -11.8329 -5.81892 25.4
      vertex -14.15 -4.13545 25.4
    endloop
  endfacet
  facet normal -0.587785 -0.809017 -0
    outer loop
      vertex -11.8329 -5.81892 25.4
      vertex -14.15 -4.13545 6.35
      vertex -11.8329 -5.81892 6.35
    endloop
  endfacet
  facet normal -0.406737 -0.913545 0
    outer loop
      vertex -16.7665 -2.97052 6.35
      vertex -14.15 -4.13545 25.4
      vertex -16.7665 -2.97052 25.4
    endloop
  endfacet
  facet normal -0.406737 -0.913545 -0
    outer loop
      vertex -14.15 -4.13545 25.4
      vertex -16.7665 -2.97052 6.35
      vertex -14.15 -4.13545 6.35
    endloop
  endfacet
  facet normal 0.587785 -0.809017 0
    outer loop
      vertex -30.1671 -5.81892 6.35
      vertex -27.85 -4.13545 25.4
      vertex -30.1671 -5.81892 25.4
    endloop
  endfacet
  facet normal 0.587785 -0.809017 0
    outer loop
      vertex -27.85 -4.13545 25.4
      vertex -30.1671 -5.81892 6.35
      vertex -27.85 -4.13545 6.35
    endloop
  endfacet
  facet normal 0.207912 -0.978148 0
    outer loop
      vertex -25.2335 -2.97052 6.35
      vertex -22.432 -2.37505 25.4
      vertex -25.2335 -2.97052 25.4
    endloop
  endfacet
  facet normal 0.207912 -0.978148 0
    outer loop
      vertex -22.432 -2.37505 25.4
      vertex -25.2335 -2.97052 6.35
      vertex -22.432 -2.37505 6.35
    endloop
  endfacet
  facet normal -0.951057 0.309017 0
    outer loop
      vertex -8.48443 -21.5723 6.35
      vertex -7.59938 -18.8484 25.4
      vertex -7.59938 -18.8484 6.35
    endloop
  endfacet
  facet normal -0.951057 0.309017 0
    outer loop
      vertex -7.59938 -18.8484 25.4
      vertex -8.48443 -21.5723 6.35
      vertex -8.48443 -21.5723 25.4
    endloop
  endfacet
  facet normal -0.866025 -0.5 0
    outer loop
      vertex -8.48443 -10.4277 6.35
      vertex -9.91647 -7.94734 25.4
      vertex -9.91647 -7.94734 6.35
    endloop
  endfacet
  facet normal -0.866025 -0.5 0
    outer loop
      vertex -9.91647 -7.94734 25.4
      vertex -8.48443 -10.4277 6.35
      vertex -8.48443 -10.4277 25.4
    endloop
  endfacet
  facet normal -0.951057 -0.309017 0
    outer loop
      vertex -7.59938 -13.1516 6.35
      vertex -8.48443 -10.4277 25.4
      vertex -8.48443 -10.4277 6.35
    endloop
  endfacet
  facet normal -0.951057 -0.309017 0
    outer loop
      vertex -8.48443 -10.4277 25.4
      vertex -7.59938 -13.1516 6.35
      vertex -7.59938 -13.1516 25.4
    endloop
  endfacet
  facet normal -0.743145 -0.669131 0
    outer loop
      vertex -9.91647 -7.94734 6.35
      vertex -11.8329 -5.81892 25.4
      vertex -11.8329 -5.81892 6.35
    endloop
  endfacet
  facet normal -0.743145 -0.669131 0
    outer loop
      vertex -11.8329 -5.81892 25.4
      vertex -9.91647 -7.94734 6.35
      vertex -9.91647 -7.94734 25.4
    endloop
  endfacet
  facet normal -0.207912 -0.978148 0
    outer loop
      vertex -19.568 -2.37505 6.35
      vertex -16.7665 -2.97052 25.4
      vertex -19.568 -2.37505 25.4
    endloop
  endfacet
  facet normal -0.207912 -0.978148 -0
    outer loop
      vertex -16.7665 -2.97052 25.4
      vertex -19.568 -2.37505 6.35
      vertex -16.7665 -2.97052 6.35
    endloop
  endfacet
  facet normal 0.866026 -0.499999 0
    outer loop
      vertex -33.5156 -10.4277 25.4
      vertex -32.0835 -7.94734 6.35
      vertex -32.0835 -7.94734 25.4
    endloop
  endfacet
  facet normal 0.866026 -0.499999 0
    outer loop
      vertex -32.0835 -7.94734 6.35
      vertex -33.5156 -10.4277 25.4
      vertex -33.5156 -10.4277 6.35
    endloop
  endfacet
  facet normal 0.743144 -0.669131 0
    outer loop
      vertex -32.0835 -7.94734 25.4
      vertex -30.1671 -5.81892 6.35
      vertex -30.1671 -5.81892 25.4
    endloop
  endfacet
  facet normal 0.743144 -0.669131 0
    outer loop
      vertex -30.1671 -5.81892 6.35
      vertex -32.0835 -7.94734 25.4
      vertex -32.0835 -7.94734 6.35
    endloop
  endfacet
  facet normal 0.951057 -0.309017 0
    outer loop
      vertex -34.4006 -13.1516 25.4
      vertex -33.5156 -10.4277 6.35
      vertex -33.5156 -10.4277 25.4
    endloop
  endfacet
  facet normal 0.951057 -0.309017 0
    outer loop
      vertex -33.5156 -10.4277 6.35
      vertex -34.4006 -13.1516 25.4
      vertex -34.4006 -13.1516 6.35
    endloop
  endfacet
  facet normal 0.406737 -0.913545 0
    outer loop
      vertex -27.85 -4.13545 6.35
      vertex -25.2335 -2.97052 25.4
      vertex -27.85 -4.13545 25.4
    endloop
  endfacet
  facet normal 0.406737 -0.913545 0
    outer loop
      vertex -25.2335 -2.97052 25.4
      vertex -27.85 -4.13545 6.35
      vertex -25.2335 -2.97052 6.35
    endloop
  endfacet
  facet normal -0.994522 0.104529 0
    outer loop
      vertex -7.59938 -18.8484 6.35
      vertex -7.3 -16 25.4
      vertex -7.3 -16 6.35
    endloop
  endfacet
  facet normal -0.994522 0.104529 0
    outer loop
      vertex -7.3 -16 25.4
      vertex -7.59938 -18.8484 6.35
      vertex -7.59938 -18.8484 25.4
    endloop
  endfacet
  facet normal 0 0 1
    outer loop
      vertex -7.59938 -13.1516 6.35
      vertex -7.59938 -18.8484 6.35
      vertex -7.3 -16 6.35
    endloop
  endfacet
  facet normal 0 0 1
    outer loop
      vertex -8.48443 -10.4277 6.35
      vertex -7.59938 -18.8484 6.35
      vertex -7.59938 -13.1516 6.35
    endloop
  endfacet
  facet normal 0 0 1
    outer loop
      vertex -8.48443 -10.4277 6.35
      vertex -8.48443 -21.5723 6.35
      vertex -7.59938 -18.8484 6.35
    endloop
  endfacet
  facet normal 0 0 1
    outer loop
      vertex -9.91647 -7.94734 6.35
      vertex -8.48443 -21.5723 6.35
      vertex -8.48443 -10.4277 6.35
    endloop
  endfacet
  facet normal 0 0 1
    outer loop
      vertex -9.91647 -7.94734 6.35
      vertex -9.91647 -24.0527 6.35
      vertex -8.48443 -21.5723 6.35
    endloop
  endfacet
  facet normal 0 0 1
    outer loop
      vertex -11.8329 -5.81892 6.35
      vertex -9.91647 -24.0527 6.35
      vertex -9.91647 -7.94734 6.35
    endloop
  endfacet
  facet normal 0 0 1
    outer loop
      vertex -11.8329 -5.81892 6.35
      vertex -11.8329 -26.1811 6.35
      vertex -9.91647 -24.0527 6.35
    endloop
  endfacet
  facet normal 0 0 1
    outer loop
      vertex -14.15 -4.13545 6.35
      vertex -11.8329 -26.1811 6.35
      vertex -11.8329 -5.81892 6.35
    endloop
  endfacet
  facet normal 0 0 1
    outer loop
      vertex -14.15 -4.13545 6.35
      vertex -14.15 -27.8645 6.35
      vertex -11.8329 -26.1811 6.35
    endloop
  endfacet
  facet normal 0 0 1
    outer loop
      vertex -16.7665 -2.97052 6.35
      vertex -14.15 -27.8645 6.35
      vertex -14.15 -4.13545 6.35
    endloop
  endfacet
  facet normal 0 0 1
    outer loop
      vertex -16.7665 -2.97052 6.35
      vertex -16.7665 -29.0295 6.35
      vertex -14.15 -27.8645 6.35
    endloop
  endfacet
  facet normal 0 0 1
    outer loop
      vertex -19.568 -2.37505 6.35
      vertex -16.7665 -29.0295 6.35
      vertex -16.7665 -2.97052 6.35
    endloop
  endfacet
  facet normal 0 0 1
    outer loop
      vertex -19.568 -2.37505 6.35
      vertex -19.568 -29.625 6.35
      vertex -16.7665 -29.0295 6.35
    endloop
  endfacet
  facet normal -0 0 1
    outer loop
      vertex -22.432 -2.37505 6.35
      vertex -19.568 -29.625 6.35
      vertex -19.568 -2.37505 6.35
    endloop
  endfacet
  facet normal 0 0 1
    outer loop
      vertex -22.432 -2.37505 6.35
      vertex -22.432 -29.625 6.35
      vertex -19.568 -29.625 6.35
    endloop
  endfacet
  facet normal -0 0 1
    outer loop
      vertex -25.2335 -2.97052 6.35
      vertex -22.432 -29.625 6.35
      vertex -22.432 -2.37505 6.35
    endloop
  endfacet
  facet normal 0 0 1
    outer loop
      vertex -25.2335 -2.97052 6.35
      vertex -25.2335 -29.0295 6.35
      vertex -22.432 -29.625 6.35
    endloop
  endfacet
  facet normal -0 0 1
    outer loop
      vertex -27.85 -4.13545 6.35
      vertex -25.2335 -29.0295 6.35
      vertex -25.2335 -2.97052 6.35
    endloop
  endfacet
  facet normal 0 0 1
    outer loop
      vertex -27.85 -4.13545 6.35
      vertex -27.85 -27.8645 6.35
      vertex -25.2335 -29.0295 6.35
    endloop
  endfacet
  facet normal -0 0 1
    outer loop
      vertex -30.1671 -5.81892 6.35
      vertex -27.85 -27.8645 6.35
      vertex -27.85 -4.13545 6.35
    endloop
  endfacet
  facet normal 0 0 1
    outer loop
      vertex -30.1671 -5.81892 6.35
      vertex -30.1671 -26.1811 6.35
      vertex -27.85 -27.8645 6.35
    endloop
  endfacet
  facet normal -0 0 1
    outer loop
      vertex -32.0835 -7.94734 6.35
      vertex -30.1671 -26.1811 6.35
      vertex -30.1671 -5.81892 6.35
    endloop
  endfacet
  facet normal 0 0 1
    outer loop
      vertex -32.0835 -7.94734 6.35
      vertex -32.0835 -24.0527 6.35
      vertex -30.1671 -26.1811 6.35
    endloop
  endfacet
  facet normal -0 0 1
    outer loop
      vertex -33.5156 -10.4277 6.35
      vertex -32.0835 -24.0527 6.35
      vertex -32.0835 -7.94734 6.35
    endloop
  endfacet
  facet normal 0 0 1
    outer loop
      vertex -33.5156 -10.4277 6.35
      vertex -33.5156 -21.5723 6.35
      vertex -32.0835 -24.0527 6.35
    endloop
  endfacet
  facet normal -0 0 1
    outer loop
      vertex -34.4006 -13.1516 6.35
      vertex -33.5156 -21.5723 6.35
      vertex -33.5156 -10.4277 6.35
    endloop
  endfacet
  facet normal 0 0 1
    outer loop
      vertex -34.4006 -13.1516 6.35
      vertex -34.4006 -18.8484 6.35
      vertex -33.5156 -21.5723 6.35
    endloop
  endfacet
  facet normal 0 -0 1
    outer loop
      vertex -34.4006 -18.8484 6.35
      vertex -34.4006 -13.1516 6.35
      vertex -34.7 -16 6.35
    endloop
  endfacet
  facet normal -0.207912 0.978148 0
    outer loop
      vertex -16.7665 -29.0295 6.35
      vertex -19.568 -29.625 25.4
      vertex -16.7665 -29.0295 25.4
    endloop
  endfacet
  facet normal -0.207912 0.978148 0
    outer loop
      vertex -19.568 -29.625 25.4
      vertex -16.7665 -29.0295 6.35
      vertex -19.568 -29.625 6.35
    endloop
  endfacet
  facet normal -0.866025 0.5 0
    outer loop
      vertex -9.91647 -24.0527 6.35
      vertex -8.48443 -21.5723 25.4
      vertex -8.48443 -21.5723 6.35
    endloop
  endfacet
  facet normal -0.866025 0.5 0
    outer loop
      vertex -8.48443 -21.5723 25.4
      vertex -9.91647 -24.0527 6.35
      vertex -9.91647 -24.0527 25.4
    endloop
  endfacet
  facet normal 0.587785 0.809017 -0
    outer loop
      vertex -27.85 -27.8645 6.35
      vertex -30.1671 -26.1811 25.4
      vertex -27.85 -27.8645 25.4
    endloop
  endfacet
  facet normal 0.587785 0.809017 0
    outer loop
      vertex -30.1671 -26.1811 25.4
      vertex -27.85 -27.8645 6.35
      vertex -30.1671 -26.1811 6.35
    endloop
  endfacet
  facet normal 0.866026 0.499999 0
    outer loop
      vertex -32.0835 -24.0527 25.4
      vertex -33.5156 -21.5723 6.35
      vertex -33.5156 -21.5723 25.4
    endloop
  endfacet
  facet normal 0.866026 0.499999 0
    outer loop
      vertex -33.5156 -21.5723 6.35
      vertex -32.0835 -24.0527 25.4
      vertex -32.0835 -24.0527 6.35
    endloop
  endfacet
  facet normal 0.743144 0.669131 0
    outer loop
      vertex -30.1671 -26.1811 25.4
      vertex -32.0835 -24.0527 6.35
      vertex -32.0835 -24.0527 25.4
    endloop
  endfacet
  facet normal 0.743144 0.669131 0
    outer loop
      vertex -32.0835 -24.0527 6.35
      vertex -30.1671 -26.1811 25.4
      vertex -30.1671 -26.1811 6.35
    endloop
  endfacet
  facet normal -0.587785 0.809017 0
    outer loop
      vertex -11.8329 -26.1811 6.35
      vertex -14.15 -27.8645 25.4
      vertex -11.8329 -26.1811 25.4
    endloop
  endfacet
  facet normal -0.587785 0.809017 0
    outer loop
      vertex -14.15 -27.8645 25.4
      vertex -11.8329 -26.1811 6.35
      vertex -14.15 -27.8645 6.35
    endloop
  endfacet
  facet normal -0.406737 0.913545 0
    outer loop
      vertex -14.15 -27.8645 6.35
      vertex -16.7665 -29.0295 25.4
      vertex -14.15 -27.8645 25.4
    endloop
  endfacet
  facet normal -0.406737 0.913545 0
    outer loop
      vertex -16.7665 -29.0295 25.4
      vertex -14.15 -27.8645 6.35
      vertex -16.7665 -29.0295 6.35
    endloop
  endfacet
  facet normal 0.207912 0.978148 -0
    outer loop
      vertex -22.432 -29.625 6.35
      vertex -25.2335 -29.0295 25.4
      vertex -22.432 -29.625 25.4
    endloop
  endfacet
  facet normal 0.207912 0.978148 0
    outer loop
      vertex -25.2335 -29.0295 25.4
      vertex -22.432 -29.625 6.35
      vertex -25.2335 -29.0295 6.35
    endloop
  endfacet
  facet normal 0.951057 0.309016 0
    outer loop
      vertex -33.5156 -21.5723 25.4
      vertex -34.4006 -18.8484 6.35
      vertex -34.4006 -18.8484 25.4
    endloop
  endfacet
  facet normal 0.951057 0.309016 0
    outer loop
      vertex -34.4006 -18.8484 6.35
      vertex -33.5156 -21.5723 25.4
      vertex -33.5156 -21.5723 6.35
    endloop
  endfacet
  facet normal 0.994522 0.10453 0
    outer loop
      vertex -34.4006 -18.8484 25.4
      vertex -34.7 -16 6.35
      vertex -34.7 -16 25.4
    endloop
  endfacet
  facet normal 0.994522 0.10453 0
    outer loop
      vertex -34.7 -16 6.35
      vertex -34.4006 -18.8484 25.4
      vertex -34.4006 -18.8484 6.35
    endloop
  endfacet
  facet normal -0.743145 0.669131 0
    outer loop
      vertex -11.8329 -26.1811 6.35
      vertex -9.91647 -24.0527 25.4
      vertex -9.91647 -24.0527 6.35
    endloop
  endfacet
  facet normal -0.743145 0.669131 0
    outer loop
      vertex -9.91647 -24.0527 25.4
      vertex -11.8329 -26.1811 6.35
      vertex -11.8329 -26.1811 25.4
    endloop
  endfacet
  facet normal 0.406737 0.913545 -0
    outer loop
      vertex -25.2335 -29.0295 6.35
      vertex -27.85 -27.8645 25.4
      vertex -25.2335 -29.0295 25.4
    endloop
  endfacet
  facet normal 0.406737 0.913545 0
    outer loop
      vertex -27.85 -27.8645 25.4
      vertex -25.2335 -29.0295 6.35
      vertex -27.85 -27.8645 6.35
    endloop
  endfacet
endsolid OpenSCAD_Model
